CinzelDecorative-Regular-OTF.ufo
<glyph name="numbersign" format="1">
  <advance width="536"/>
  <unicode hex="0023"/>
  <outline>
    <contour>
      <point x="516" y="466.877" type="line"/>
      <point x="516" y="496.877" type="line"/>
      <point x="408.659" y="496.877" type="line"/>
      <point x="444.474" y="700" type="line"/>
      <point x="412.474" y="700" type="line"/>
      <point x="376.659" y="496.877" type="line"/>
      <point x="208.659" y="496.877" type="line"/>
      <point x="244.474" y="700" type="line"/>
      <point x="212.474" y="700" type="line"/>
      <point x="176.658" y="496.877" type="line"/>
      <point x="64" y="496.877" type="line"/>
      <point x="64" y="466.877" type="line"/>
      <point x="171.368" y="466.877" type="line"/>
      <point x="132.577" y="246.877" type="line"/>
      <point x="20" y="246.877" type="line"/>
      <point x="20" y="216.877" type="line"/>
      <point x="127.287" y="216.877" type="line"/>
      <point x="89.0459" y="0" type="line"/>
      <point x="121.046" y="0" type="line"/>
      <point x="159.287" y="216.877" type="line"/>
      <point x="327.287" y="216.877" type="line"/>
      <point x="289.046" y="0" type="line"/>
      <point x="321.046" y="0" type="line"/>
      <point x="359.287" y="216.877" type="line"/>
      <point x="472" y="216.877" type="line"/>
      <point x="472" y="246.877" type="line"/>
      <point x="364.577" y="246.877" type="line"/>
      <point x="403.369" y="466.877" type="line"/>
    </contour>
    <contour>
      <point x="332.577" y="246.877" type="line"/>
      <point x="164.577" y="246.877" type="line"/>
      <point x="203.369" y="466.877" type="line"/>
      <point x="371.369" y="466.877" type="line"/>
    </contour>
  </outline>
</glyph>
<glyph name="dollar" format="1">
  <advance width="469"/>
  <unicode hex="0024"/>
  <outline>
    <contour>
      <point x="249.768" y="401.594" type="line"/>
      <point x="271.32" y="681.911" type="line"/>
      <point x="327.519" y="673.852"/>
      <point x="363.76" y="637.452"/>
      <point x="363.76" y="581.035" type="curve"/>
      <point x="373.389" y="581.035" type="line"/>
      <point x="373.378" y="703.741" type="line"/>
      <point x="334.537" y="703.741" type="line"/>
      <point x="317.468" y="707.592"/>
      <point x="296.931" y="710.857"/>
      <point x="273.68" y="712.613" type="curve"/>
      <point x="279.395" y="786.94" type="line"/>
      <point x="248.871" y="787.988" type="line"/>
      <point x="243.213" y="713.956" type="line"/>
      <point x="144.887" y="714"/>
      <point x="72.4894" y="638.321"/>
      <point x="72.4894" y="545.679" type="curve" smooth="yes"/>
      <point x="72.4894" y="505.418"/>
      <point x="85.2909" y="459.312"/>
      <point x="126.453" y="421.085" type="curve" smooth="yes"/>
      <point x="214.575" y="339.247" type="line"/>
      <point x="190.043" y="18.2709" type="line"/>
      <point x="115.898" y="29.4097"/>
      <point x="71.273" y="88.4045"/>
      <point x="79.053" y="180.047" type="curve"/>
      <point x="70.2612" y="180.047" type="line"/>
      <point x="55.0277" y="135.21"/>
      <point x="51.2482" y="71.5105"/>
      <point x="58.7007" y="40.6389" type="curve"/>
      <point x="87.2622" y="11.4509"/>
      <point x="137.048" y="-5"/>
      <point x="187.783" y="-11" type="curve"/>
      <point x="181.08" y="-99" type="line"/>
      <point x="211.05" y="-102" type="line"/>
      <point x="217.839" y="-14" type="line"/>
      <point x="342.085" y="-13"/>
      <point x="414.928" y="56.0975"/>
      <point x="414.928" y="173.728" type="curve" smooth="yes"/>
      <point x="414.928" y="215.787"/>
      <point x="403.515" y="259.272"/>
      <point x="365.021" y="294.906" type="curve" smooth="yes"/>
    </contour>
    <contour>
      <point x="168.514" y="476.809" type="line" smooth="yes"/>
      <point x="138.587" y="504.511"/>
      <point x="127.959" y="540.187"/>
      <point x="127.959" y="570.006" type="curve" smooth="yes"/>
      <point x="127.959" y="628.35"/>
      <point x="177.98" y="680.415"/>
      <point x="240.883" y="683.465" type="curve"/>
      <point x="221.35" y="427.9" type="line"/>
    </contour>
    <contour>
      <point x="242.949" y="312.896" type="line"/>
      <point x="318.007" y="243.189" type="line" smooth="yes"/>
      <point x="345.741" y="217.432"/>
      <point x="357.189" y="185.018"/>
      <point x="357.189" y="148.9" type="curve" smooth="yes"/>
      <point x="357.189" y="72.7941"/>
      <point x="297.495" y="18.8144"/>
      <point x="220.152" y="16.3819" type="curve"/>
    </contour>
  </outline>
</glyph>
<glyph name="ampersand" format="1">
  <advance width="818"/>
  <unicode hex="0026"/>
  <outline>
    <contour>
      <point x="1139.44" y="-61" type="line"/>
      <point x="962.375" y="-147"/>
      <point x="810.408" y="-62"/>
      <point x="687.986" y="36" type="curve" smooth="yes"/>
      <point x="624.347" y="88.3086" type="line"/>
      <point x="820.112" y="270.336"/>
      <point x="843.569" y="647.672"/>
      <point x="496.766" y="789.21" type="curve"/>
      <point x="491.976" y="783.21" type="line"/>
      <point x="826.581" y="609.136"/>
      <point x="777.119" y="268.79"/>
      <point x="601.439" y="107.481" type="curve"/>
      <point x="509.867" y="184.318"/>
      <point x="392.589" y="284.883"/>
      <point x="371.665" y="303" type="curve" smooth="yes"/>
      <point x="266.489" y="394"/>
      <point x="207.254" y="458"/>
      <point x="204.432" y="542.133" type="curve" smooth="yes"/>
      <point x="201.424" y="625"/>
      <point x="253.365" y="684"/>
      <point x="334.648" y="684.449" type="curve" smooth="yes"/>
      <point x="415.365" y="684"/>
      <point x="475.389" y="626"/>
      <point x="479.121" y="529.951" type="curve"/>
      <point x="489.121" y="529.951" type="line"/>
      <point x="502.519" y="643.151" type="line"/>
      <point x="467.399" y="683"/>
      <point x="407.352" y="713"/>
      <point x="328.701" y="713.947" type="curve" smooth="yes"/>
      <point x="203.282" y="715"/>
      <point x="131.901" y="640"/>
      <point x="135.682" y="534.975" type="curve" smooth="yes"/>
      <point x="137.19" y="490.286"/>
      <point x="151.824" y="449.874"/>
      <point x="178.53" y="409.321" type="curve"/>
      <point x="113.728" y="374.966"/>
      <point x="60.3717" y="311.41"/>
      <point x="63.8422" y="212" type="curve" smooth="yes"/>
      <point x="69.358" y="53.9997"/>
      <point x="251.233" y="-30"/>
      <point x="417.592" y="-10" type="curve" smooth="yes"/>
      <point x="474.146" y="-3"/>
      <point x="525.938" y="17.0503"/>
      <point x="571.31" y="46.714" type="curve"/>
      <point x="617.489" y="8.40748"/>
      <point x="657.82" y="-24"/>
      <point x="679.674" y="-41" type="curve" smooth="yes"/>
      <point x="804.991" y="-136"/>
      <point x="988.365" y="-204"/>
      <point x="1143.75" y="-70" type="curve"/>
    </contour>
    <contour>
      <point x="267.969" y="4.96658"/>
      <point x="140.578" y="105"/>
      <point x="136.319" y="227" type="curve" smooth="yes"/>
      <point x="134.472" y="279.908"/>
      <point x="148.412" y="340.851"/>
      <point x="195.591" y="385.46" type="curve"/>
      <point x="227.58" y="343.907"/>
      <point x="271.891" y="301.312"/>
      <point x="327.411" y="253" type="curve" smooth="yes"/>
      <point x="364.272" y="220.895"/>
      <point x="461.991" y="137.784"/>
      <point x="547.696" y="66.3511" type="curve"/>
      <point x="507.465" y="41.126"/>
      <point x="463.021" y="24.7025"/>
      <point x="416.545" y="19.9999" type="curve" smooth="yes"/>
    </contour>
  </outline>
</glyph>
<glyph name="A" format="1">
  <advance width="712"/>
  <unicode hex="0041"/>
  <outline>
    <contour>
      <point x="944.334" y="-191" type="line"/>
      <point x="762.577" y="-230"/>
      <point x="650.906" y="-5"/>
      <point x="594.487" y="155.212" type="curve" smooth="yes"/>
      <point x="472.472" y="500.821" type="line" smooth="yes"/>
      <point x="422.78" y="641.574"/>
      <point x="352.599" y="833.043"/>
      <point x="118.292" y="733.835" type="curve"/>
      <point x="121.116" y="723.731" type="line"/>
      <point x="224.681" y="761.203"/>
      <point x="288.307" y="724.231"/>
      <point x="331.685" y="662.126" type="curve"/>
      <point x="84.0534" y="67.5915" type="line"/>
      <point x="63.3822" y="26.9612"/>
      <point x="28.1726" y="10"/>
      <point x="-1" y="10" type="curve" smooth="yes"/>
      <point x="-10" y="10" type="line"/>
      <point x="-10" y="0" type="line"/>
      <point x="191.278" y="0" type="line"/>
      <point x="191.278" y="9.90803" type="line"/>
      <point x="182.486" y="9.90803" type="line" smooth="yes"/>
      <point x="156.669" y="9.90803"/>
      <point x="129.884" y="32.6636"/>
      <point x="144.486" y="72.6815" type="curve" smooth="yes"/>
      <point x="213.751" y="251" type="line"/>
      <point x="488.043" y="251" type="line"/>
      <point x="526.795" y="136.564" type="line" smooth="yes"/>
      <point x="628.301" y="-163"/>
      <point x="787.584" y="-259"/>
      <point x="945.159" y="-201" type="curve"/>
    </contour>
    <contour>
      <point x="225.431" y="281" type="line"/>
      <point x="357.054" y="619.071" type="line"/>
      <point x="373.892" y="585.645"/>
      <point x="387.144" y="548.966"/>
      <point x="398.898" y="514.258" type="curve" smooth="yes"/>
      <point x="477.885" y="281" type="line"/>
    </contour>
    <contour>
      <point x="570.72" y="10" type="move" name="ogonek"/>
    </contour>
    <contour>
      <point x="366.664" y="774" type="move" name="top"/>
    </contour>
  </outline>
</glyph>
<glyph name="G" format="1">
  <advance width="846"/>
  <unicode hex="0047"/>
  <outline>
    <contour>
      <point x="1115.98" y="-139" type="line"/>
      <point x="880.992" y="-177"/>
      <point x="747.676" y="-86"/>
      <point x="738.625" y="126.16" type="curve"/>
      <point x="738.625" y="280.182" type="line"/>
      <point x="738.151" y="309.103"/>
      <point x="756.339" y="325.41"/>
      <point x="788.673" y="325.41" type="curve" smooth="yes"/>
      <point x="803.743" y="325.389" type="line"/>
      <point x="803.743" y="335.389" type="line"/>
      <point x="607.875" y="335.389" type="line"/>
      <point x="607.875" y="325.389" type="line"/>
      <point x="623.642" y="325.41" type="line" smooth="yes"/>
      <point x="655.918" y="325.455"/>
      <point x="674.32" y="309.049"/>
      <point x="674.32" y="279.843" type="curve" smooth="yes"/>
      <point x="674.32" y="102.656" type="line"/>
      <point x="618.157" y="49.354"/>
      <point x="536.333" y="15.926"/>
      <point x="449.42" y="15.926" type="curve" smooth="yes"/>
      <point x="269.751" y="16.8704"/>
      <point x="135" y="159.045"/>
      <point x="135" y="350" type="curve" smooth="yes"/>
      <point x="135" y="545.9"/>
      <point x="269.752" y="684.074"/>
      <point x="449.422" y="684.074" type="curve" smooth="yes"/>
      <point x="581.47" y="684.074"/>
      <point x="672.999" y="619.702"/>
      <point x="703.378" y="505.264" type="curve"/>
      <point x="711.701" y="505.232" type="line"/>
      <point x="691.525" y="646.468" type="line"/>
      <point x="632.775" y="684.286"/>
      <point x="559.117" y="714"/>
      <point x="449.128" y="714" type="curve" smooth="yes"/>
      <point x="226.769" y="714"/>
      <point x="60" y="563"/>
      <point x="60" y="350.002" type="curve" smooth="yes"/>
      <point x="60" y="142.047"/>
      <point x="226.894" y="-13"/>
      <point x="449.42" y="-14" type="curve" smooth="yes"/>
      <point x="552.856" y="-14"/>
      <point x="629.376" y="18.3656"/>
      <point x="681.888" y="58.3124" type="curve"/>
      <point x="719.396" y="-123"/>
      <point x="888.934" y="-225"/>
      <point x="1116.6" y="-149" type="curve"/>
    </contour>
    <contour>
      <point x="449.421" y="764" type="move" name="top"/>
    </contour>
    <contour>
      <point x="449.42" y="-64" type="move" name="bottom"/>
    </contour>
  </outline>
</glyph>
<glyph name="H" format="1">
  <advance width="813"/>
  <unicode hex="0048"/>
  <outline>
    <contour>
      <point x="664.562" y="610" type="line"/>
      <point x="665.639" y="730"/>
      <point x="694.636" y="791"/>
      <point x="753.805" y="822" type="curve"/>
      <point x="748.805" y="831" type="line"/>
      <point x="657.396" y="810"/>
      <point x="600.645" y="762"/>
      <point x="600.396" y="610" type="curve" smooth="yes"/>
      <point x="600.396" y="361.058" type="line"/>
      <point x="213.409" y="361.058" type="line"/>
      <point x="213.409" y="627.818" type="line" smooth="yes"/>
      <point x="214.389" y="662.363"/>
      <point x="242.656" y="690.08"/>
      <point x="277.448" y="690.08" type="curve" smooth="yes"/>
      <point x="290.098" y="690.06" type="line"/>
      <point x="290.26" y="700.06" type="line"/>
      <point x="71.504" y="700.06" type="line"/>
      <point x="71.666" y="690.06" type="line"/>
      <point x="84.317" y="690.08" type="line" smooth="yes"/>
      <point x="119.181" y="690.08"/>
      <point x="147.492" y="662.249"/>
      <point x="148.362" y="627.605" type="curve" smooth="yes"/>
      <point x="148.362" y="70" type="line" smooth="yes"/>
      <point x="148.362" y="-50"/>
      <point x="119.168" y="-111"/>
      <point x="60" y="-142" type="curve"/>
      <point x="65" y="-151" type="line"/>
      <point x="156.408" y="-130"/>
      <point x="213.409" y="-82"/>
      <point x="213.409" y="70" type="curve" smooth="yes"/>
      <point x="213.409" y="331.058" type="line"/>
      <point x="599.939" y="331.058" type="line"/>
      <point x="599.939" y="70.6785" type="line"/>
      <point x="597.738" y="36.8642"/>
      <point x="569.802" y="9.97993"/>
      <point x="535.536" y="9.97993" type="curve" smooth="yes"/>
      <point x="522.886" y="9.99993" type="line"/>
      <point x="522.724" y="0" type="line"/>
      <point x="741.479" y="0" type="line"/>
      <point x="741.317" y="9.99993" type="line"/>
      <point x="728.667" y="9.97993" type="line" smooth="yes"/>
      <point x="693.666" y="9.97993"/>
      <point x="665.269" y="38.0299"/>
      <point x="664.613" y="72.8639" type="curve" smooth="yes"/>
    </contour>
    <contour>
      <point x="417.795" y="350" type="move" name="center"/>
    </contour>
    <contour>
      <point x="417.795" y="700" type="move" name="top"/>
    </contour>
  </outline>
</glyph>
<glyph name="L" format="1">
  <advance width="401"/>
  <unicode hex="004C"/>
  <outline>
    <contour>
      <point x="921.213" y="-111" type="line"/>
      <point x="756" y="-174"/>
      <point x="658.335" y="-161"/>
      <point x="250" y="-19" type="curve" smooth="yes"/>
      <point x="202.807" y="-3"/>
      <point x="202" y="22"/>
      <point x="201.915" y="49.6635" type="curve"/>
      <point x="201.915" y="627.077" type="line" smooth="yes"/>
      <point x="202.571" y="661.911"/>
      <point x="230.968" y="689.961"/>
      <point x="265.969" y="689.961" type="curve" smooth="yes"/>
      <point x="278.619" y="689.941" type="line"/>
      <point x="278.781" y="699.941" type="line"/>
      <point x="60" y="699.941" type="line"/>
      <point x="60.162" y="689.941" type="line"/>
      <point x="72.812" y="689.961" type="line" smooth="yes"/>
      <point x="107.813" y="689.961"/>
      <point x="136.21" y="661.911"/>
      <point x="136.866" y="627.077" type="curve" smooth="yes"/>
      <point x="136.885" y="72.8645" type="line" smooth="yes"/>
      <point x="136" y="37"/>
      <point x="107" y="10"/>
      <point x="73" y="10" type="curve" smooth="yes"/>
      <point x="60.1763" y="10" type="line"/>
      <point x="60.0153" y="0" type="line"/>
      <point x="117.318" y="-1"/>
      <point x="175.847" y="-22"/>
      <point x="236.311" y="-49" type="curve" smooth="yes"/>
      <point x="436.484" y="-138"/>
      <point x="657.871" y="-304"/>
      <point x="926.212" y="-119" type="curve"/>
    </contour>
    <contour>
      <point x="169.562" y="764" type="move" name="top"/>
    </contour>
    <contour>
      <point x="237.331" y="-110" type="move" name="bottom"/>
    </contour>
  </outline>
</glyph>
<glyph name="V" format="1">
  <advance width="718"/>
  <unicode hex="0056"/>
  <outline>
    <contour>
      <point x="378.209" y="103.68" type="line"/>
      <point x="168.604" y="627.75" type="line" smooth="yes"/>
      <point x="154.056" y="667.725"/>
      <point x="180.587" y="690.154"/>
      <point x="206.388" y="690.154" type="curve" smooth="yes"/>
      <point x="215.18" y="690.154" type="line"/>
      <point x="215.18" y="700.154" type="line"/>
      <point x="-10" y="700.154" type="line"/>
      <point x="-10" y="690.059" type="line"/>
      <point x="-2" y="690.059" type="line" smooth="yes"/>
      <point x="29.0102" y="690.059"/>
      <point x="66.0202" y="671.9"/>
      <point x="86.2322" y="627.351" type="curve" smooth="yes"/>
      <point x="367.266" y="-14" type="line"/>
      <point x="376.272" y="-14" type="line"/>
      <point x="376.272" y="7.98705"/>
      <point x="413.298" y="89"/>
      <point x="413.298" y="89" type="curve"/>
      <point x="691.49" y="697" type="line" smooth="yes"/>
      <point x="738.372" y="799.463"/>
      <point x="802.302" y="927.797"/>
      <point x="968.299" y="934.573" type="curve"/>
      <point x="968.299" y="944.573" type="line"/>
      <point x="763.304" y="952.352"/>
      <point x="676.22" y="815.964"/>
      <point x="626.447" y="697" type="curve" smooth="yes"/>
    </contour>
  </outline>
</glyph>
<glyph name="X" format="1">
  <advance width="662"/>
  <unicode hex="0058"/>
  <outline>
    <contour>
      <point x="581.408" y="666.723" type="line" smooth="yes"/>
      <point x="633.14" y="735.745"/>
      <point x="698.857" y="844.075"/>
      <point x="806.896" y="845.6" type="curve"/>
      <point x="806.896" y="855.6" type="line"/>
      <point x="689.406" y="865.6"/>
      <point x="612.085" y="809.218"/>
      <point x="528.247" y="690.147" type="curve" smooth="yes"/>
      <point x="336.254" y="416.913" type="line"/>
      <point x="201.197" y="629.063" type="line"/>
      <point x="185.736" y="657.21"/>
      <point x="209.909" y="690.034"/>
      <point x="236.828" y="690.034" type="curve" smooth="yes"/>
      <point x="249.426" y="690.034" type="line"/>
      <point x="249.426" y="700" type="line"/>
      <point x="6.80804" y="700" type="line"/>
      <point x="6.80804" y="690.034" type="line"/>
      <point x="20.808" y="690.034" type="line" smooth="yes"/>
      <point x="62.805" y="690.034"/>
      <point x="100.325" y="662.076"/>
      <point x="121.602" y="631.204" type="curve"/>
      <point x="292.443" y="361.697" type="line"/>
      <point x="79.53" y="61.7951" type="line" smooth="yes"/>
      <point x="19.786" y="-22"/>
      <point x="-58" y="-134"/>
      <point x="-172" y="-139" type="curve"/>
      <point x="-172" y="-149" type="line"/>
      <point x="-48" y="-165"/>
      <point x="40.831" y="-99"/>
      <point x="129.538" y="30.8471" type="curve" smooth="yes"/>
      <point x="322.552" y="314.187" type="line"/>
      <point x="476.71" y="70.9401" type="line"/>
      <point x="492.707" y="42.6972"/>
      <point x="468.412" y="10"/>
      <point x="441.343" y="10" type="curve" smooth="yes"/>
      <point x="428.744" y="10" type="line"/>
      <point x="428.744" y="0" type="line"/>
      <point x="672.581" y="0" type="line"/>
      <point x="672.581" y="10" type="line"/>
      <point x="658.949" y="10" type="line" smooth="yes"/>
      <point x="617.071" y="10"/>
      <point x="579.646" y="37.2978"/>
      <point x="558.337" y="68.0621" type="curve"/>
      <point x="365.43" y="371.083" type="line"/>
    </contour>
  </outline>
</glyph>
<glyph name="Y" format="1">
  <advance width="618"/>
  <unicode hex="0059"/>
  <outline>
    <contour>
      <point x="-40" y="747.139" type="line"/>
      <point x="125.856" y="747.139"/>
      <point x="284.572" y="397.808"/>
      <point x="284.572" y="221.296" type="curve" smooth="yes"/>
      <point x="284.572" y="72.2343" type="line" smooth="yes"/>
      <point x="283.65" y="37.6635"/>
      <point x="254.795" y="9.99998"/>
      <point x="221" y="9.99998" type="curve" smooth="yes"/>
      <point x="207.882" y="9.99998" type="line"/>
      <point x="207.721" y="0" type="line"/>
      <point x="426.468" y="0" type="line"/>
      <point x="426.307" y="9.99998" type="line"/>
      <point x="414" y="9.99998" type="line" smooth="yes"/>
      <point x="377" y="9.99998"/>
      <point x="350" y="40"/>
      <point x="349.603" y="72.864" type="curve" smooth="yes"/>
      <point x="349.59" y="220.367" type="line" smooth="yes"/>
      <point x="349.59" y="385.23"/>
      <point x="500.423" y="747.139"/>
      <point x="658.831" y="747.139" type="curve"/>
      <point x="658.831" y="757.139" type="line"/>
      <point x="461.831" y="757.139"/>
      <point x="387.058" y="532.384"/>
      <point x="328.037" y="375.779" type="curve"/>
      <point x="278.265" y="511.504"/>
      <point x="204.888" y="767.139"/>
      <point x="-40" y="757.139" type="curve"/>
    </contour>
    <contour>
      <point x="331.112" y="764" type="move" name="top"/>
    </contour>
  </outline>
</glyph>
<glyph name="Z" format="1">
  <advance width="636"/>
  <unicode hex="005A"/>
  <outline>
    <contour>
      <point x="991.213" y="-81" type="line"/>
      <point x="811" y="-158"/>
      <point x="660.776" y="-154"/>
      <point x="250" y="-19" type="curve" smooth="yes"/>
      <point x="210.166" y="-6"/>
      <point x="177.983" y="5.9786"/>
      <point x="143.281" y="15.3348" type="curve"/>
      <point x="579.594" y="705.328" type="line"/>
      <point x="579.594" y="714" type="line"/>
      <point x="567.791" y="707.817"/>
      <point x="513.843" y="701.098"/>
      <point x="473.627" y="701.098" type="curve" smooth="yes"/>
      <point x="194.578" y="701.098" type="line" smooth="yes"/>
      <point x="153.272" y="700.997"/>
      <point x="92.5763" y="711.494"/>
      <point x="74.3009" y="719.196" type="curve"/>
      <point x="74.3009" y="689.918" type="line"/>
      <point x="74.3479" y="673.565" type="line"/>
      <point x="74.3009" y="593.264" type="line"/>
      <point x="84.3659" y="593.414" type="line"/>
      <point x="84.3469" y="611.238" type="line"/>
      <point x="84.3469" y="643.797"/>
      <point x="110.423" y="670.218"/>
      <point x="142.822" y="670.856" type="curve" smooth="yes"/>
      <point x="480.247" y="670.856" type="line"/>
      <point x="60.184" y="9.32211" type="line"/>
      <point x="60" y="0" type="line"/>
      <point x="72.472" y="0" type="line"/>
      <point x="227.48" y="-10"/>
      <point x="752.184" y="-373"/>
      <point x="996.212" y="-89" type="curve"/>
    </contour>
    <contour>
      <point x="324" y="764" type="move" name="top"/>
    </contour>
  </outline>
</glyph>
<glyph name="b" format="1">
  <advance width="586"/>
  <unicode hex="0062"/>
  <outline>
    <contour>
      <point x="60.351" y="700.06" type="line"/>
      <point x="60.513" y="690.06" type="line"/>
      <point x="73" y="690" type="line" smooth="yes"/>
      <point x="107.895" y="690.079"/>
      <point x="136.125" y="662.458"/>
      <point x="137.197" y="627.995" type="curve" smooth="yes"/>
      <point x="137.197" y="72.2053" type="line" smooth="yes"/>
      <point x="136.199" y="37.6761"/>
      <point x="107.94" y="9.97901"/>
      <point x="73.16" y="9.97901" type="curve" smooth="yes"/>
      <point x="60.51" y="10" type="line"/>
      <point x="60.348" y="0" type="line"/>
      <point x="303.994" y="0" type="line" smooth="yes"/>
      <point x="453" y="0"/>
      <point x="537" y="75"/>
      <point x="536.907" y="187.941" type="curve"/>
      <point x="537" y="287"/>
      <point x="472" y="365"/>
      <point x="365.549" y="380.853" type="curve"/>
      <point x="422" y="397"/>
      <point x="476" y="448"/>
      <point x="476.384" y="532.796" type="curve"/>
      <point x="476" y="633"/>
      <point x="399" y="700"/>
      <point x="258.795" y="700" type="curve" smooth="yes"/>
    </contour>
    <contour>
      <point x="202.314" y="36.47" type="line"/>
      <point x="202.314" y="667.893" type="line"/>
      <point x="255.176" y="667.893" type="line" smooth="yes"/>
      <point x="350" y="668"/>
      <point x="401" y="616"/>
      <point x="401.384" y="525.604" type="curve" smooth="yes"/>
      <point x="401" y="397"/>
      <point x="297" y="379"/>
      <point x="236.016" y="379.222" type="curve"/>
      <point x="236.244" y="369.81" type="line"/>
      <point x="333" y="370"/>
      <point x="462" y="345"/>
      <point x="461.907" y="195.122" type="curve" smooth="yes"/>
      <point x="462" y="94"/>
      <point x="403" y="36"/>
      <point x="300.375" y="36.4701" type="curve" smooth="yes"/>
    </contour>
  </outline>
</glyph>
<glyph name="h" format="1">
  <advance width="813"/>
  <unicode hex="0068"/>
  <outline>
    <contour>
      <point x="752.922" y="10" type="line"/>
      <point x="740.272" y="9.979" type="line" smooth="yes"/>
      <point x="705.27" y="9.979"/>
      <point x="676.873" y="37.6466"/>
      <point x="676.218" y="72.4816" type="curve" smooth="yes"/>
      <point x="676.189" y="627.196" type="line"/>
      <point x="676.857" y="662.03"/>
      <point x="705.254" y="690.08"/>
      <point x="740.255" y="690.08" type="curve" smooth="yes"/>
      <point x="752.905" y="690.06" type="line"/>
      <point x="753.067" y="700.06" type="line"/>
      <point x="534.312" y="700.06" type="line"/>
      <point x="534.474" y="690.06" type="line"/>
      <point x="547.124" y="690.08" type="line" smooth="yes"/>
      <point x="581.702" y="690.08"/>
      <point x="609.835" y="662.704"/>
      <point x="611.142" y="628.456" type="curve"/>
      <point x="611.142" y="361.058" type="line"/>
      <point x="201.92" y="361.058" type="line"/>
      <point x="201.92" y="627.818" type="line" smooth="yes"/>
      <point x="202.9" y="662.363"/>
      <point x="231.167" y="690.08"/>
      <point x="265.959" y="690.08" type="curve" smooth="yes"/>
      <point x="278.609" y="690.06" type="line"/>
      <point x="278.771" y="700.06" type="line"/>
      <point x="60.0159" y="700.06" type="line"/>
      <point x="60.1779" y="690.06" type="line"/>
      <point x="72.8279" y="690.08" type="line" smooth="yes"/>
      <point x="107.692" y="690.08"/>
      <point x="136.003" y="662.25"/>
      <point x="136.873" y="627.606" type="curve" smooth="yes"/>
      <point x="136.873" y="72.4816" type="line" smooth="yes"/>
      <point x="136.21" y="37.6466"/>
      <point x="107.813" y="9.97904"/>
      <point x="72.8108" y="9.97904" type="curve" smooth="yes"/>
      <point x="60.1608" y="10" type="line"/>
      <point x="59.9998" y="0" type="line"/>
      <point x="278.787" y="0" type="line"/>
      <point x="278.626" y="10" type="line"/>
      <point x="265.976" y="9.97904" type="line" smooth="yes"/>
      <point x="230.974" y="9.97904"/>
      <point x="202.577" y="37.6466"/>
      <point x="201.922" y="72.4816" type="curve"/>
      <point x="201.922" y="331.058" type="line"/>
      <point x="611.142" y="331.058" type="line"/>
      <point x="611.142" y="72.4816" type="line" smooth="yes"/>
      <point x="610.089" y="38.0018"/>
      <point x="581.852" y="9.97903"/>
      <point x="547.107" y="9.97903" type="curve" smooth="yes"/>
      <point x="534.457" y="10" type="line"/>
      <point x="534.296" y="0" type="line"/>
      <point x="753.083" y="0" type="line"/>
    </contour>
    <contour>
      <point x="375.621" y="296.227" type="move" name="center"/>
    </contour>
    <contour>
      <point x="378.314" y="650.822" type="move" name="top"/>
    </contour>
  </outline>
</glyph>
<glyph name="l" format="1">
  <advance width="562"/>
  <unicode hex="006C"/>
  <outline>
    <contour>
      <point x="522.86" y="161.543" type="line"/>
      <point x="491.991" y="85.405"/>
      <point x="451.298" y="30.592"/>
      <point x="345.335" y="30.592" type="curve" smooth="yes"/>
      <point x="201.915" y="30.592" type="line"/>
      <point x="201.915" y="627.077" type="line" smooth="yes"/>
      <point x="202.571" y="661.911"/>
      <point x="230.968" y="689.961"/>
      <point x="265.969" y="689.961" type="curve" smooth="yes"/>
      <point x="278.619" y="689.941" type="line"/>
      <point x="278.781" y="699.941" type="line"/>
      <point x="60" y="699.941" type="line"/>
      <point x="60.162" y="689.941" type="line"/>
      <point x="72.812" y="689.961" type="line" smooth="yes"/>
      <point x="107.813" y="689.961"/>
      <point x="136.21" y="661.911"/>
      <point x="136.866" y="627.077" type="curve" smooth="yes"/>
      <point x="136.885" y="72.864" type="line" smooth="yes"/>
      <point x="136.225" y="38.029"/>
      <point x="107.828" y="9.97897"/>
      <point x="72.826" y="9.97897" type="curve" smooth="yes"/>
      <point x="60.176" y="9.99997" type="line"/>
      <point x="60.015" y="0" type="line"/>
      <point x="474.572" y="0" type="line"/>
      <point x="532.86" y="161.543" type="line"/>
    </contour>
    <contour>
      <point x="170.273" y="764" type="move" name="top"/>
    </contour>
    <contour>
      <point x="302.959" y="-64" type="move" name="bottom"/>
    </contour>
    <contour>
      <point x="396.213" y="500" type="move" name="topright"/>
    </contour>
  </outline>
</glyph>
<glyph name="q" format="1">
  <advance width="867"/>
  <unicode hex="0071"/>
  <outline>
    <contour>
      <point x="1323.93" y="-84" type="line"/>
      <point x="1200.51" y="-200"/>
      <point x="986.206" y="-196"/>
      <point x="836.029" y="-133" type="curve" smooth="yes"/>
      <point x="705.084" y="-77"/>
      <point x="592.158" y="-32"/>
      <point x="512.678" y="-8" type="curve"/>
      <point x="696.826" y="21.832"/>
      <point x="818.865" y="157.691"/>
      <point x="818.865" y="349.992" type="curve" smooth="yes"/>
      <point x="818.865" y="568.397"/>
      <point x="661.459" y="714"/>
      <point x="434.432" y="714" type="curve" smooth="yes"/>
      <point x="207.406" y="714"/>
      <point x="50" y="568.397"/>
      <point x="50" y="349.992" type="curve" smooth="yes"/>
      <point x="50" y="140.092"/>
      <point x="195.4" y="-3"/>
      <point x="408.262" y="-13" type="curve"/>
      <point x="542.506" y="-38"/>
      <point x="706.004" y="-141"/>
      <point x="828.204" y="-194" type="curve" smooth="yes"/>
      <point x="1113.89" y="-318"/>
      <point x="1304.35" y="-152"/>
      <point x="1327.75" y="-89" type="curve"/>
    </contour>
    <contour>
      <point x="127.403" y="550.442"/>
      <point x="250.408" y="684.075"/>
      <point x="434.432" y="684.075" type="curve" smooth="yes"/>
      <point x="618.457" y="684.075"/>
      <point x="741.462" y="550.442"/>
      <point x="741.462" y="349.992" type="curve" smooth="yes"/>
      <point x="741.462" y="149.552"/>
      <point x="618.457" y="15.925"/>
      <point x="434.432" y="15.925" type="curve" smooth="yes"/>
      <point x="250.408" y="15.925"/>
      <point x="127.403" y="149.552"/>
      <point x="127.403" y="349.992" type="curve" smooth="yes"/>
    </contour>
    <contour>
      <point x="435.432" y="764" type="move" name="top"/>
    </contour>
  </outline>
</glyph>
<glyph name="x" format="1">
  <advance width="662"/>
  <unicode hex="0078"/>
  <outline>
    <contour>
      <point x="658.949" y="10" type="line" smooth="yes"/>
      <point x="617.071" y="10"/>
      <point x="579.646" y="37.2977"/>
      <point x="558.337" y="68.062" type="curve"/>
      <point x="364.083" y="373.199" type="line"/>
      <point x="539.329" y="631.221" type="line" smooth="yes"/>
      <point x="560.607" y="662.093"/>
      <point x="598.127" y="689.993"/>
      <point x="640.124" y="689.993" type="curve" smooth="yes"/>
      <point x="654.124" y="689.993" type="line"/>
      <point x="654.124" y="700.017" type="line"/>
      <point x="428.642" y="700.017" type="line"/>
      <point x="428.642" y="689.993" type="line"/>
      <point x="441.242" y="689.993" type="line" smooth="yes"/>
      <point x="468.515" y="689.993"/>
      <point x="492.035" y="656.326"/>
      <point x="475.302" y="627.94" type="curve" smooth="yes"/>
      <point x="338.983" y="412.626" type="line"/>
      <point x="201.197" y="629.063" type="line"/>
      <point x="185.735" y="657.209"/>
      <point x="209.909" y="690.034"/>
      <point x="236.828" y="690.034" type="curve" smooth="yes"/>
      <point x="249.426" y="690.034" type="line"/>
      <point x="249.426" y="700" type="line"/>
      <point x="6.80789" y="700" type="line"/>
      <point x="6.80789" y="690.034" type="line"/>
      <point x="20.8079" y="690.034" type="line" smooth="yes"/>
      <point x="62.8049" y="690.034"/>
      <point x="100.325" y="662.076"/>
      <point x="121.602" y="631.204" type="curve"/>
      <point x="297.148" y="354.272" type="line"/>
      <point x="105.657" y="68.9435" type="line" smooth="yes"/>
      <point x="84.3709" y="38.071"/>
      <point x="45.8509" y="10"/>
      <point x="3.85389" y="10" type="curve" smooth="yes"/>
      <point x="-10" y="10" type="line"/>
      <point x="-10" y="0.145013" type="line"/>
      <point x="216.802" y="0.145013" type="line"/>
      <point x="216.802" y="10" type="line"/>
      <point x="204.202" y="10" type="line" smooth="yes"/>
      <point x="177.133" y="10"/>
      <point x="151.855" y="43.3309"/>
      <point x="168.812" y="71.5826" type="curve" smooth="yes"/>
      <point x="322.601" y="314.109" type="line"/>
      <point x="476.709" y="70.9401" type="line"/>
      <point x="492.706" y="42.6972"/>
      <point x="468.412" y="10"/>
      <point x="441.343" y="10" type="curve" smooth="yes"/>
      <point x="428.744" y="10" type="line"/>
      <point x="428.744" y="0" type="line"/>
      <point x="672.581" y="0" type="line"/>
      <point x="672.581" y="10" type="line"/>
    </contour>
  </outline>
</glyph>
<glyph name="z" format="1">
  <advance width="651"/>
  <unicode hex="007A"/>
  <outline>
    <contour>
      <point x="606.845" y="154.443" type="line"/>
      <point x="587.87" y="84.6838"/>
      <point x="544.789" y="29.906"/>
      <point x="470.401" y="29.734" type="curve" smooth="yes"/>
      <point x="152.386" y="29.734" type="line"/>
      <point x="579.594" y="705.328" type="line"/>
      <point x="579.594" y="714" type="line"/>
      <point x="567.791" y="707.817"/>
      <point x="513.843" y="701.098"/>
      <point x="473.627" y="701.098" type="curve" smooth="yes"/>
      <point x="194.578" y="701.098" type="line" smooth="yes"/>
      <point x="153.272" y="700.997"/>
      <point x="92.5763" y="711.494"/>
      <point x="74.301" y="719.196" type="curve"/>
      <point x="74.301" y="689.918" type="line"/>
      <point x="74.348" y="673.565" type="line"/>
      <point x="74.301" y="593.264" type="line"/>
      <point x="84.366" y="593.414" type="line"/>
      <point x="84.347" y="611.238" type="line"/>
      <point x="84.347" y="643.797"/>
      <point x="110.423" y="670.218"/>
      <point x="142.822" y="670.856" type="curve" smooth="yes"/>
      <point x="480.247" y="670.856" type="line"/>
      <point x="60.1841" y="9.32207" type="line"/>
      <point x="60" y="0" type="line"/>
      <point x="583.689" y="0" type="line"/>
      <point x="616.845" y="154.443" type="line"/>
    </contour>
    <contour>
      <point x="324" y="764" type="move" name="top"/>
    </contour>
  </outline>
</glyph>
<glyph name="threesuperior" format="1">
  <advance width="310"/>
  <unicode hex="00B3"/>
  <outline>
    <contour>
      <point x="51.292" y="612.611" type="line"/>
      <point x="57.959" y="612.611" type="line"/>
      <point x="56.023" y="668.79"/>
      <point x="84.226" y="688.276"/>
      <point x="134.791" y="688.276" type="curve" smooth="yes"/>
      <point x="176.283" y="688.276"/>
      <point x="204.711" y="662.976"/>
      <point x="205.573" y="623.019" type="curve" smooth="yes"/>
      <point x="206.847" y="563.91"/>
      <point x="153.367" y="529.344"/>
      <point x="90.188" y="529.344" type="curve"/>
      <point x="88.973" y="522.677" type="line"/>
      <point x="168.621" y="522.677"/>
      <point x="218.906" y="499.795"/>
      <point x="218.906" y="437.38" type="curve" smooth="yes"/>
      <point x="218.906" y="339.942"/>
      <point x="137.148" y="290.276"/>
      <point x="31.333" y="292.943" type="curve"/>
      <point x="30" y="286.276" type="line"/>
      <point x="164.749" y="259.609"/>
      <point x="271.573" y="320.609"/>
      <point x="271.573" y="439.38" type="curve" smooth="yes"/>
      <point x="271.573" y="490.05"/>
      <point x="221.978" y="525.495"/>
      <point x="171.783" y="532.268" type="curve"/>
      <point x="214.378" y="540.294"/>
      <point x="258.239" y="579.254"/>
      <point x="258.239" y="621.331" type="curve" smooth="yes"/>
      <point x="258.239" y="675.284"/>
      <point x="205.26" y="713.261"/>
      <point x="134.791" y="712.276" type="curve" smooth="yes"/>
      <point x="87.9651" y="711.621"/>
      <point x="57.8341" y="696.812"/>
      <point x="39.7261" y="674.744" type="curve"/>
    </contour>
  </outline>
</glyph>
<glyph name="threequarters" format="1">
  <advance width="713"/>
  <unicode hex="00BE"/>
  <outline>
    <contour>
      <point x="51.292" y="612.611" type="line"/>
      <point x="57.959" y="612.611" type="line"/>
      <point x="56.023" y="668.79"/>
      <point x="84.226" y="688.276"/>
      <point x="134.791" y="688.276" type="curve" smooth="yes"/>
      <point x="176.283" y="688.276"/>
      <point x="204.711" y="662.976"/>
      <point x="205.573" y="623.019" type="curve" smooth="yes"/>
      <point x="206.847" y="563.91"/>
      <point x="153.367" y="529.344"/>
      <point x="90.188" y="529.344" type="curve"/>
      <point x="88.973" y="522.677" type="line"/>
      <point x="168.621" y="522.677"/>
      <point x="218.906" y="499.795"/>
      <point x="218.906" y="437.38" type="curve" smooth="yes"/>
      <point x="218.906" y="339.942"/>
      <point x="137.148" y="290.276"/>
      <point x="31.333" y="292.943" type="curve"/>
      <point x="30" y="286.276" type="line"/>
      <point x="164.749" y="259.609"/>
      <point x="271.573" y="320.609"/>
      <point x="271.573" y="439.38" type="curve" smooth="yes"/>
      <point x="271.573" y="490.05"/>
      <point x="221.978" y="525.495"/>
      <point x="171.783" y="532.268" type="curve"/>
      <point x="214.378" y="540.294"/>
      <point x="258.239" y="579.254"/>
      <point x="258.239" y="621.331" type="curve" smooth="yes"/>
      <point x="258.239" y="675.284"/>
      <point x="205.26" y="713.261"/>
      <point x="134.791" y="712.276" type="curve" smooth="yes"/>
      <point x="87.9651" y="711.621"/>
      <point x="57.8341" y="696.812"/>
      <point x="39.7261" y="674.744" type="curve"/>
    </contour>
    <contour>
      <point x="680.164" y="129.842" type="line"/>
      <point x="694.164" y="176.842" type="line"/>
      <point x="687.497" y="176.842" type="line"/>
      <point x="679.497" y="167.578"/>
      <point x="675.628" y="163.509"/>
      <point x="651.069" y="163.509" type="curve" smooth="yes"/>
      <point x="622.063" y="163.509" type="line"/>
      <point x="622.063" y="405" type="line"/>
      <point x="615.82" y="405" type="line"/>
      <point x="395.633" y="136.509" type="line"/>
      <point x="395.633" y="129.842" type="line"/>
      <point x="577.73" y="129.842" type="line"/>
      <point x="577.73" y="40.2348" type="line"/>
      <point x="576.978" y="20.2956"/>
      <point x="560.575" y="5.66704"/>
      <point x="540.945" y="5.66704" type="curve" smooth="yes"/>
      <point x="533.675" y="5.66704" type="line"/>
      <point x="533.583" y="-1" type="line"/>
      <point x="666.224" y="-1" type="line"/>
      <point x="666.131" y="5.66704" type="line"/>
      <point x="658.861" y="5.66704" type="line" smooth="yes"/>
      <point x="639.012" y="5.66704"/>
      <point x="622.233" y="21.5054"/>
      <point x="622.063" y="41.3634" type="curve"/>
      <point x="622.063" y="129.842" type="line"/>
    </contour>
    <contour>
      <point x="449.595" y="163.509" type="line"/>
      <point x="577.73" y="323.105" type="line"/>
      <point x="577.73" y="163.509" type="line"/>
    </contour>
    <contour>
      <point x="621.349" y="714" type="line"/>
      <point x="645.492" y="697.154" type="line"/>
      <point x="167.508" y="-14" type="line"/>
      <point x="143" y="2.08358" type="line"/>
    </contour>
  </outline>
</glyph>
<glyph name="Ccedilla" format="1">
  <advance width="821"/>
  <unicode hex="00C7"/>
  <outline>
    <contour>
      <point x="786.167" y="374.85" type="line"/>
      <point x="786" y="149"/>
      <point x="646" y="16"/>
      <point x="448" y="16" type="curve" smooth="yes"/>
      <point x="251" y="16"/>
      <point x="120" y="164"/>
      <point x="120" y="353" type="curve" smooth="yes"/>
      <point x="120" y="542"/>
      <point x="252" y="684"/>
      <point x="430" y="684" type="curve" smooth="yes"/>
      <point x="547" y="684"/>
      <point x="666" y="622"/>
      <point x="696.378" y="505.264" type="curve"/>
      <point x="704.701" y="505.232" type="line"/>
      <point x="684.525" y="646.468" type="line"/>
      <point x="623" y="687"/>
      <point x="520" y="714"/>
      <point x="429" y="714" type="curve" smooth="yes"/>
      <point x="209" y="714"/>
      <point x="45" y="558"/>
      <point x="45" y="351" type="curve" smooth="yes"/>
      <point x="45" y="148.12"/>
      <point x="203.498" y="-8"/>
      <point x="429.17" y="-14" type="curve"/>
      <point x="385.212" y="-71" type="line"/>
      <point x="390.212" y="-81" type="line"/>
      <point x="425.842" y="-66"/>
      <point x="472.479" y="-72"/>
      <point x="473.978" y="-114" type="curve" smooth="yes"/>
      <point x="475.713" y="-162"/>
      <point x="424.959" y="-178"/>
      <point x="383.937" y="-178" type="curve"/>
      <point x="383.212" y="-188" type="line"/>
      <point x="450.236" y="-209"/>
      <point x="525.978" y="-178"/>
      <point x="523.978" y="-115" type="curve" smooth="yes"/>
      <point x="521.806" y="-46"/>
      <point x="454.12" y="-45"/>
      <point x="419.134" y="-57" type="curve"/>
      <point x="456.329" y="-14" type="line"/>
      <point x="668.715" y="-9"/>
      <point x="804.82" y="121.266"/>
      <point x="796.167" y="374.886" type="curve"/>
    </contour>
  </outline>
</glyph>
<glyph name="Edieresis" format="1">
  <advance width="607"/>
  <unicode hex="00CB"/>
  <outline>
    <contour>
      <point x="175.695" y="764.096"/>
      <point x="193.19" y="781.591"/>
      <point x="193.19" y="803.174" type="curve" smooth="yes"/>
      <point x="193.19" y="824.757"/>
      <point x="175.695" y="842.253"/>
      <point x="154.112" y="842.253" type="curve" smooth="yes"/>
      <point x="132.529" y="842.253"/>
      <point x="115.034" y="824.757"/>
      <point x="115.034" y="803.174" type="curve" smooth="yes"/>
      <point x="115.034" y="781.591"/>
      <point x="132.529" y="764.096"/>
      <point x="154.112" y="764.096" type="curve" smooth="yes"/>
    </contour>
    <contour>
      <point x="364.069" y="764.096"/>
      <point x="381.564" y="781.591"/>
      <point x="381.564" y="803.174" type="curve" smooth="yes"/>
      <point x="381.564" y="824.757"/>
      <point x="364.069" y="842.253"/>
      <point x="342.486" y="842.253" type="curve" smooth="yes"/>
      <point x="320.903" y="842.253"/>
      <point x="303.408" y="824.757"/>
      <point x="303.408" y="803.174" type="curve" smooth="yes"/>
      <point x="303.408" y="781.591"/>
      <point x="320.903" y="764.096"/>
      <point x="342.486" y="764.096" type="curve" smooth="yes"/>
    </contour>
    <contour>
      <point x="602.845" y="161.544" type="line"/>
      <point x="592.845" y="161.544" type="line"/>
      <point x="561.976" y="85.4061"/>
      <point x="521.283" y="30.5931"/>
      <point x="415.32" y="30.5931" type="curve" smooth="yes"/>
      <point x="201.901" y="30.5931" type="line"/>
      <point x="201.901" y="330.219" type="line"/>
      <point x="392.938" y="330.219" type="line"/>
      <point x="419.251" y="329.181"/>
      <point x="440.275" y="307.555"/>
      <point x="440.275" y="280.978" type="curve" smooth="yes"/>
      <point x="440.259" y="266.244" type="line"/>
      <point x="450.032" y="266.12" type="line"/>
      <point x="450.032" y="424.376" type="line"/>
      <point x="440.259" y="424.251" type="line"/>
      <point x="440.276" y="409.517" type="line" smooth="yes"/>
      <point x="440.276" y="382.594"/>
      <point x="418.698" y="360.754"/>
      <point x="391.904" y="360.249" type="curve" smooth="yes"/>
      <point x="201.901" y="360.249" type="line"/>
      <point x="201.901" y="669.41" type="line"/>
      <point x="315.771" y="669.41" type="line"/>
      <point x="347.01" y="667.512"/>
      <point x="371.765" y="641.616"/>
      <point x="371.765" y="609.892" type="curve" smooth="yes"/>
      <point x="371.746" y="592.068" type="line"/>
      <point x="381.846" y="591.918" type="line"/>
      <point x="381.846" y="672.219" type="line"/>
      <point x="381.797" y="688.911" type="line"/>
      <point x="381.797" y="718.188" type="line"/>
      <point x="363.253" y="710.367"/>
      <point x="305.681" y="700.408"/>
      <point x="262.582" y="700" type="curve" smooth="yes"/>
      <point x="60.3519" y="700" type="line"/>
      <point x="60.5139" y="690.061" type="line"/>
      <point x="73.1639" y="690.081" type="line" smooth="yes"/>
      <point x="106.268" y="690.081"/>
      <point x="136.87" y="664.99"/>
      <point x="136.87" y="632.799" type="curve" smooth="yes"/>
      <point x="136.87" y="72.8646" type="line" smooth="yes"/>
      <point x="136.211" y="38.0296"/>
      <point x="107.814" y="9.97956"/>
      <point x="72.8119" y="9.97956" type="curve" smooth="yes"/>
      <point x="60.1619" y="10" type="line"/>
      <point x="60" y="0" type="line"/>
      <point x="544.557" y="0" type="line"/>
    </contour>
  </outline>
</glyph>
<glyph name="Igrave" format="1">
  <advance width="393"/>
  <unicode hex="00CC"/>
  <outline>
    <contour>
      <point x="231.368" y="771" type="line"/>
      <point x="189.046" y="817.631"/>
      <point x="146.723" y="861.263"/>
      <point x="104.401" y="901.894" type="curve"/>
      <point x="88.7666" y="887.358"/>
      <point x="74.1322" y="869.821"/>
      <point x="63.4979" y="849.285" type="curve"/>
      <point x="117.121" y="817.857"/>
      <point x="170.745" y="789.428"/>
      <point x="224.368" y="764" type="curve"/>
    </contour>
    <contour>
      <point x="256.984" y="619.766" type="line"/>
      <point x="257.571" y="669.914"/>
      <point x="275.731" y="700.581"/>
      <point x="335.671" y="710.06" type="curve"/>
      <point x="333.833" y="720.06" type="line"/>
      <point x="239.062" y="702"/>
      <point x="136.041" y="702.193"/>
      <point x="79.0615" y="696" type="curve" smooth="yes"/>
      <point x="-13" y="686"/>
      <point x="-48" y="648"/>
      <point x="-50" y="601" type="curve" smooth="yes"/>
      <point x="-52" y="546.966"/>
      <point x="-5" y="505"/>
      <point x="56.6861" y="521.398" type="curve"/>
      <point x="56.6032" y="527.205" type="line"/>
      <point x="4.0615" y="529"/>
      <point x="-19" y="560.782"/>
      <point x="-16" y="601" type="curve" smooth="yes"/>
      <point x="-13" y="645"/>
      <point x="25.0615" y="663.325"/>
      <point x="84.9229" y="666.865" type="curve" smooth="yes"/>
      <point x="191.935" y="673.192" type="line"/>
      <point x="191.935" y="72.864" type="line" smooth="yes"/>
      <point x="191.272" y="38.029"/>
      <point x="162.875" y="9.97897"/>
      <point x="127.873" y="9.97897" type="curve" smooth="yes"/>
      <point x="115.223" y="9.99997" type="line"/>
      <point x="115.062" y="0" type="line"/>
      <point x="333.849" y="0" type="line"/>
      <point x="333.688" y="9.99997" type="line"/>
      <point x="321.038" y="9.97897" type="line" smooth="yes"/>
      <point x="286.036" y="9.97897"/>
      <point x="257.639" y="38.029"/>
      <point x="256.984" y="72.864" type="curve" smooth="yes"/>
    </contour>
  </outline>
</glyph>
<glyph name="Ograve" format="1">
  <advance width="929"/>
  <unicode hex="00D2"/>
  <outline>
    <contour>
      <point x="476" y="771" type="line"/>
      <point x="433.678" y="817.631"/>
      <point x="391.355" y="861.263"/>
      <point x="349.033" y="901.894" type="curve"/>
      <point x="333.399" y="887.358"/>
      <point x="318.764" y="869.821"/>
      <point x="308.13" y="849.285" type="curve"/>
      <point x="361.753" y="817.857"/>
      <point x="415.377" y="789.428"/>
      <point x="469" y="764" type="curve"/>
    </contour>
    <contour>
      <point x="286.834" y="469.041" type="line"/>
      <point x="272" y="560"/>
      <point x="349" y="684"/>
      <point x="515" y="684" type="curve" smooth="yes"/>
      <point x="700" y="684"/>
      <point x="792" y="531"/>
      <point x="792" y="363" type="curve" smooth="yes"/>
      <point x="792" y="154"/>
      <point x="656" y="16"/>
      <point x="464" y="16" type="curve" smooth="yes"/>
      <point x="280" y="16"/>
      <point x="137" y="143"/>
      <point x="137" y="375" type="curve" smooth="yes"/>
      <point x="137" y="479"/>
      <point x="165" y="609"/>
      <point x="258.903" y="670.769" type="curve"/>
      <point x="252.903" y="679.769" type="line"/>
      <point x="129" y="617"/>
      <point x="60" y="502"/>
      <point x="60" y="360" type="curve" smooth="yes"/>
      <point x="60" y="136"/>
      <point x="236" y="-14"/>
      <point x="466" y="-14" type="curve" smooth="yes"/>
      <point x="698" y="-14"/>
      <point x="869" y="138"/>
      <point x="869" y="361" type="curve" smooth="yes"/>
      <point x="869" y="558"/>
      <point x="731" y="714"/>
      <point x="523" y="714" type="curve" smooth="yes"/>
      <point x="314" y="714"/>
      <point x="259" y="558"/>
      <point x="276.834" y="467.041" type="curve"/>
    </contour>
  </outline>
</glyph>
<glyph name="Odieresis" format="1">
  <advance width="929"/>
  <unicode hex="00D6"/>
  <outline>
    <contour>
      <point x="396.381" y="764.096"/>
      <point x="413.876" y="781.591"/>
      <point x="413.876" y="803.174" type="curve" smooth="yes"/>
      <point x="413.876" y="824.757"/>
      <point x="396.381" y="842.253"/>
      <point x="374.798" y="842.253" type="curve" smooth="yes"/>
      <point x="353.215" y="842.253"/>
      <point x="335.72" y="824.757"/>
      <point x="335.72" y="803.174" type="curve" smooth="yes"/>
      <point x="335.72" y="781.591"/>
      <point x="353.215" y="764.096"/>
      <point x="374.798" y="764.096" type="curve" smooth="yes"/>
    </contour>
    <contour>
      <point x="584.755" y="764.096"/>
      <point x="602.25" y="781.591"/>
      <point x="602.25" y="803.174" type="curve" smooth="yes"/>
      <point x="602.25" y="824.757"/>
      <point x="584.755" y="842.253"/>
      <point x="563.172" y="842.253" type="curve" smooth="yes"/>
      <point x="541.589" y="842.253"/>
      <point x="524.094" y="824.757"/>
      <point x="524.094" y="803.174" type="curve" smooth="yes"/>
      <point x="524.094" y="781.591"/>
      <point x="541.589" y="764.096"/>
      <point x="563.172" y="764.096" type="curve" smooth="yes"/>
    </contour>
    <contour>
      <point x="286.834" y="469.041" type="line"/>
      <point x="272" y="560"/>
      <point x="349" y="684"/>
      <point x="515" y="684" type="curve" smooth="yes"/>
      <point x="700" y="684"/>
      <point x="792" y="531"/>
      <point x="792" y="363" type="curve" smooth="yes"/>
      <point x="792" y="154"/>
      <point x="656" y="16"/>
      <point x="464" y="16" type="curve" smooth="yes"/>
      <point x="280" y="16"/>
      <point x="137" y="143"/>
      <point x="137" y="375" type="curve" smooth="yes"/>
      <point x="137" y="479"/>
      <point x="165" y="609"/>
      <point x="258.903" y="670.769" type="curve"/>
      <point x="252.903" y="679.769" type="line"/>
      <point x="129" y="617"/>
      <point x="60" y="502"/>
      <point x="60" y="360" type="curve" smooth="yes"/>
      <point x="60" y="136"/>
      <point x="236" y="-14"/>
      <point x="466" y="-14" type="curve" smooth="yes"/>
      <point x="698" y="-14"/>
      <point x="869" y="138"/>
      <point x="869" y="361" type="curve" smooth="yes"/>
      <point x="869" y="558"/>
      <point x="731" y="714"/>
      <point x="523" y="714" type="curve" smooth="yes"/>
      <point x="314" y="714"/>
      <point x="259" y="558"/>
      <point x="276.834" y="467.041" type="curve"/>
    </contour>
  </outline>
</glyph>
<glyph name="Oslash" format="1">
  <advance width="929"/>
  <unicode hex="00D8"/>
  <outline>
    <contour>
      <point x="784.701" y="699.577" type="line"/>
      <point x="759.389" y="722.336" type="line"/>
      <point x="710.206" y="663.195" type="line"/>
      <point x="657.957" y="695.499"/>
      <point x="594.629" y="714"/>
      <point x="523" y="714" type="curve" smooth="yes"/>
      <point x="314" y="714"/>
      <point x="259" y="558"/>
      <point x="276.834" y="467.041" type="curve"/>
      <point x="286.834" y="469.041" type="line"/>
      <point x="272" y="560"/>
      <point x="349" y="684"/>
      <point x="515" y="684" type="curve" smooth="yes"/>
      <point x="583.089" y="684"/>
      <point x="638.579" y="663.275"/>
      <point x="681.522" y="628.704" type="curve"/>
      <point x="239.863" y="97.6253" type="line"/>
      <point x="175.873" y="158.314"/>
      <point x="137" y="251.869"/>
      <point x="137" y="375" type="curve" smooth="yes"/>
      <point x="137" y="479"/>
      <point x="165" y="609"/>
      <point x="258.903" y="670.769" type="curve"/>
      <point x="252.903" y="679.769" type="line"/>
      <point x="129" y="617"/>
      <point x="60" y="502"/>
      <point x="60" y="360" type="curve" smooth="yes"/>
      <point x="60" y="230.772"/>
      <point x="116.914" y="126.173"/>
      <point x="209.235" y="60.7962" type="curve"/>
      <point x="157.844" y="-1" type="line"/>
      <point x="182.854" y="-23" type="line"/>
      <point x="237.523" y="42.6351" type="line"/>
      <point x="300.431" y="6.12343"/>
      <point x="376.758" y="-14"/>
      <point x="461" y="-14" type="curve" smooth="yes"/>
      <point x="693" y="-14"/>
      <point x="869" y="138"/>
      <point x="869" y="361" type="curve" smooth="yes"/>
      <point x="869" y="477.534"/>
      <point x="820.711" y="579.721"/>
      <point x="738.207" y="643.757" type="curve"/>
    </contour>
    <contour>
      <point x="706.461" y="605.642" type="line"/>
      <point x="763.544" y="545.226"/>
      <point x="792" y="456.433"/>
      <point x="792" y="363" type="curve" smooth="yes"/>
      <point x="792" y="154"/>
      <point x="651" y="16"/>
      <point x="459" y="16" type="curve" smooth="yes"/>
      <point x="385.048" y="16"/>
      <point x="318.527" y="36.515"/>
      <point x="265.409" y="76.116" type="curve"/>
    </contour>
    <contour>
      <point x="469" y="764" type="move" name="top"/>
    </contour>
  </outline>
</glyph>
<glyph name="Ugrave" format="1">
  <advance width="783"/>
  <unicode hex="00D9"/>
  <outline>
    <contour>
      <point x="428.641" y="771" type="line"/>
      <point x="386.319" y="817.631"/>
      <point x="343.996" y="861.263"/>
      <point x="301.674" y="901.894" type="curve"/>
      <point x="286.04" y="887.358"/>
      <point x="271.405" y="869.821"/>
      <point x="260.771" y="849.285" type="curve"/>
      <point x="314.394" y="817.857"/>
      <point x="368.018" y="789.428"/>
      <point x="421.641" y="764" type="curve"/>
    </contour>
    <contour>
      <point x="619.31" y="247.399" type="line" smooth="yes"/>
      <point x="619.152" y="109.457"/>
      <point x="530.011" y="17.4954"/>
      <point x="396.423" y="17.4954" type="curve" smooth="yes"/>
      <point x="269.022" y="17.4954"/>
      <point x="184.088" y="114.614"/>
      <point x="184.088" y="260.292" type="curve" smooth="yes"/>
      <point x="184.088" y="642" type="line"/>
      <point x="185.312" y="669.975"/>
      <point x="208.433" y="690.017"/>
      <point x="236.814" y="690.017" type="curve" smooth="yes"/>
      <point x="253.11" y="690" type="line"/>
      <point x="253.11" y="700" type="line"/>
      <point x="50" y="700" type="line"/>
      <point x="50" y="690" type="line"/>
      <point x="66.2945" y="690.017" type="line" smooth="yes"/>
      <point x="95.1832" y="690.017"/>
      <point x="118.619" y="669.255"/>
      <point x="119.161" y="640.499" type="curve" smooth="yes"/>
      <point x="119.161" y="245.596" type="line" smooth="yes"/>
      <point x="119.097" y="89.8385"/>
      <point x="230.028" y="-14"/>
      <point x="396.423" y="-14" type="curve" smooth="yes"/>
      <point x="558.153" y="-14"/>
      <point x="665.959" y="90.5365"/>
      <point x="665.973" y="247.34" type="curve" smooth="yes"/>
      <point x="665.973" y="580.014" type="line" smooth="yes"/>
      <point x="666.018" y="766.989"/>
      <point x="761.205" y="861.64"/>
      <point x="903.969" y="861.64" type="curve"/>
      <point x="903.969" y="871.64" type="line"/>
      <point x="733.243" y="878.614"/>
      <point x="619.377" y="779.438"/>
      <point x="619.31" y="578.702" type="curve" smooth="yes"/>
    </contour>
  </outline>
</glyph>
<glyph name="Ucircumflex" format="1">
  <advance width="783"/>
  <unicode hex="00DB"/>
  <outline>
    <contour>
      <point x="416.434" y="889.737" type="line"/>
      <point x="426.434" y="889.737" type="line"/>
      <point x="540.609" y="770.885" type="line"/>
      <point x="534.609" y="762.885" type="line"/>
      <point x="420.964" y="828.981" type="line"/>
      <point x="316.304" y="762.981" type="line"/>
      <point x="310.304" y="770.981" type="line"/>
    </contour>
    <contour>
      <point x="619.31" y="247.399" type="line" smooth="yes"/>
      <point x="619.152" y="109.457"/>
      <point x="530.011" y="17.4954"/>
      <point x="396.423" y="17.4954" type="curve" smooth="yes"/>
      <point x="269.022" y="17.4954"/>
      <point x="184.088" y="114.614"/>
      <point x="184.088" y="260.292" type="curve" smooth="yes"/>
      <point x="184.088" y="642" type="line"/>
      <point x="185.312" y="669.975"/>
      <point x="208.433" y="690.018"/>
      <point x="236.814" y="690.018" type="curve" smooth="yes"/>
      <point x="253.11" y="690" type="line"/>
      <point x="253.11" y="700" type="line"/>
      <point x="50" y="700" type="line"/>
      <point x="50" y="690" type="line"/>
      <point x="66.2945" y="690.018" type="line" smooth="yes"/>
      <point x="95.1832" y="690.018"/>
      <point x="118.619" y="669.256"/>
      <point x="119.161" y="640.5" type="curve" smooth="yes"/>
      <point x="119.161" y="245.597" type="line" smooth="yes"/>
      <point x="119.097" y="89.8385"/>
      <point x="230.028" y="-14"/>
      <point x="396.423" y="-14" type="curve" smooth="yes"/>
      <point x="558.153" y="-14"/>
      <point x="665.959" y="90.5365"/>
      <point x="665.973" y="247.341" type="curve" smooth="yes"/>
      <point x="665.973" y="580.015" type="line" smooth="yes"/>
      <point x="666.018" y="766.99"/>
      <point x="761.205" y="861.64"/>
      <point x="903.969" y="861.64" type="curve"/>
      <point x="903.969" y="871.64" type="line"/>
      <point x="733.243" y="878.614"/>
      <point x="619.377" y="779.439"/>
      <point x="619.31" y="578.702" type="curve" smooth="yes"/>
    </contour>
  </outline>
</glyph>
<glyph name="Udieresis" format="1">
  <advance width="783"/>
  <unicode hex="00DC"/>
  <outline>
    <contour>
      <point x="619.31" y="247.399" type="line" smooth="yes"/>
      <point x="619.152" y="109.457"/>
      <point x="530.011" y="17.4954"/>
      <point x="396.423" y="17.4954" type="curve" smooth="yes"/>
      <point x="269.022" y="17.4954"/>
      <point x="184.088" y="114.614"/>
      <point x="184.088" y="260.292" type="curve" smooth="yes"/>
      <point x="184.088" y="642" type="line"/>
      <point x="185.312" y="669.975"/>
      <point x="208.433" y="690.017"/>
      <point x="236.814" y="690.017" type="curve" smooth="yes"/>
      <point x="253.11" y="690" type="line"/>
      <point x="253.11" y="700" type="line"/>
      <point x="50" y="700" type="line"/>
      <point x="50" y="690" type="line"/>
      <point x="66.2945" y="690.017" type="line" smooth="yes"/>
      <point x="95.1832" y="690.017"/>
      <point x="118.619" y="669.256"/>
      <point x="119.161" y="640.5" type="curve" smooth="yes"/>
      <point x="119.161" y="245.596" type="line" smooth="yes"/>
      <point x="119.097" y="89.8385"/>
      <point x="230.028" y="-14"/>
      <point x="396.423" y="-14" type="curve" smooth="yes"/>
      <point x="558.153" y="-14"/>
      <point x="665.959" y="90.5365"/>
      <point x="665.973" y="247.34" type="curve" smooth="yes"/>
      <point x="665.973" y="580.015" type="line" smooth="yes"/>
      <point x="666.018" y="766.99"/>
      <point x="761.205" y="861.64"/>
      <point x="903.969" y="861.64" type="curve"/>
      <point x="903.969" y="871.64" type="line"/>
      <point x="733.243" y="878.614"/>
      <point x="619.377" y="779.439"/>
      <point x="619.31" y="578.702" type="curve" smooth="yes"/>
    </contour>
    <contour>
      <point x="349.022" y="764.097"/>
      <point x="366.517" y="781.592"/>
      <point x="366.517" y="803.175" type="curve" smooth="yes"/>
      <point x="366.517" y="824.758"/>
      <point x="349.022" y="842.254"/>
      <point x="327.439" y="842.254" type="curve" smooth="yes"/>
      <point x="305.856" y="842.254"/>
      <point x="288.361" y="824.758"/>
      <point x="288.361" y="803.175" type="curve" smooth="yes"/>
      <point x="288.361" y="781.592"/>
      <point x="305.856" y="764.097"/>
      <point x="327.439" y="764.097" type="curve" smooth="yes"/>
    </contour>
    <contour>
      <point x="537.396" y="764.097"/>
      <point x="554.891" y="781.592"/>
      <point x="554.891" y="803.175" type="curve" smooth="yes"/>
      <point x="554.891" y="824.758"/>
      <point x="537.396" y="842.254"/>
      <point x="515.813" y="842.254" type="curve" smooth="yes"/>
      <point x="494.23" y="842.254"/>
      <point x="476.735" y="824.758"/>
      <point x="476.735" y="803.175" type="curve" smooth="yes"/>
      <point x="476.735" y="781.592"/>
      <point x="494.23" y="764.097"/>
      <point x="515.813" y="764.097" type="curve" smooth="yes"/>
    </contour>
  </outline>
</glyph>
<glyph name="Yacute" format="1">
  <advance width="618"/>
  <unicode hex="00DD"/>
  <outline>
    <contour>
      <point x="331.044" y="763.971" type="line"/>
      <point x="384.667" y="790.399"/>
      <point x="438.291" y="817.828"/>
      <point x="491.914" y="849.256" type="curve"/>
      <point x="481.28" y="868.792"/>
      <point x="466.645" y="886.329"/>
      <point x="451.011" y="901.865" type="curve"/>
      <point x="408.689" y="861.234"/>
      <point x="366.366" y="816.602"/>
      <point x="324.044" y="770.971" type="curve"/>
    </contour>
    <contour>
      <point x="-40" y="747.139" type="line"/>
      <point x="125.856" y="747.139"/>
      <point x="284.572" y="397.808"/>
      <point x="284.572" y="221.296" type="curve" smooth="yes"/>
      <point x="284.572" y="72.234" type="line" smooth="yes"/>
      <point x="283.65" y="37.6632"/>
      <point x="254.795" y="9.99972"/>
      <point x="221" y="9.99972" type="curve" smooth="yes"/>
      <point x="207.882" y="9.99972" type="line"/>
      <point x="207.721" y="0" type="line"/>
      <point x="426.468" y="0" type="line"/>
      <point x="426.307" y="9.99972" type="line"/>
      <point x="414" y="9.99972" type="line" smooth="yes"/>
      <point x="377" y="9.99972"/>
      <point x="350" y="39.9997"/>
      <point x="349.603" y="72.8637" type="curve"/>
      <point x="349.603" y="220.367" type="line"/>
      <point x="349.59" y="385.23"/>
      <point x="500.423" y="747.139"/>
      <point x="658.831" y="747.139" type="curve"/>
      <point x="658.831" y="757.139" type="line"/>
      <point x="461.831" y="757.139"/>
      <point x="387.058" y="532.384"/>
      <point x="328.037" y="375.779" type="curve"/>
      <point x="278.265" y="511.504"/>
      <point x="204.888" y="767.139"/>
      <point x="-40" y="757.139" type="curve"/>
    </contour>
  </outline>
</glyph>
<glyph name="Thorn" format="1">
  <advance width="554"/>
  <unicode hex="00DE"/>
  <outline>
    <contour>
      <point x="184.614" y="547.899" type="line"/>
      <point x="184.614" y="627.818" type="line" smooth="yes"/>
      <point x="185.594" y="662.363"/>
      <point x="213.861" y="690.08"/>
      <point x="248.653" y="690.08" type="curve" smooth="yes"/>
      <point x="261.303" y="690.06" type="line"/>
      <point x="261.465" y="700.06" type="line"/>
      <point x="42.71" y="700.06" type="line"/>
      <point x="42.872" y="690.06" type="line"/>
      <point x="55.522" y="690.08" type="line" smooth="yes"/>
      <point x="90.3857" y="690.08"/>
      <point x="118.697" y="662.25"/>
      <point x="119.567" y="627.606" type="curve" smooth="yes"/>
      <point x="119.567" y="72.8641" type="line" smooth="yes"/>
      <point x="118.904" y="38.0291"/>
      <point x="90.5069" y="9.97907"/>
      <point x="55.5049" y="9.97907" type="curve" smooth="yes"/>
      <point x="42.8549" y="10" type="line"/>
      <point x="42.6939" y="0" type="line"/>
      <point x="261.481" y="0" type="line"/>
      <point x="261.32" y="10" type="line"/>
      <point x="248.67" y="9.97907" type="line" smooth="yes"/>
      <point x="213.668" y="9.97907"/>
      <point x="185.271" y="38.0291"/>
      <point x="184.616" y="72.8641" type="curve"/>
      <point x="184.616" y="517.899" type="line"/>
      <point x="300.044" y="517.899" type="line" smooth="yes"/>
      <point x="385.104" y="517.899"/>
      <point x="432.366" y="456.668"/>
      <point x="434.867" y="364.822" type="curve" smooth="yes"/>
      <point x="435.469" y="342.712"/>
      <point x="432.913" y="318.585"/>
      <point x="428.476" y="304.504" type="curve" smooth="yes"/>
      <point x="383.349" y="161.278"/>
      <point x="218.836" y="196.765"/>
      <point x="218.836" y="196.765" type="curve"/>
      <point x="218.956" y="187.315" type="line"/>
      <point x="344.424" y="121.182"/>
      <point x="504.867" y="202.346"/>
      <point x="504.867" y="354.767" type="curve" smooth="yes"/>
      <point x="504.867" y="473.046"/>
      <point x="435.586" y="547.899"/>
      <point x="303.666" y="547.899" type="curve" smooth="yes"/>
    </contour>
  </outline>
</glyph>
<glyph name="germandbls" format="1">
  <advance width="952"/>
  <unicode hex="00DF"/>
  <outline>
    <contour>
      <point x="171.266" y="476.809" type="line" smooth="yes"/>
      <point x="139.752" y="506"/>
      <point x="131" y="542.935"/>
      <point x="131" y="569" type="curve" smooth="yes"/>
      <point x="131" y="629.935"/>
      <point x="180.315" y="684"/>
      <point x="254" y="684" type="curve" smooth="yes"/>
      <point x="316.315" y="684"/>
      <point x="366.752" y="645"/>
      <point x="366.512" y="581.034" type="curve"/>
      <point x="376.141" y="581.034" type="line"/>
      <point x="376.141" y="703.741" type="line"/>
      <point x="336.511" y="703.741" type="line"/>
      <point x="309.953" y="709.529"/>
      <point x="276.999" y="714"/>
      <point x="250.752" y="714" type="curve" smooth="yes"/>
      <point x="136.752" y="714"/>
      <point x="75" y="629.288"/>
      <point x="75" y="545" type="curve" smooth="yes"/>
      <point x="75" y="506.288"/>
      <point x="88.7521" y="458"/>
      <point x="129.205" y="421.085" type="curve" smooth="yes"/>
      <point x="320.759" y="243.189" type="line" smooth="yes"/>
      <point x="345.752" y="220"/>
      <point x="360" y="189.083"/>
      <point x="360" y="150" type="curve" smooth="yes"/>
      <point x="360" y="70.083"/>
      <point x="298.997" y="20.055"/>
      <point x="226" y="16" type="curve" smooth="yes"/>
      <point x="136.997" y="11.055"/>
      <point x="71.7521" y="77"/>
      <point x="81.8051" y="180.047" type="curve"/>
      <point x="73.0131" y="180.047" type="line"/>
      <point x="57.7801" y="135.21"/>
      <point x="54" y="71.51"/>
      <point x="61.4531" y="40.639" type="curve"/>
      <point x="100.752" y="0"/>
      <point x="181.752" y="-14"/>
      <point x="230.752" y="-14" type="curve" smooth="yes"/>
      <point x="345.752" y="-14"/>
      <point x="418" y="62.393"/>
      <point x="418" y="173" type="curve" smooth="yes"/>
      <point x="418" y="213.393"/>
      <point x="407.752" y="258"/>
      <point x="367.773" y="294.906" type="curve" smooth="yes"/>
    </contour>
    <contour>
      <point x="647.266" y="476.809" type="line" smooth="yes"/>
      <point x="615.752" y="506"/>
      <point x="607" y="542.935"/>
      <point x="607" y="569" type="curve" smooth="yes"/>
      <point x="607" y="629.935"/>
      <point x="656.315" y="684"/>
      <point x="730" y="684" type="curve" smooth="yes"/>
      <point x="792.315" y="684"/>
      <point x="842.752" y="645"/>
      <point x="842.512" y="581.034" type="curve"/>
      <point x="852.141" y="581.034" type="line"/>
      <point x="852.141" y="703.741" type="line"/>
      <point x="812.511" y="703.741" type="line"/>
      <point x="785.953" y="709.529"/>
      <point x="752.999" y="714"/>
      <point x="726.752" y="714" type="curve" smooth="yes"/>
      <point x="612.752" y="714"/>
      <point x="551" y="629.288"/>
      <point x="551" y="545" type="curve" smooth="yes"/>
      <point x="551" y="506.288"/>
      <point x="564.752" y="458"/>
      <point x="605.205" y="421.085" type="curve" smooth="yes"/>
      <point x="796.759" y="243.189" type="line" smooth="yes"/>
      <point x="821.752" y="220"/>
      <point x="836" y="189.083"/>
      <point x="836" y="150" type="curve" smooth="yes"/>
      <point x="836" y="70.083"/>
      <point x="774.997" y="20.055"/>
      <point x="702" y="16" type="curve" smooth="yes"/>
      <point x="612.997" y="11.055"/>
      <point x="547.752" y="77"/>
      <point x="557.805" y="180.047" type="curve"/>
      <point x="549.013" y="180.047" type="line"/>
      <point x="533.78" y="135.21"/>
      <point x="530" y="71.51"/>
      <point x="537.453" y="40.639" type="curve"/>
      <point x="576.752" y="0"/>
      <point x="657.752" y="-14"/>
      <point x="706.752" y="-14" type="curve" smooth="yes"/>
      <point x="821.752" y="-14"/>
      <point x="894" y="62.393"/>
      <point x="894" y="173" type="curve" smooth="yes"/>
      <point x="894" y="213.393"/>
      <point x="883.752" y="258"/>
      <point x="843.773" y="294.906" type="curve" smooth="yes"/>
    </contour>
  </outline>
</glyph>
<glyph name="agrave" format="1">
  <advance width="712"/>
  <unicode hex="00E0"/>
  <outline>
    <contour>
      <point x="362.899" y="770.999" type="line"/>
      <point x="320.577" y="817.63"/>
      <point x="278.254" y="861.262"/>
      <point x="235.932" y="901.893" type="curve"/>
      <point x="220.297" y="887.357"/>
      <point x="205.663" y="869.82"/>
      <point x="195.029" y="849.284" type="curve"/>
      <point x="248.652" y="817.856"/>
      <point x="302.276" y="789.427"/>
      <point x="355.899" y="763.999" type="curve"/>
    </contour>
    <contour>
      <point x="359.414" y="714" type="line"/>
      <point x="350.408" y="714" type="line"/>
      <point x="350.408" y="692.013"/>
      <point x="313.382" y="611"/>
      <point x="313.382" y="611" type="curve"/>
      <point x="86.605" y="72.8926" type="line" smooth="yes"/>
      <point x="66.381" y="28.4303"/>
      <point x="29.4102" y="9.9992"/>
      <point x="-1" y="9.9992" type="curve" smooth="yes"/>
      <point x="-10" y="9.9992" type="line"/>
      <point x="-10" y="0" type="line"/>
      <point x="191.278" y="0" type="line"/>
      <point x="191.278" y="9.9072" type="line"/>
      <point x="182.486" y="9.9072" type="line" smooth="yes"/>
      <point x="156.8" y="9.9072"/>
      <point x="130.156" y="32.4324"/>
      <point x="144.266" y="72.071" type="curve" smooth="yes"/>
      <point x="211.257" y="242.999" type="line"/>
      <point x="480.604" y="242.999" type="line"/>
      <point x="544.567" y="72.68" type="line" smooth="yes"/>
      <point x="559.169" y="32.663"/>
      <point x="532.384" y="9.91"/>
      <point x="506.568" y="9.91" type="curve" smooth="yes"/>
      <point x="497.776" y="9.91" type="line"/>
      <point x="497.776" y="0" type="line"/>
      <point x="722.956" y="0" type="line"/>
      <point x="722.956" y="9.999" type="line"/>
      <point x="714.593" y="9.999" type="line" smooth="yes"/>
      <point x="683.958" y="9.999"/>
      <point x="646.965" y="28.4486"/>
      <point x="626.748" y="72.9606" type="curve" smooth="yes"/>
    </contour>
    <contour>
      <point x="223.015" y="272.999" type="line"/>
      <point x="348.805" y="593.953" type="line"/>
      <point x="469.338" y="272.999" type="line"/>
    </contour>
  </outline>
</glyph>
<glyph name="acircumflex" format="1">
  <advance width="712"/>
  <unicode hex="00E2"/>
  <outline>
    <contour>
      <point x="350.692" y="889.735" type="line"/>
      <point x="360.692" y="889.735" type="line"/>
      <point x="474.867" y="770.883" type="line"/>
      <point x="468.867" y="762.883" type="line"/>
      <point x="355.222" y="828.979" type="line"/>
      <point x="250.562" y="762.979" type="line"/>
      <point x="244.562" y="770.979" type="line"/>
    </contour>
    <contour>
      <point x="359.414" y="714" type="line"/>
      <point x="350.408" y="714" type="line"/>
      <point x="350.408" y="692.013"/>
      <point x="313.382" y="611"/>
      <point x="313.382" y="611" type="curve"/>
      <point x="86.605" y="72.8925" type="line" smooth="yes"/>
      <point x="66.381" y="28.4302"/>
      <point x="29.4102" y="9.99913"/>
      <point x="-1" y="9.99913" type="curve" smooth="yes"/>
      <point x="-10" y="9.99913" type="line"/>
      <point x="-10" y="0" type="line"/>
      <point x="191.278" y="0" type="line"/>
      <point x="191.278" y="9.90713" type="line"/>
      <point x="182.486" y="9.90713" type="line" smooth="yes"/>
      <point x="156.8" y="9.90713"/>
      <point x="130.156" y="32.4323"/>
      <point x="144.266" y="72.0709" type="curve" smooth="yes"/>
      <point x="211.257" y="242.999" type="line"/>
      <point x="480.604" y="242.999" type="line"/>
      <point x="544.567" y="72.6799" type="line" smooth="yes"/>
      <point x="559.169" y="32.6629"/>
      <point x="532.384" y="9.90992"/>
      <point x="506.568" y="9.90992" type="curve" smooth="yes"/>
      <point x="497.776" y="9.90992" type="line"/>
      <point x="497.776" y="0" type="line"/>
      <point x="722.956" y="0" type="line"/>
      <point x="722.956" y="9.99892" type="line"/>
      <point x="714.593" y="9.99892" type="line" smooth="yes"/>
      <point x="683.958" y="9.99892"/>
      <point x="646.965" y="28.4485"/>
      <point x="626.748" y="72.9605" type="curve" smooth="yes"/>
    </contour>
    <contour>
      <point x="223.015" y="272.999" type="line"/>
      <point x="348.805" y="593.953" type="line"/>
      <point x="469.338" y="272.999" type="line"/>
    </contour>
  </outline>
</glyph>
<glyph name="atilde" format="1">
  <advance width="712"/>
  <unicode hex="00E3"/>
  <outline>
    <contour>
      <point x="491.537" y="842.515" type="line"/>
      <point x="485.857" y="793.791"/>
      <point x="461.005" y="763.928"/>
      <point x="426.136" y="763.928" type="curve" smooth="yes"/>
      <point x="383.138" y="763.928"/>
      <point x="337.952" y="807.728"/>
      <point x="305.698" y="807.728" type="curve" smooth="yes"/>
      <point x="279.982" y="807.728"/>
      <point x="262.639" y="794.695"/>
      <point x="251.5" y="766.999" type="curve"/>
      <point x="241.5" y="766.999" type="line"/>
      <point x="248.94" y="819.531"/>
      <point x="273.335" y="851.728"/>
      <point x="305.698" y="851.728" type="curve" smooth="yes"/>
      <point x="350.945" y="851.728"/>
      <point x="391.826" y="808.928"/>
      <point x="426.136" y="808.928" type="curve" smooth="yes"/>
      <point x="454.377" y="808.928"/>
      <point x="472.106" y="819.676"/>
      <point x="481.537" y="842.515" type="curve"/>
    </contour>
    <contour>
      <point x="359.414" y="714" type="line"/>
      <point x="350.408" y="714" type="line"/>
      <point x="350.408" y="692.013"/>
      <point x="313.382" y="611"/>
      <point x="313.382" y="611" type="curve"/>
      <point x="86.605" y="72.8926" type="line" smooth="yes"/>
      <point x="66.381" y="28.4303"/>
      <point x="29.4102" y="9.9992"/>
      <point x="-1" y="9.9992" type="curve" smooth="yes"/>
      <point x="-10" y="9.9992" type="line"/>
      <point x="-10" y="0" type="line"/>
      <point x="191.278" y="0" type="line"/>
      <point x="191.278" y="9.9072" type="line"/>
      <point x="182.486" y="9.9072" type="line" smooth="yes"/>
      <point x="156.8" y="9.9072"/>
      <point x="130.156" y="32.4324"/>
      <point x="144.266" y="72.071" type="curve" smooth="yes"/>
      <point x="211.257" y="242.999" type="line"/>
      <point x="480.604" y="242.999" type="line"/>
      <point x="544.567" y="72.68" type="line" smooth="yes"/>
      <point x="559.169" y="32.663"/>
      <point x="532.384" y="9.90999"/>
      <point x="506.568" y="9.90999" type="curve" smooth="yes"/>
      <point x="497.776" y="9.90999" type="line"/>
      <point x="497.776" y="0" type="line"/>
      <point x="722.956" y="0" type="line"/>
      <point x="722.956" y="9.99899" type="line"/>
      <point x="714.593" y="9.99899" type="line" smooth="yes"/>
      <point x="683.958" y="9.99899"/>
      <point x="646.965" y="28.4486"/>
      <point x="626.748" y="72.9606" type="curve" smooth="yes"/>
    </contour>
    <contour>
      <point x="223.015" y="272.999" type="line"/>
      <point x="348.805" y="593.953" type="line"/>
      <point x="469.338" y="272.999" type="line"/>
    </contour>
  </outline>
</glyph>
<glyph name="ae" format="1">
  <advance width="901"/>
  <unicode hex="00E6"/>
  <outline>
    <contour>
      <point x="847.685" y="138.8" type="line"/>
      <point x="821.61" y="76.5038"/>
      <point x="773.806" y="31.4822"/>
      <point x="695.094" y="30.5901" type="curve" smooth="yes"/>
      <point x="530.588" y="30.5901" type="line"/>
      <point x="530.588" y="320.218" type="line"/>
      <point x="700.624" y="320.218" type="line"/>
      <point x="726.938" y="319.18"/>
      <point x="747.961" y="297.554"/>
      <point x="747.961" y="270.977" type="curve" smooth="yes"/>
      <point x="747.946" y="256.243" type="line"/>
      <point x="757.946" y="256.119" type="line"/>
      <point x="757.946" y="414.375" type="line"/>
      <point x="747.946" y="414.25" type="line"/>
      <point x="747.963" y="399.516" type="line" smooth="yes"/>
      <point x="747.963" y="372.593"/>
      <point x="726.385" y="350.753"/>
      <point x="699.59" y="350.248" type="curve" smooth="yes"/>
      <point x="530.588" y="350.218" type="line"/>
      <point x="530.588" y="669.409" type="line"/>
      <point x="742.143" y="669.409" type="line" smooth="yes"/>
      <point x="768.94" y="668.883"/>
      <point x="790.514" y="647.038"/>
      <point x="790.514" y="620.115" type="curve" smooth="yes"/>
      <point x="790.498" y="605.384" type="line"/>
      <point x="800.498" y="605.26" type="line"/>
      <point x="800.498" y="718.187" type="line"/>
      <point x="781.94" y="710.366"/>
      <point x="724.367" y="700.407"/>
      <point x="681.268" y="700" type="curve" smooth="yes"/>
      <point x="437.553" y="700" type="line"/>
      <point x="437.553" y="690" type="line"/>
      <point x="441.553" y="690" type="line" smooth="yes"/>
      <point x="460.307" y="690"/>
      <point x="471.17" y="672.717"/>
      <point x="463.278" y="655.434" type="curve"/>
      <point x="89.2851" y="71.3421" type="line" smooth="yes"/>
      <point x="69.4679" y="39.6722"/>
      <point x="30.1819" y="10"/>
      <point x="-3" y="10" type="curve" smooth="yes"/>
      <point x="-10" y="10" type="line"/>
      <point x="-10" y="0" type="line"/>
      <point x="188.523" y="0" type="line"/>
      <point x="188.523" y="10" type="line"/>
      <point x="179.077" y="10" type="line"/>
      <point x="149.113" y="8.20832"/>
      <point x="135.777" y="38.4588"/>
      <point x="152.364" y="67.0373" type="curve" smooth="yes"/>
      <point x="301.791" y="320.218" type="line"/>
      <point x="465.555" y="320.218" type="line"/>
      <point x="465.555" y="58.3571" type="line" smooth="yes"/>
      <point x="465.046" y="31.5611"/>
      <point x="443.202" y="9.98413"/>
      <point x="416.278" y="9.98413" type="curve" smooth="yes"/>
      <point x="406.547" y="10" type="line"/>
      <point x="406.423" y="0" type="line"/>
      <point x="801.993" y="0" type="line"/>
      <point x="857.685" y="138.8" type="line"/>
    </contour>
    <contour>
      <point x="319.497" y="350.218" type="line"/>
      <point x="465.555" y="597.69" type="line"/>
      <point x="465.555" y="350.218" type="line"/>
    </contour>
    <contour>
      <point x="624.715" y="500" type="move" name="top"/>
    </contour>
  </outline>
</glyph>
<glyph name="ccedilla" format="1">
  <advance width="760"/>
  <unicode hex="00E7"/>
  <outline>
    <contour>
      <point x="702.006" y="291.85" type="line"/>
      <point x="679.263" y="87.058"/>
      <point x="559.123" y="16.354"/>
      <point x="417.129" y="15.929" type="curve" smooth="yes"/>
      <point x="249" y="20"/>
      <point x="135" y="151"/>
      <point x="135" y="352" type="curve" smooth="yes"/>
      <point x="135" y="551"/>
      <point x="247" y="684"/>
      <point x="422.814" y="684.074" type="curve" smooth="yes"/>
      <point x="543" y="684"/>
      <point x="641" y="622"/>
      <point x="671.378" y="505.264" type="curve"/>
      <point x="679.701" y="505.232" type="line"/>
      <point x="659.525" y="646.468" type="line"/>
      <point x="601" y="685"/>
      <point x="521" y="714"/>
      <point x="423" y="714" type="curve" smooth="yes"/>
      <point x="203" y="714"/>
      <point x="60" y="568"/>
      <point x="60" y="351" type="curve" smooth="yes"/>
      <point x="60" y="133.596"/>
      <point x="203.223" y="-8"/>
      <point x="406.969" y="-14" type="curve"/>
      <point x="360.272" y="-75" type="line"/>
      <point x="365.272" y="-85" type="line"/>
      <point x="400.902" y="-70"/>
      <point x="447.539" y="-76"/>
      <point x="449.038" y="-118" type="curve" smooth="yes"/>
      <point x="450.773" y="-166"/>
      <point x="400.019" y="-182"/>
      <point x="358.997" y="-182" type="curve"/>
      <point x="358.272" y="-192" type="line"/>
      <point x="425.296" y="-213"/>
      <point x="501.038" y="-182"/>
      <point x="499.038" y="-119" type="curve" smooth="yes"/>
      <point x="496.866" y="-50"/>
      <point x="429.18" y="-49"/>
      <point x="394.194" y="-61" type="curve"/>
      <point x="434.625" y="-14" type="line"/>
      <point x="563.554" y="-9"/>
      <point x="647.688" y="52.4736"/>
      <point x="698.139" y="134.938" type="curve"/>
      <point x="710.328" y="291.886" type="line"/>
    </contour>
  </outline>
</glyph>
<glyph name="egrave" format="1">
  <advance width="577"/>
  <unicode hex="00E8"/>
  <outline>
    <contour>
      <point x="303.983" y="771" type="line"/>
      <point x="261.661" y="817.631"/>
      <point x="219.338" y="861.263"/>
      <point x="177.016" y="901.894" type="curve"/>
      <point x="161.381" y="887.358"/>
      <point x="146.747" y="869.821"/>
      <point x="136.113" y="849.285" type="curve"/>
      <point x="189.736" y="817.857"/>
      <point x="243.36" y="789.428"/>
      <point x="296.983" y="764" type="curve"/>
    </contour>
    <contour>
      <point x="522.845" y="161.543" type="line"/>
      <point x="491.976" y="85.405"/>
      <point x="451.283" y="30.592"/>
      <point x="345.32" y="30.592" type="curve" smooth="yes"/>
      <point x="201.901" y="30.592" type="line"/>
      <point x="201.901" y="330.218" type="line"/>
      <point x="371.938" y="330.218" type="line"/>
      <point x="398.251" y="329.18"/>
      <point x="419.275" y="307.554"/>
      <point x="419.275" y="280.977" type="curve" smooth="yes"/>
      <point x="419.259" y="266.243" type="line"/>
      <point x="429.032" y="266.119" type="line"/>
      <point x="429.032" y="424.375" type="line"/>
      <point x="419.259" y="424.25" type="line"/>
      <point x="419.276" y="409.516" type="line" smooth="yes"/>
      <point x="419.276" y="382.593"/>
      <point x="397.698" y="360.753"/>
      <point x="370.904" y="360.248" type="curve" smooth="yes"/>
      <point x="201.901" y="360.248" type="line"/>
      <point x="201.901" y="669.409" type="line"/>
      <point x="405.771" y="669.409" type="line"/>
      <point x="437.01" y="667.511"/>
      <point x="461.765" y="641.614"/>
      <point x="461.765" y="609.891" type="curve" smooth="yes"/>
      <point x="461.746" y="592.067" type="line"/>
      <point x="471.846" y="591.917" type="line"/>
      <point x="471.846" y="672.218" type="line"/>
      <point x="471.797" y="688.91" type="line"/>
      <point x="471.797" y="718.187" type="line"/>
      <point x="453.253" y="710.366"/>
      <point x="395.681" y="700.407"/>
      <point x="352.582" y="700" type="curve" smooth="yes"/>
      <point x="60.3515" y="700" type="line"/>
      <point x="60.5135" y="690.06" type="line"/>
      <point x="73.1635" y="690.08" type="line" smooth="yes"/>
      <point x="106.267" y="690.08"/>
      <point x="136.869" y="664.989"/>
      <point x="136.869" y="632.798" type="curve" smooth="yes"/>
      <point x="136.869" y="72.8636" type="line" smooth="yes"/>
      <point x="136.21" y="38.0286"/>
      <point x="107.813" y="9.97857"/>
      <point x="72.8115" y="9.97857" type="curve" smooth="yes"/>
      <point x="60.1615" y="9.99957" type="line"/>
      <point x="60" y="0" type="line"/>
      <point x="474.557" y="0" type="line"/>
      <point x="532.845" y="161.543" type="line"/>
    </contour>
  </outline>
</glyph>
<glyph name="eacute" format="1">
  <advance width="577"/>
  <unicode hex="00E9"/>
  <outline>
    <contour>
      <point x="296.914" y="763.971" type="line"/>
      <point x="350.537" y="790.399"/>
      <point x="404.161" y="817.828"/>
      <point x="457.784" y="849.256" type="curve"/>
      <point x="447.15" y="868.792"/>
      <point x="432.515" y="886.329"/>
      <point x="416.881" y="901.865" type="curve"/>
      <point x="374.559" y="861.234"/>
      <point x="332.236" y="816.602"/>
      <point x="289.914" y="770.971" type="curve"/>
    </contour>
    <contour>
      <point x="522.845" y="161.543" type="line"/>
      <point x="491.976" y="85.405"/>
      <point x="451.283" y="30.592"/>
      <point x="345.32" y="30.592" type="curve" smooth="yes"/>
      <point x="201.901" y="30.592" type="line"/>
      <point x="201.901" y="330.218" type="line"/>
      <point x="371.938" y="330.218" type="line"/>
      <point x="398.251" y="329.18"/>
      <point x="419.275" y="307.554"/>
      <point x="419.275" y="280.977" type="curve" smooth="yes"/>
      <point x="419.259" y="266.243" type="line"/>
      <point x="429.032" y="266.119" type="line"/>
      <point x="429.032" y="424.375" type="line"/>
      <point x="419.259" y="424.25" type="line"/>
      <point x="419.276" y="409.516" type="line" smooth="yes"/>
      <point x="419.276" y="382.593"/>
      <point x="397.698" y="360.753"/>
      <point x="370.904" y="360.248" type="curve" smooth="yes"/>
      <point x="201.901" y="360.248" type="line"/>
      <point x="201.901" y="669.409" type="line"/>
      <point x="405.771" y="669.409" type="line"/>
      <point x="437.01" y="667.511"/>
      <point x="461.765" y="641.614"/>
      <point x="461.765" y="609.891" type="curve" smooth="yes"/>
      <point x="461.746" y="592.067" type="line"/>
      <point x="471.846" y="591.917" type="line"/>
      <point x="471.846" y="672.218" type="line"/>
      <point x="471.797" y="688.91" type="line"/>
      <point x="471.797" y="718.187" type="line"/>
      <point x="453.253" y="710.366"/>
      <point x="395.681" y="700.407"/>
      <point x="352.581" y="700" type="curve" smooth="yes"/>
      <point x="60.3515" y="700" type="line"/>
      <point x="60.5135" y="690.06" type="line"/>
      <point x="73.1635" y="690.08" type="line" smooth="yes"/>
      <point x="106.267" y="690.08"/>
      <point x="136.869" y="664.989"/>
      <point x="136.869" y="632.798" type="curve" smooth="yes"/>
      <point x="136.869" y="72.8636" type="line" smooth="yes"/>
      <point x="136.21" y="38.0286"/>
      <point x="107.813" y="9.97857"/>
      <point x="72.8115" y="9.97857" type="curve" smooth="yes"/>
      <point x="60.1615" y="9.99957" type="line"/>
      <point x="60" y="0" type="line"/>
      <point x="474.557" y="0" type="line"/>
      <point x="532.845" y="161.543" type="line"/>
    </contour>
  </outline>
</glyph>
<glyph name="edieresis" format="1">
  <advance width="577"/>
  <unicode hex="00EB"/>
  <outline>
    <contour>
      <point x="224.364" y="764.096"/>
      <point x="241.859" y="781.591"/>
      <point x="241.859" y="803.174" type="curve" smooth="yes"/>
      <point x="241.859" y="824.757"/>
      <point x="224.364" y="842.253"/>
      <point x="202.781" y="842.253" type="curve" smooth="yes"/>
      <point x="181.198" y="842.253"/>
      <point x="163.703" y="824.757"/>
      <point x="163.703" y="803.174" type="curve" smooth="yes"/>
      <point x="163.703" y="781.591"/>
      <point x="181.198" y="764.096"/>
      <point x="202.781" y="764.096" type="curve" smooth="yes"/>
    </contour>
    <contour>
      <point x="412.737" y="764.096"/>
      <point x="430.232" y="781.591"/>
      <point x="430.232" y="803.174" type="curve" smooth="yes"/>
      <point x="430.232" y="824.757"/>
      <point x="412.737" y="842.253"/>
      <point x="391.154" y="842.253" type="curve" smooth="yes"/>
      <point x="369.571" y="842.253"/>
      <point x="352.076" y="824.757"/>
      <point x="352.076" y="803.174" type="curve" smooth="yes"/>
      <point x="352.076" y="781.591"/>
      <point x="369.571" y="764.096"/>
      <point x="391.154" y="764.096" type="curve" smooth="yes"/>
    </contour>
    <contour>
      <point x="522.845" y="161.543" type="line"/>
      <point x="491.976" y="85.405"/>
      <point x="451.283" y="30.592"/>
      <point x="345.32" y="30.592" type="curve" smooth="yes"/>
      <point x="201.901" y="30.592" type="line"/>
      <point x="201.901" y="330.218" type="line"/>
      <point x="371.938" y="330.218" type="line"/>
      <point x="398.251" y="329.18"/>
      <point x="419.275" y="307.554"/>
      <point x="419.275" y="280.977" type="curve" smooth="yes"/>
      <point x="419.259" y="266.243" type="line"/>
      <point x="429.032" y="266.119" type="line"/>
      <point x="429.032" y="424.375" type="line"/>
      <point x="419.259" y="424.25" type="line"/>
      <point x="419.276" y="409.516" type="line" smooth="yes"/>
      <point x="419.276" y="382.593"/>
      <point x="397.698" y="360.753"/>
      <point x="370.904" y="360.248" type="curve" smooth="yes"/>
      <point x="201.901" y="360.248" type="line"/>
      <point x="201.901" y="669.409" type="line"/>
      <point x="405.771" y="669.409" type="line"/>
      <point x="437.01" y="667.511"/>
      <point x="461.765" y="641.614"/>
      <point x="461.765" y="609.891" type="curve" smooth="yes"/>
      <point x="461.746" y="592.067" type="line"/>
      <point x="471.846" y="591.917" type="line"/>
      <point x="471.846" y="672.218" type="line"/>
      <point x="471.797" y="688.91" type="line"/>
      <point x="471.797" y="718.187" type="line"/>
      <point x="453.253" y="710.366"/>
      <point x="395.681" y="700.407"/>
      <point x="352.581" y="700" type="curve" smooth="yes"/>
      <point x="60.3515" y="700" type="line"/>
      <point x="60.5135" y="690.06" type="line"/>
      <point x="73.1635" y="690.08" type="line" smooth="yes"/>
      <point x="106.267" y="690.08"/>
      <point x="136.869" y="664.989"/>
      <point x="136.869" y="632.798" type="curve" smooth="yes"/>
      <point x="136.869" y="72.8636" type="line" smooth="yes"/>
      <point x="136.21" y="38.0286"/>
      <point x="107.813" y="9.97857"/>
      <point x="72.8115" y="9.97857" type="curve" smooth="yes"/>
      <point x="60.1615" y="9.99957" type="line"/>
      <point x="60" y="0" type="line"/>
      <point x="474.557" y="0" type="line"/>
      <point x="532.845" y="161.543" type="line"/>
    </contour>
  </outline>
</glyph>
<glyph name="igrave" format="1">
  <advance width="338"/>
  <unicode hex="00EC"/>
  <outline>
    <contour>
      <point x="176.575" y="771" type="line"/>
      <point x="134.253" y="817.631"/>
      <point x="91.93" y="861.263"/>
      <point x="49.608" y="901.894" type="curve"/>
      <point x="33.9737" y="887.358"/>
      <point x="19.3393" y="869.821"/>
      <point x="8.705" y="849.285" type="curve"/>
      <point x="62.328" y="817.857"/>
      <point x="115.952" y="789.428"/>
      <point x="169.575" y="764" type="curve"/>
    </contour>
    <contour>
      <point x="278.626" y="10" type="line"/>
      <point x="265.976" y="9.979" type="line" smooth="yes"/>
      <point x="230.974" y="9.979"/>
      <point x="202.577" y="38.029"/>
      <point x="201.922" y="72.864" type="curve"/>
      <point x="201.922" y="627.818" type="line" smooth="yes"/>
      <point x="202.9" y="662.363"/>
      <point x="231.167" y="690.08"/>
      <point x="265.959" y="690.08" type="curve" smooth="yes"/>
      <point x="278.609" y="690.06" type="line"/>
      <point x="278.771" y="700.06" type="line"/>
      <point x="60.0161" y="700.06" type="line"/>
      <point x="60.1781" y="690.06" type="line"/>
      <point x="72.8281" y="690.08" type="line" smooth="yes"/>
      <point x="107.692" y="690.08"/>
      <point x="136.003" y="662.249"/>
      <point x="136.873" y="627.605" type="curve" smooth="yes"/>
      <point x="136.873" y="72.8635" type="line" smooth="yes"/>
      <point x="136.21" y="38.0285"/>
      <point x="107.813" y="9.97847"/>
      <point x="72.811" y="9.97847" type="curve" smooth="yes"/>
      <point x="60.161" y="9.99947" type="line"/>
      <point x="60" y="0" type="line"/>
      <point x="278.787" y="0" type="line"/>
    </contour>
  </outline>
</glyph>
<glyph name="eth" format="1">
  <advance width="817"/>
  <unicode hex="00F0"/>
  <outline>
    <contour>
      <point x="65.257" y="700.06" type="line"/>
      <point x="65.419" y="690.06" type="line"/>
      <point x="78.069" y="690.08" type="line" smooth="yes"/>
      <point x="111.15" y="690.08"/>
      <point x="141.768" y="665.023"/>
      <point x="141.768" y="632.864" type="curve" smooth="yes"/>
      <point x="141.768" y="365.016" type="line"/>
      <point x="60" y="365.016" type="line"/>
      <point x="60" y="335.016" type="line"/>
      <point x="141.768" y="335.016" type="line"/>
      <point x="141.768" y="72.7269" type="line" smooth="yes"/>
      <point x="141.041" y="37.9555"/>
      <point x="112.673" y="9.97908"/>
      <point x="77.717" y="9.97908" type="curve" smooth="yes"/>
      <point x="65.067" y="10" type="line"/>
      <point x="64.906" y="0" type="line"/>
      <point x="144.681" y="0" type="line"/>
      <point x="403.442" y="0.0570845" type="line" smooth="yes"/>
      <point x="617.035" y="0.0570845"/>
      <point x="757.584" y="139.952"/>
      <point x="757.584" y="349.709" type="curve" smooth="yes"/>
      <point x="757.584" y="559.884"/>
      <point x="617.035" y="699.975"/>
      <point x="403.442" y="699.975" type="curve" smooth="yes"/>
    </contour>
    <contour>
      <point x="206.889" y="335.016" type="line"/>
      <point x="370" y="335.016" type="line"/>
      <point x="370" y="365.016" type="line"/>
      <point x="206.889" y="365.016" type="line"/>
      <point x="206.889" y="669.933" type="line"/>
      <point x="403.442" y="669.944" type="line" smooth="yes"/>
      <point x="573.846" y="669.944"/>
      <point x="687.584" y="541.85"/>
      <point x="687.584" y="349.709" type="curve" smooth="yes"/>
      <point x="687.584" y="158.148"/>
      <point x="573.846" y="30.4401"/>
      <point x="403.442" y="30.4401" type="curve" smooth="yes"/>
      <point x="206.889" y="30.4511" type="line"/>
    </contour>
  </outline>
</glyph>
<glyph name="ntilde" format="1">
  <advance width="841"/>
  <unicode hex="00F1"/>
  <outline>
    <contour>
      <point x="561.534" y="842.516" type="line"/>
      <point x="555.854" y="793.792"/>
      <point x="531.002" y="763.929"/>
      <point x="496.133" y="763.929" type="curve" smooth="yes"/>
      <point x="453.135" y="763.929"/>
      <point x="407.949" y="807.729"/>
      <point x="375.695" y="807.729" type="curve" smooth="yes"/>
      <point x="349.979" y="807.729"/>
      <point x="332.636" y="794.696"/>
      <point x="321.497" y="767" type="curve"/>
      <point x="311.497" y="767" type="line"/>
      <point x="318.937" y="819.532"/>
      <point x="343.332" y="851.729"/>
      <point x="375.695" y="851.729" type="curve" smooth="yes"/>
      <point x="420.942" y="851.729"/>
      <point x="461.823" y="808.929"/>
      <point x="496.133" y="808.929" type="curve" smooth="yes"/>
      <point x="524.374" y="808.929"/>
      <point x="542.103" y="819.677"/>
      <point x="551.534" y="842.516" type="curve"/>
    </contour>
    <contour>
      <point x="590.233" y="700.019" type="line"/>
      <point x="590.387" y="690.019" type="line"/>
      <point x="608.841" y="690.038" type="line" smooth="yes"/>
      <point x="642.579" y="690.042"/>
      <point x="669.944" y="663.005"/>
      <point x="670.575" y="629.431" type="curve" smooth="yes"/>
      <point x="670.575" y="133.49" type="line"/>
      <point x="125.997" y="715" type="line"/>
      <point x="116.136" y="714.991" type="line" smooth="yes"/>
      <point x="116.136" y="714.991"/>
      <point x="125.345" y="658.335"/>
      <point x="125.345" y="590.069" type="curve" smooth="yes"/>
      <point x="125.345" y="70.544" type="line" smooth="yes"/>
      <point x="124.69" y="36.9923"/>
      <point x="97.3315" y="9.98088"/>
      <point x="63.6129" y="9.98088" type="curve" smooth="yes"/>
      <point x="45.1549" y="9.99988" type="line"/>
      <point x="44.9999" y="0" type="line"/>
      <point x="250.987" y="0" type="line"/>
      <point x="250.833" y="9.99988" type="line"/>
      <point x="232.372" y="9.98088" type="line" smooth="yes"/>
      <point x="198.9" y="9.98088"/>
      <point x="171.696" y="36.6007"/>
      <point x="170.656" y="69.8128" type="curve"/>
      <point x="170.656" y="567.721" type="line"/>
      <point x="716.021" y="-14" type="line"/>
      <point x="725.103" y="-14" type="line"/>
      <point x="725.103" y="-14"/>
      <point x="715.982" y="49.1508"/>
      <point x="715.982" y="113.582" type="curve" smooth="yes"/>
      <point x="715.982" y="630.256" type="line" smooth="yes"/>
      <point x="717.042" y="663.448"/>
      <point x="744.236" y="690.042"/>
      <point x="777.695" y="690.038" type="curve" smooth="yes"/>
      <point x="796.152" y="690.019" type="line"/>
      <point x="796.306" y="700.019" type="line"/>
    </contour>
  </outline>
</glyph>
<glyph name="ocircumflex" format="1">
  <advance width="848"/>
  <unicode hex="00F4"/>
  <outline>
    <contour>
      <point x="420.225" y="889.736" type="line"/>
      <point x="430.225" y="889.736" type="line"/>
      <point x="544.4" y="770.884" type="line"/>
      <point x="538.4" y="762.884" type="line"/>
      <point x="424.755" y="828.98" type="line"/>
      <point x="320.095" y="762.98" type="line"/>
      <point x="314.095" y="770.98" type="line"/>
    </contour>
    <contour>
      <point x="197.406" y="714"/>
      <point x="40" y="568.397"/>
      <point x="40" y="349.992" type="curve" smooth="yes"/>
      <point x="40" y="131.597"/>
      <point x="197.406" y="-14"/>
      <point x="424.432" y="-14" type="curve" smooth="yes"/>
      <point x="651.459" y="-14"/>
      <point x="808.865" y="131.597"/>
      <point x="808.865" y="349.992" type="curve" smooth="yes"/>
      <point x="808.865" y="568.397"/>
      <point x="651.459" y="714"/>
      <point x="424.432" y="714" type="curve" smooth="yes"/>
    </contour>
    <contour>
      <point x="240.408" y="15.9249"/>
      <point x="117.403" y="149.552"/>
      <point x="117.403" y="349.992" type="curve" smooth="yes"/>
      <point x="117.403" y="550.442"/>
      <point x="240.408" y="684.075"/>
      <point x="424.432" y="684.075" type="curve" smooth="yes"/>
      <point x="608.457" y="684.075"/>
      <point x="731.462" y="550.442"/>
      <point x="731.462" y="349.992" type="curve" smooth="yes"/>
      <point x="731.462" y="149.552"/>
      <point x="608.457" y="15.9249"/>
      <point x="424.432" y="15.9249" type="curve" smooth="yes"/>
    </contour>
  </outline>
</glyph>
<glyph name="otilde" format="1">
  <advance width="848"/>
  <unicode hex="00F5"/>
  <outline>
    <contour>
      <point x="561.07" y="842.516" type="line"/>
      <point x="555.39" y="793.792"/>
      <point x="530.538" y="763.929"/>
      <point x="495.669" y="763.929" type="curve" smooth="yes"/>
      <point x="452.671" y="763.929"/>
      <point x="407.485" y="807.729"/>
      <point x="375.231" y="807.729" type="curve" smooth="yes"/>
      <point x="349.515" y="807.729"/>
      <point x="332.172" y="794.696"/>
      <point x="321.033" y="767" type="curve"/>
      <point x="311.033" y="767" type="line"/>
      <point x="318.473" y="819.532"/>
      <point x="342.868" y="851.729"/>
      <point x="375.231" y="851.729" type="curve" smooth="yes"/>
      <point x="420.478" y="851.729"/>
      <point x="461.359" y="808.929"/>
      <point x="495.669" y="808.929" type="curve" smooth="yes"/>
      <point x="523.91" y="808.929"/>
      <point x="541.639" y="819.677"/>
      <point x="551.07" y="842.516" type="curve"/>
    </contour>
    <contour>
      <point x="197.406" y="714"/>
      <point x="40" y="568.397"/>
      <point x="40" y="349.992" type="curve" smooth="yes"/>
      <point x="40" y="131.597"/>
      <point x="197.406" y="-14"/>
      <point x="424.432" y="-14" type="curve" smooth="yes"/>
      <point x="651.459" y="-14"/>
      <point x="808.865" y="131.597"/>
      <point x="808.865" y="349.992" type="curve" smooth="yes"/>
      <point x="808.865" y="568.397"/>
      <point x="651.459" y="714"/>
      <point x="424.432" y="714" type="curve" smooth="yes"/>
    </contour>
    <contour>
      <point x="240.408" y="15.925"/>
      <point x="117.403" y="149.552"/>
      <point x="117.403" y="349.992" type="curve" smooth="yes"/>
      <point x="117.403" y="550.442"/>
      <point x="240.408" y="684.075"/>
      <point x="424.432" y="684.075" type="curve" smooth="yes"/>
      <point x="608.457" y="684.075"/>
      <point x="731.462" y="550.442"/>
      <point x="731.462" y="349.992" type="curve" smooth="yes"/>
      <point x="731.462" y="149.552"/>
      <point x="608.457" y="15.925"/>
      <point x="424.432" y="15.925" type="curve" smooth="yes"/>
    </contour>
  </outline>
</glyph>
<glyph name="odieresis" format="1">
  <advance width="848"/>
  <unicode hex="00F6"/>
  <outline>
    <contour>
      <point x="352.813" y="764.096"/>
      <point x="370.308" y="781.591"/>
      <point x="370.308" y="803.174" type="curve" smooth="yes"/>
      <point x="370.308" y="824.757"/>
      <point x="352.813" y="842.253"/>
      <point x="331.23" y="842.253" type="curve" smooth="yes"/>
      <point x="309.647" y="842.253"/>
      <point x="292.152" y="824.757"/>
      <point x="292.152" y="803.174" type="curve" smooth="yes"/>
      <point x="292.152" y="781.591"/>
      <point x="309.647" y="764.096"/>
      <point x="331.23" y="764.096" type="curve" smooth="yes"/>
    </contour>
    <contour>
      <point x="541.187" y="764.096"/>
      <point x="558.682" y="781.591"/>
      <point x="558.682" y="803.174" type="curve" smooth="yes"/>
      <point x="558.682" y="824.757"/>
      <point x="541.187" y="842.253"/>
      <point x="519.604" y="842.253" type="curve" smooth="yes"/>
      <point x="498.021" y="842.253"/>
      <point x="480.526" y="824.757"/>
      <point x="480.526" y="803.174" type="curve" smooth="yes"/>
      <point x="480.526" y="781.591"/>
      <point x="498.021" y="764.096"/>
      <point x="519.604" y="764.096" type="curve" smooth="yes"/>
    </contour>
    <contour>
      <point x="197.406" y="714"/>
      <point x="40" y="568.397"/>
      <point x="40" y="349.992" type="curve" smooth="yes"/>
      <point x="40" y="131.597"/>
      <point x="197.406" y="-14"/>
      <point x="424.432" y="-14" type="curve" smooth="yes"/>
      <point x="651.459" y="-14"/>
      <point x="808.865" y="131.597"/>
      <point x="808.865" y="349.992" type="curve" smooth="yes"/>
      <point x="808.865" y="568.397"/>
      <point x="651.459" y="714"/>
      <point x="424.432" y="714" type="curve" smooth="yes"/>
    </contour>
    <contour>
      <point x="240.408" y="15.925"/>
      <point x="117.403" y="149.552"/>
      <point x="117.403" y="349.992" type="curve" smooth="yes"/>
      <point x="117.403" y="550.442"/>
      <point x="240.408" y="684.075"/>
      <point x="424.432" y="684.075" type="curve" smooth="yes"/>
      <point x="608.457" y="684.075"/>
      <point x="731.462" y="550.442"/>
      <point x="731.462" y="349.992" type="curve" smooth="yes"/>
      <point x="731.462" y="149.552"/>
      <point x="608.457" y="15.925"/>
      <point x="424.432" y="15.925" type="curve" smooth="yes"/>
    </contour>
  </outline>
</glyph>
<glyph name="oslash" format="1">
  <advance width="848"/>
  <unicode hex="00F8"/>
  <outline>
    <contour>
      <point x="724.701" y="699.577" type="line"/>
      <point x="699.389" y="722.336" type="line"/>
      <point x="644.992" y="656.926" type="line"/>
      <point x="584.216" y="693.713"/>
      <point x="509.174" y="714"/>
      <point x="424.432" y="714" type="curve" smooth="yes"/>
      <point x="197.406" y="714"/>
      <point x="40" y="568.397"/>
      <point x="40" y="349.992" type="curve" smooth="yes"/>
      <point x="40" y="233.819"/>
      <point x="84.5399" y="138.245"/>
      <point x="160.406" y="74.2278" type="curve"/>
      <point x="97.8442" y="-1" type="line"/>
      <point x="122.854" y="-23" type="line"/>
      <point x="186.972" y="53.9793" type="line"/>
      <point x="250.504" y="10.3161"/>
      <point x="331.654" y="-14"/>
      <point x="424.432" y="-14" type="curve" smooth="yes"/>
      <point x="651.459" y="-14"/>
      <point x="808.865" y="131.597"/>
      <point x="808.865" y="349.992" type="curve" smooth="yes"/>
      <point x="808.865" y="473.717"/>
      <point x="758.351" y="574.079"/>
      <point x="673.282" y="637.843" type="curve"/>
    </contour>
    <contour>
      <point x="194.902" y="115.709" type="line"/>
      <point x="145.491" y="173.687"/>
      <point x="117.403" y="254.211"/>
      <point x="117.403" y="349.992" type="curve" smooth="yes"/>
      <point x="117.403" y="550.442"/>
      <point x="240.408" y="684.075"/>
      <point x="424.432" y="684.075" type="curve" smooth="yes"/>
      <point x="499.768" y="684.075"/>
      <point x="564.877" y="661.679"/>
      <point x="615.508" y="621.472" type="curve"/>
    </contour>
    <contour>
      <point x="640.728" y="598.759" type="line"/>
      <point x="698.329" y="540.062"/>
      <point x="731.462" y="454.026"/>
      <point x="731.462" y="349.992" type="curve" smooth="yes"/>
      <point x="731.462" y="149.552"/>
      <point x="608.457" y="15.9251"/>
      <point x="424.432" y="15.9251" type="curve" smooth="yes"/>
      <point x="341.353" y="15.9251"/>
      <point x="270.711" y="43.1602"/>
      <point x="218.208" y="91.4824" type="curve"/>
    </contour>
    <contour>
      <point x="290" y="500" type="move" name="top"/>
    </contour>
  </outline>
</glyph>
<glyph name="yacute" format="1">
  <advance width="661"/>
  <unicode hex="00FD"/>
  <outline>
    <contour>
      <point x="343.41" y="763.971" type="line"/>
      <point x="397.033" y="790.399"/>
      <point x="450.657" y="817.828"/>
      <point x="504.28" y="849.256" type="curve"/>
      <point x="493.646" y="868.792"/>
      <point x="479.011" y="886.329"/>
      <point x="463.377" y="901.865" type="curve"/>
      <point x="421.055" y="861.234"/>
      <point x="378.732" y="816.602"/>
      <point x="336.41" y="770.971" type="curve"/>
    </contour>
    <contour>
      <point x="449.868" y="700.017" type="line"/>
      <point x="449.868" y="689.993" type="line"/>
      <point x="462.468" y="689.993" type="line" smooth="yes"/>
      <point x="489.414" y="689.993"/>
      <point x="513.609" y="657.132"/>
      <point x="498.051" y="628.967" type="curve" smooth="yes"/>
      <point x="497.524" y="628.04" type="line"/>
      <point x="338.151" y="348.103" type="line"/>
      <point x="188.308" y="627.953" type="line" smooth="yes"/>
      <point x="173.594" y="656.339"/>
      <point x="194.051" y="690.035"/>
      <point x="223.324" y="690.035" type="curve" smooth="yes"/>
      <point x="235.923" y="690.035" type="line"/>
      <point x="235.923" y="700" type="line"/>
      <point x="-10" y="700" type="line"/>
      <point x="-10" y="690.035" type="line"/>
      <point x="3.63199" y="690.035" type="line" smooth="yes"/>
      <point x="45.4481" y="690.035"/>
      <point x="84.8065" y="662.318"/>
      <point x="104.175" y="631.606" type="curve" smooth="yes"/>
      <point x="294.572" y="313.296" type="line"/>
      <point x="294.572" y="72.2767" type="line" smooth="yes"/>
      <point x="293.611" y="37.7145"/>
      <point x="265.337" y="9.97943"/>
      <point x="230.532" y="9.97943" type="curve" smooth="yes"/>
      <point x="217.882" y="10" type="line"/>
      <point x="217.721" y="0" type="line"/>
      <point x="436.468" y="0" type="line"/>
      <point x="436.307" y="10" type="line"/>
      <point x="423.657" y="9.97943" type="line" smooth="yes"/>
      <point x="388.655" y="9.97943"/>
      <point x="360.258" y="38.0294"/>
      <point x="359.603" y="72.8644" type="curve"/>
      <point x="359.603" y="312.295" type="line"/>
      <point x="557.331" y="631.92" type="line"/>
      <point x="578.69" y="662.513"/>
      <point x="615.96" y="689.993"/>
      <point x="657.64" y="689.993" type="curve" smooth="yes"/>
      <point x="671.64" y="689.993" type="line"/>
      <point x="671.64" y="700.017" type="line"/>
    </contour>
  </outline>
</glyph>
<glyph name="Amacron" format="1">
  <advance width="712"/>
  <unicode hex="0100"/>
  <outline>
    <contour>
      <point x="244.483" y="805.361" type="line"/>
      <point x="494.483" y="805.361" type="line"/>
      <point x="494.483" y="840.361" type="line"/>
      <point x="244.483" y="840.361" type="line"/>
    </contour>
    <contour>
      <point x="944.334" y="-191" type="line"/>
      <point x="762.577" y="-230"/>
      <point x="650.906" y="-5"/>
      <point x="594.487" y="155.213" type="curve" smooth="yes"/>
      <point x="472.472" y="500.822" type="line" smooth="yes"/>
      <point x="422.78" y="641.575"/>
      <point x="352.599" y="833.044"/>
      <point x="118.292" y="733.836" type="curve"/>
      <point x="121.116" y="723.732" type="line"/>
      <point x="224.681" y="761.203"/>
      <point x="288.307" y="724.231"/>
      <point x="331.686" y="662.126" type="curve"/>
      <point x="84.0535" y="67.592" type="line"/>
      <point x="63.3823" y="26.9618"/>
      <point x="28.1727" y="10"/>
      <point x="-1" y="10" type="curve" smooth="yes"/>
      <point x="-10" y="10" type="line"/>
      <point x="-10" y="0" type="line"/>
      <point x="191.278" y="0" type="line"/>
      <point x="191.278" y="9.90855" type="line"/>
      <point x="182.486" y="9.90855" type="line" smooth="yes"/>
      <point x="156.669" y="9.90855"/>
      <point x="129.884" y="32.6642"/>
      <point x="144.486" y="72.682" type="curve" smooth="yes"/>
      <point x="213.751" y="251.001" type="line"/>
      <point x="488.043" y="251.001" type="line"/>
      <point x="526.794" y="136.564" type="line" smooth="yes"/>
      <point x="628.3" y="-163"/>
      <point x="787.583" y="-259"/>
      <point x="945.159" y="-201" type="curve"/>
    </contour>
    <contour>
      <point x="225.43" y="281" type="line"/>
      <point x="357.053" y="619.071" type="line"/>
      <point x="373.892" y="585.646"/>
      <point x="387.144" y="548.966"/>
      <point x="398.897" y="514.258" type="curve" smooth="yes"/>
      <point x="477.884" y="281" type="line"/>
    </contour>
  </outline>
</glyph>
<glyph name="Abreve" format="1">
  <advance width="712"/>
  <unicode hex="0102"/>
  <outline>
    <contour>
      <point x="459.878" y="877.733" type="line"/>
      <point x="449.878" y="850.911"/>
      <point x="413.37" y="824.088"/>
      <point x="366.861" y="824.088" type="curve" smooth="yes"/>
      <point x="320.353" y="824.088"/>
      <point x="283.846" y="850.911"/>
      <point x="273.846" y="877.733" type="curve"/>
      <point x="263.846" y="877.733" type="line"/>
      <point x="263.846" y="821.469"/>
      <point x="310.939" y="774.088"/>
      <point x="366.861" y="774.088" type="curve" smooth="yes"/>
      <point x="422.785" y="774.088"/>
      <point x="469.878" y="821.469"/>
      <point x="469.878" y="877.733" type="curve"/>
    </contour>
    <contour>
      <point x="944.334" y="-191" type="line"/>
      <point x="762.577" y="-230"/>
      <point x="650.906" y="-5"/>
      <point x="594.487" y="155.213" type="curve" smooth="yes"/>
      <point x="472.472" y="500.822" type="line" smooth="yes"/>
      <point x="422.78" y="641.575"/>
      <point x="352.599" y="833.044"/>
      <point x="118.292" y="733.836" type="curve"/>
      <point x="121.116" y="723.732" type="line"/>
      <point x="224.681" y="761.203"/>
      <point x="288.307" y="724.231"/>
      <point x="331.685" y="662.126" type="curve"/>
      <point x="84.0535" y="67.5922" type="line"/>
      <point x="63.3823" y="26.9619"/>
      <point x="28.1727" y="10"/>
      <point x="-1" y="10" type="curve" smooth="yes"/>
      <point x="-10" y="10" type="line"/>
      <point x="-10" y="0" type="line"/>
      <point x="191.278" y="0" type="line"/>
      <point x="191.278" y="9.90873" type="line"/>
      <point x="182.486" y="9.90873" type="line" smooth="yes"/>
      <point x="156.669" y="9.90873"/>
      <point x="129.884" y="32.6643"/>
      <point x="144.486" y="72.6822" type="curve" smooth="yes"/>
      <point x="213.751" y="251.001" type="line"/>
      <point x="488.043" y="251.001" type="line"/>
      <point x="526.794" y="136.564" type="line" smooth="yes"/>
      <point x="628.3" y="-163"/>
      <point x="787.583" y="-259"/>
      <point x="945.159" y="-201" type="curve"/>
    </contour>
    <contour>
      <point x="225.43" y="281" type="line"/>
      <point x="357.053" y="619.071" type="line"/>
      <point x="373.892" y="585.646"/>
      <point x="387.144" y="548.967"/>
      <point x="398.897" y="514.258" type="curve" smooth="yes"/>
      <point x="477.884" y="281" type="line"/>
    </contour>
  </outline>
</glyph>
<glyph name="Dcaron" format="1">
  <advance width="838"/>
  <unicode hex="010E"/>
  <outline>
    <contour>
      <point x="425.196" y="764.151" type="line"/>
      <point x="415.196" y="764.151" type="line"/>
      <point x="301.021" y="883.003" type="line"/>
      <point x="307.021" y="891.003" type="line"/>
      <point x="420.666" y="824.907" type="line"/>
      <point x="525.326" y="890.907" type="line"/>
      <point x="531.326" y="882.907" type="line"/>
    </contour>
    <contour>
      <point x="-89" y="549.583" type="line"/>
      <point x="-56" y="611.535"/>
      <point x="-16" y="665.519"/>
      <point x="157.862" y="670.237" type="curve"/>
      <point x="157.862" y="67.2525" type="line"/>
      <point x="154.426" y="35.0934"/>
      <point x="127.244" y="10.0366"/>
      <point x="94.1633" y="10.0366" type="curve" smooth="yes"/>
      <point x="81.5133" y="10.0566" type="line"/>
      <point x="81.3513" y="0.0566139" type="line"/>
      <point x="419.536" y="0.0566139" type="line" smooth="yes"/>
      <point x="633.129" y="0"/>
      <point x="778.678" y="139.879"/>
      <point x="778.678" y="350.054" type="curve" smooth="yes"/>
      <point x="778.678" y="559.811"/>
      <point x="633.08" y="695.112"/>
      <point x="419.536" y="699.706" type="curve" smooth="yes"/>
      <point x="331.459" y="701.601"/>
      <point x="257.026" y="703.773"/>
      <point x="194.213" y="702.682" type="curve" smooth="yes"/>
      <point x="24.9943" y="699.742"/>
      <point x="-60" y="673.117"/>
      <point x="-100" y="553.583" type="curve"/>
    </contour>
    <contour>
      <point x="222.983" y="670.149" type="line"/>
      <point x="419.536" y="670.149" type="line" smooth="yes"/>
      <point x="590.94" y="669.322"/>
      <point x="703.678" y="541.614"/>
      <point x="703.678" y="350.053" type="curve" smooth="yes"/>
      <point x="703.678" y="157.912"/>
      <point x="589.94" y="29.8179"/>
      <point x="419.536" y="29.8297" type="curve" smooth="yes"/>
      <point x="222.983" y="29.8297" type="line"/>
    </contour>
  </outline>
</glyph>
<glyph name="ecaron" format="1">
  <advance width="577"/>
  <unicode hex="011B"/>
  <outline>
    <contour>
      <point x="301.935" y="764.153" type="line"/>
      <point x="291.935" y="764.153" type="line"/>
      <point x="177.76" y="883.005" type="line"/>
      <point x="183.76" y="891.005" type="line"/>
      <point x="297.405" y="824.909" type="line"/>
      <point x="402.065" y="890.909" type="line"/>
      <point x="408.065" y="882.909" type="line"/>
    </contour>
    <contour>
      <point x="522.845" y="161.543" type="line"/>
      <point x="491.976" y="85.405"/>
      <point x="451.283" y="30.592"/>
      <point x="345.32" y="30.592" type="curve" smooth="yes"/>
      <point x="201.901" y="30.592" type="line"/>
      <point x="201.901" y="330.218" type="line"/>
      <point x="371.938" y="330.218" type="line"/>
      <point x="398.251" y="329.18"/>
      <point x="419.275" y="307.554"/>
      <point x="419.275" y="280.977" type="curve" smooth="yes"/>
      <point x="419.259" y="266.243" type="line"/>
      <point x="429.032" y="266.119" type="line"/>
      <point x="429.032" y="424.375" type="line"/>
      <point x="419.259" y="424.25" type="line"/>
      <point x="419.276" y="409.516" type="line" smooth="yes"/>
      <point x="419.276" y="382.593"/>
      <point x="397.698" y="360.753"/>
      <point x="370.904" y="360.248" type="curve" smooth="yes"/>
      <point x="201.901" y="360.248" type="line"/>
      <point x="201.901" y="669.409" type="line"/>
      <point x="405.771" y="669.409" type="line"/>
      <point x="437.01" y="667.511"/>
      <point x="461.765" y="641.614"/>
      <point x="461.765" y="609.891" type="curve" smooth="yes"/>
      <point x="461.746" y="592.067" type="line"/>
      <point x="471.846" y="591.917" type="line"/>
      <point x="471.846" y="672.218" type="line"/>
      <point x="471.797" y="688.91" type="line"/>
      <point x="471.797" y="718.187" type="line"/>
      <point x="453.253" y="710.366"/>
      <point x="395.681" y="700.407"/>
      <point x="352.581" y="700" type="curve" smooth="yes"/>
      <point x="60.3515" y="700" type="line"/>
      <point x="60.5135" y="690.06" type="line"/>
      <point x="73.1635" y="690.08" type="line" smooth="yes"/>
      <point x="106.267" y="690.08"/>
      <point x="136.869" y="664.989"/>
      <point x="136.869" y="632.798" type="curve" smooth="yes"/>
      <point x="136.869" y="72.8636" type="line" smooth="yes"/>
      <point x="136.21" y="38.0286"/>
      <point x="107.813" y="9.97858"/>
      <point x="72.8115" y="9.97858" type="curve" smooth="yes"/>
      <point x="60.1615" y="9.99958" type="line"/>
      <point x="60" y="0" type="line"/>
      <point x="474.557" y="0" type="line"/>
      <point x="532.845" y="161.543" type="line"/>
    </contour>
  </outline>
</glyph>
<glyph name="gbreve" format="1">
  <advance width="798"/>
  <unicode hex="011F"/>
  <outline>
    <contour>
      <point x="509.342" y="867.733" type="line"/>
      <point x="499.342" y="840.911"/>
      <point x="462.834" y="814.088"/>
      <point x="416.325" y="814.088" type="curve" smooth="yes"/>
      <point x="369.817" y="814.088"/>
      <point x="333.31" y="840.911"/>
      <point x="323.31" y="867.733" type="curve"/>
      <point x="313.31" y="867.733" type="line"/>
      <point x="313.31" y="811.469"/>
      <point x="360.403" y="764.088"/>
      <point x="416.325" y="764.088" type="curve" smooth="yes"/>
      <point x="472.249" y="764.088"/>
      <point x="519.342" y="811.469"/>
      <point x="519.342" y="867.733" type="curve"/>
    </contour>
    <contour>
      <point x="773.743" y="325.389" type="line"/>
      <point x="773.743" y="335.389" type="line"/>
      <point x="577.875" y="335.389" type="line"/>
      <point x="577.875" y="325.389" type="line"/>
      <point x="593.642" y="325.41" type="line" smooth="yes"/>
      <point x="625.918" y="325.455"/>
      <point x="645.075" y="309.049"/>
      <point x="645.075" y="279.843" type="curve" smooth="yes"/>
      <point x="645.075" y="102.656" type="line"/>
      <point x="587.402" y="49.354"/>
      <point x="506.333" y="15.926"/>
      <point x="419.42" y="15.926" type="curve" smooth="yes"/>
      <point x="249.918" y="16.817"/>
      <point x="135" y="150.447"/>
      <point x="135" y="350" type="curve" smooth="yes"/>
      <point x="135" y="550.445"/>
      <point x="249.919" y="684.074"/>
      <point x="419.422" y="684.074" type="curve" smooth="yes"/>
      <point x="551.47" y="684.074"/>
      <point x="642.999" y="619.702"/>
      <point x="673.378" y="505.264" type="curve"/>
      <point x="681.701" y="505.232" type="line"/>
      <point x="661.525" y="646.468" type="line"/>
      <point x="602.775" y="684.286"/>
      <point x="529.117" y="714"/>
      <point x="419.128" y="714" type="curve" smooth="yes"/>
      <point x="206.768" y="714"/>
      <point x="60" y="568.401"/>
      <point x="60" y="350.002" type="curve" smooth="yes"/>
      <point x="60" y="132.363"/>
      <point x="206.768" y="-13"/>
      <point x="419.42" y="-14" type="curve" smooth="yes"/>
      <point x="569.586" y="-14"/>
      <point x="663.024" y="54.215"/>
      <point x="708.625" y="114.81" type="curve"/>
      <point x="708.625" y="280.182" type="line"/>
      <point x="708.151" y="309.103"/>
      <point x="726.339" y="325.41"/>
      <point x="758.673" y="325.41" type="curve" smooth="yes"/>
    </contour>
  </outline>
</glyph>
<glyph name="hbar" format="1">
  <advance width="813"/>
  <unicode hex="0127"/>
  <outline>
    <contour>
      <point x="752.922" y="10" type="line"/>
      <point x="740.272" y="9.979" type="line" smooth="yes"/>
      <point x="705.27" y="9.979"/>
      <point x="676.873" y="38.029"/>
      <point x="676.218" y="72.864" type="curve" smooth="yes"/>
      <point x="676.189" y="498.11" type="line"/>
      <point x="742.318" y="498.11" type="line"/>
      <point x="742.318" y="528.11" type="line"/>
      <point x="676.189" y="528.11" type="line"/>
      <point x="676.189" y="627.196" type="line" smooth="yes"/>
      <point x="676.857" y="662.03"/>
      <point x="705.254" y="690.08"/>
      <point x="740.255" y="690.08" type="curve" smooth="yes"/>
      <point x="752.905" y="690.06" type="line"/>
      <point x="753.067" y="700.06" type="line"/>
      <point x="534.312" y="700.06" type="line"/>
      <point x="534.474" y="690.06" type="line"/>
      <point x="547.124" y="690.08" type="line" smooth="yes"/>
      <point x="581.702" y="690.08"/>
      <point x="609.835" y="662.704"/>
      <point x="611.142" y="628.456" type="curve"/>
      <point x="611.142" y="528.11" type="line"/>
      <point x="201.92" y="528.11" type="line"/>
      <point x="201.92" y="627.818" type="line" smooth="yes"/>
      <point x="202.9" y="662.363"/>
      <point x="231.167" y="690.08"/>
      <point x="265.959" y="690.08" type="curve" smooth="yes"/>
      <point x="278.609" y="690.06" type="line"/>
      <point x="278.771" y="700.06" type="line"/>
      <point x="60.0159" y="700.06" type="line"/>
      <point x="60.1779" y="690.06" type="line"/>
      <point x="72.8279" y="690.08" type="line" smooth="yes"/>
      <point x="107.692" y="690.08"/>
      <point x="136.003" y="662.25"/>
      <point x="136.873" y="627.606" type="curve" smooth="yes"/>
      <point x="136.873" y="528.11" type="line"/>
      <point x="73.5738" y="528.11" type="line"/>
      <point x="73.5738" y="498.11" type="line"/>
      <point x="136.873" y="498.11" type="line"/>
      <point x="136.873" y="72.8641" type="line" smooth="yes"/>
      <point x="136.21" y="38.0291"/>
      <point x="107.813" y="9.9791"/>
      <point x="72.8108" y="9.9791" type="curve" smooth="yes"/>
      <point x="60.1608" y="10" type="line"/>
      <point x="59.9998" y="0" type="line"/>
      <point x="278.787" y="0" type="line"/>
      <point x="278.626" y="10" type="line"/>
      <point x="265.976" y="9.9791" type="line" smooth="yes"/>
      <point x="230.974" y="9.9791"/>
      <point x="202.577" y="38.0291"/>
      <point x="201.922" y="72.8641" type="curve"/>
      <point x="201.922" y="331.058" type="line"/>
      <point x="611.142" y="331.058" type="line"/>
      <point x="611.142" y="72.0993" type="line" smooth="yes"/>
      <point x="610.089" y="37.6195"/>
      <point x="581.852" y="9.9791"/>
      <point x="547.107" y="9.9791" type="curve" smooth="yes"/>
      <point x="534.457" y="10" type="line"/>
      <point x="534.296" y="0" type="line"/>
      <point x="753.083" y="0" type="line"/>
    </contour>
    <contour>
      <point x="201.92" y="361.058" type="line"/>
      <point x="201.92" y="498.11" type="line"/>
      <point x="611.142" y="498.11" type="line"/>
      <point x="611.142" y="361.058" type="line"/>
    </contour>
  </outline>
</glyph>
<glyph name="imacron" format="1">
  <advance width="338"/>
  <unicode hex="012B"/>
  <outline>
    <contour>
      <point x="47.395" y="795.36" type="line"/>
      <point x="297.395" y="795.36" type="line"/>
      <point x="297.395" y="830.36" type="line"/>
      <point x="47.395" y="830.36" type="line"/>
    </contour>
    <contour>
      <point x="278.626" y="10" type="line"/>
      <point x="265.976" y="9.979" type="line" smooth="yes"/>
      <point x="230.974" y="9.979"/>
      <point x="202.577" y="38.029"/>
      <point x="201.922" y="72.864" type="curve"/>
      <point x="201.922" y="627.818" type="line" smooth="yes"/>
      <point x="202.9" y="662.363"/>
      <point x="231.167" y="690.08"/>
      <point x="265.959" y="690.08" type="curve" smooth="yes"/>
      <point x="278.609" y="690.06" type="line"/>
      <point x="278.771" y="700.06" type="line"/>
      <point x="60.0161" y="700.06" type="line"/>
      <point x="60.1781" y="690.06" type="line"/>
      <point x="72.8281" y="690.08" type="line" smooth="yes"/>
      <point x="107.692" y="690.08"/>
      <point x="136.003" y="662.249"/>
      <point x="136.873" y="627.605" type="curve" smooth="yes"/>
      <point x="136.873" y="72.8635" type="line" smooth="yes"/>
      <point x="136.21" y="38.0285"/>
      <point x="107.813" y="9.97847"/>
      <point x="72.811" y="9.97847" type="curve" smooth="yes"/>
      <point x="60.161" y="9.99947" type="line"/>
      <point x="60" y="0" type="line"/>
      <point x="278.787" y="0" type="line"/>
    </contour>
  </outline>
</glyph>
<glyph name="Lacute" format="1">
  <advance width="401"/>
  <unicode hex="0139"/>
  <outline>
    <contour>
      <point x="169.494" y="763.971" type="line"/>
      <point x="223.117" y="790.399"/>
      <point x="276.741" y="817.828"/>
      <point x="330.364" y="849.256" type="curve"/>
      <point x="319.73" y="868.792"/>
      <point x="305.095" y="886.329"/>
      <point x="289.461" y="901.865" type="curve"/>
      <point x="247.139" y="861.234"/>
      <point x="204.816" y="816.602"/>
      <point x="162.494" y="770.971" type="curve"/>
    </contour>
    <contour>
      <point x="921.213" y="-111" type="line"/>
      <point x="756" y="-174"/>
      <point x="658.335" y="-161"/>
      <point x="250" y="-19" type="curve" smooth="yes"/>
      <point x="202.807" y="-3"/>
      <point x="202" y="22"/>
      <point x="201.915" y="49.6635" type="curve"/>
      <point x="201.915" y="627.078" type="line" smooth="yes"/>
      <point x="202.571" y="661.911"/>
      <point x="230.968" y="689.961"/>
      <point x="265.969" y="689.961" type="curve" smooth="yes"/>
      <point x="278.619" y="689.941" type="line"/>
      <point x="278.781" y="699.941" type="line"/>
      <point x="60" y="699.941" type="line"/>
      <point x="60.162" y="689.941" type="line"/>
      <point x="72.812" y="689.961" type="line" smooth="yes"/>
      <point x="107.813" y="689.961"/>
      <point x="136.21" y="661.911"/>
      <point x="136.866" y="627.078" type="curve" smooth="yes"/>
      <point x="136.866" y="72.8645" type="line" smooth="yes"/>
      <point x="136" y="37"/>
      <point x="107" y="10"/>
      <point x="73" y="10" type="curve" smooth="yes"/>
      <point x="60.1763" y="10" type="line"/>
      <point x="60.0153" y="0" type="line"/>
      <point x="117.318" y="-1"/>
      <point x="175.847" y="-22"/>
      <point x="236.311" y="-49" type="curve" smooth="yes"/>
      <point x="436.484" y="-138"/>
      <point x="657.871" y="-304"/>
      <point x="926.212" y="-119" type="curve"/>
    </contour>
  </outline>
</glyph>
<glyph name="lacute" format="1">
  <advance width="562"/>
  <unicode hex="013A"/>
  <outline>
    <contour>
      <point x="170.205" y="763.971" type="line"/>
      <point x="223.828" y="790.399"/>
      <point x="277.452" y="817.828"/>
      <point x="331.075" y="849.256" type="curve"/>
      <point x="320.441" y="868.792"/>
      <point x="305.806" y="886.329"/>
      <point x="290.172" y="901.865" type="curve"/>
      <point x="247.85" y="861.234"/>
      <point x="205.527" y="816.602"/>
      <point x="163.205" y="770.971" type="curve"/>
    </contour>
    <contour>
      <point x="522.86" y="161.543" type="line"/>
      <point x="491.991" y="85.405"/>
      <point x="451.298" y="30.592"/>
      <point x="345.335" y="30.592" type="curve" smooth="yes"/>
      <point x="201.915" y="30.592" type="line"/>
      <point x="201.915" y="627.077" type="line" smooth="yes"/>
      <point x="202.571" y="661.911"/>
      <point x="230.968" y="689.961"/>
      <point x="265.969" y="689.961" type="curve" smooth="yes"/>
      <point x="278.619" y="689.941" type="line"/>
      <point x="278.781" y="699.941" type="line"/>
      <point x="60" y="699.941" type="line"/>
      <point x="60.162" y="689.941" type="line"/>
      <point x="72.812" y="689.961" type="line" smooth="yes"/>
      <point x="107.813" y="689.961"/>
      <point x="136.21" y="661.911"/>
      <point x="136.866" y="627.077" type="curve" smooth="yes"/>
      <point x="136.866" y="72.864" type="line" smooth="yes"/>
      <point x="136.225" y="38.029"/>
      <point x="107.828" y="9.979"/>
      <point x="72.826" y="9.979" type="curve" smooth="yes"/>
      <point x="60.176" y="10" type="line"/>
      <point x="60.015" y="0" type="line"/>
      <point x="474.572" y="0" type="line"/>
      <point x="532.86" y="161.543" type="line"/>
    </contour>
  </outline>
</glyph>
<glyph name="Lslash" format="1">
  <advance width="443"/>
  <unicode hex="0141"/>
  <outline>
    <contour>
      <point x="921.213" y="-111" type="line"/>
      <point x="756" y="-174"/>
      <point x="658.335" y="-161"/>
      <point x="250" y="-19" type="curve" smooth="yes"/>
      <point x="202.807" y="-3"/>
      <point x="202" y="22"/>
      <point x="201.915" y="49.664" type="curve"/>
      <point x="201.915" y="321.183" type="line"/>
      <point x="383.547" y="426.252" type="line"/>
      <point x="368.526" y="452.221" type="line"/>
      <point x="201.915" y="355.841" type="line"/>
      <point x="201.915" y="627.077" type="line" smooth="yes"/>
      <point x="202.571" y="661.911"/>
      <point x="230.968" y="689.961"/>
      <point x="265.969" y="689.961" type="curve" smooth="yes"/>
      <point x="278.619" y="689.941" type="line"/>
      <point x="278.781" y="699.941" type="line"/>
      <point x="60" y="699.941" type="line"/>
      <point x="60.162" y="689.941" type="line"/>
      <point x="72.812" y="689.961" type="line" smooth="yes"/>
      <point x="107.813" y="689.961"/>
      <point x="136.21" y="661.911"/>
      <point x="136.866" y="627.077" type="curve" smooth="yes"/>
      <point x="136.885" y="318.224" type="line"/>
      <point x="60" y="273.748" type="line"/>
      <point x="75.021" y="247.779" type="line"/>
      <point x="136.885" y="283.565" type="line"/>
      <point x="136.885" y="72.864" type="line" smooth="yes"/>
      <point x="136" y="37"/>
      <point x="107" y="9.99999"/>
      <point x="73" y="9.99999" type="curve" smooth="yes"/>
      <point x="60.176" y="9.99999" type="line"/>
      <point x="60.015" y="0" type="line"/>
      <point x="117.318" y="-1"/>
      <point x="175.847" y="-22"/>
      <point x="236.311" y="-49" type="curve" smooth="yes"/>
      <point x="436.484" y="-138"/>
      <point x="657.871" y="-304"/>
      <point x="926.212" y="-119" type="curve"/>
    </contour>
    <contour>
      <point x="237.331" y="-110" type="move" name="bottom"/>
    </contour>
  </outline>
</glyph>
<glyph name="eng" format="1">
  <advance width="839"/>
  <unicode hex="014B"/>
  <outline>
    <contour>
      <point x="575.417" y="700" type="line"/>
      <point x="575.55" y="687.088" type="line"/>
      <point x="591.459" y="687.113" type="line" smooth="yes"/>
      <point x="620.543" y="687.116"/>
      <point x="644.134" y="663.8"/>
      <point x="644.678" y="634.857" type="curve" smooth="yes"/>
      <point x="644.703" y="134.435" type="line"/>
      <point x="100.1" y="715" type="line"/>
      <point x="90.239" y="714.991" type="line" smooth="yes"/>
      <point x="90.239" y="714.991"/>
      <point x="99.448" y="658.335"/>
      <point x="99.448" y="590.069" type="curve" smooth="yes"/>
      <point x="99.448" y="64.6383" type="line" smooth="yes"/>
      <point x="98.7375" y="35.8441"/>
      <point x="75.2111" y="12.7001"/>
      <point x="46.2359" y="12.7001" type="curve" smooth="yes"/>
      <point x="30.3239" y="12.7241" type="line"/>
      <point x="30.1909" y="0" type="line"/>
      <point x="214.041" y="0" type="line"/>
      <point x="213.908" y="12.7241" type="line"/>
      <point x="197.994" y="12.7001" type="line" smooth="yes"/>
      <point x="168.914" y="12.7001"/>
      <point x="145.321" y="36.0151"/>
      <point x="144.774" y="64.9571" type="curve"/>
      <point x="144.774" y="567.653" type="line"/>
      <point x="644.736" y="33.3204" type="line"/>
      <point x="644.736" y="-30" type="line" smooth="yes"/>
      <point x="644.74" y="-127"/>
      <point x="599.047" y="-174"/>
      <point x="557.127" y="-193" type="curve"/>
      <point x="562.435" y="-201" type="line"/>
      <point x="629.199" y="-187"/>
      <point x="690.12" y="-140"/>
      <point x="690.12" y="-32" type="curve" smooth="yes"/>
      <point x="690.12" y="635.086" type="line" smooth="yes"/>
      <point x="690.753" y="663.925"/>
      <point x="714.296" y="687.117"/>
      <point x="743.304" y="687.114" type="curve" smooth="yes"/>
      <point x="759.214" y="687.089" type="line"/>
      <point x="759.347" y="700" type="line"/>
    </contour>
  </outline>
</glyph>
<glyph name="omacron" format="1">
  <advance width="848"/>
  <unicode hex="014D"/>
  <outline>
    <contour>
      <point x="303.252" y="795.361" type="line"/>
      <point x="553.252" y="795.361" type="line"/>
      <point x="553.252" y="830.361" type="line"/>
      <point x="303.252" y="830.361" type="line"/>
    </contour>
    <contour>
      <point x="197.406" y="714"/>
      <point x="40" y="568.397"/>
      <point x="40" y="349.992" type="curve" smooth="yes"/>
      <point x="40" y="131.597"/>
      <point x="197.406" y="-14"/>
      <point x="424.432" y="-14" type="curve" smooth="yes"/>
      <point x="651.459" y="-14"/>
      <point x="808.865" y="131.597"/>
      <point x="808.865" y="349.992" type="curve" smooth="yes"/>
      <point x="808.865" y="568.397"/>
      <point x="651.459" y="714"/>
      <point x="424.432" y="714" type="curve" smooth="yes"/>
    </contour>
    <contour>
      <point x="240.408" y="15.925"/>
      <point x="117.403" y="149.552"/>
      <point x="117.403" y="349.992" type="curve" smooth="yes"/>
      <point x="117.403" y="550.442"/>
      <point x="240.408" y="684.075"/>
      <point x="424.432" y="684.075" type="curve" smooth="yes"/>
      <point x="608.457" y="684.075"/>
      <point x="731.462" y="550.442"/>
      <point x="731.462" y="349.992" type="curve" smooth="yes"/>
      <point x="731.462" y="149.552"/>
      <point x="608.457" y="15.925"/>
      <point x="424.432" y="15.925" type="curve" smooth="yes"/>
    </contour>
  </outline>
</glyph>
<glyph name="ohungarumlaut" format="1">
  <advance width="848"/>
  <unicode hex="0151"/>
  <outline>
    <contour>
      <point x="368.319" y="768.382" type="line"/>
      <point x="410.276" y="808.477"/>
      <point x="449.232" y="848.572"/>
      <point x="485.189" y="888.667" type="curve"/>
      <point x="465.888" y="896.87"/>
      <point x="444.587" y="900.073"/>
      <point x="424.286" y="901.276" type="curve"/>
      <point x="399.964" y="857.645"/>
      <point x="377.641" y="814.013"/>
      <point x="357.319" y="770.382" type="curve"/>
    </contour>
    <contour>
      <point x="490.545" y="768.382" type="line"/>
      <point x="533.502" y="807.477"/>
      <point x="571.458" y="848.572"/>
      <point x="607.415" y="888.667" type="curve"/>
      <point x="589.114" y="895.87"/>
      <point x="566.813" y="901.073"/>
      <point x="546.512" y="901.276" type="curve"/>
      <point x="519.19" y="857.645"/>
      <point x="497.867" y="814.013"/>
      <point x="479.545" y="770.382" type="curve"/>
    </contour>
    <contour>
      <point x="197.406" y="714"/>
      <point x="40" y="568.397"/>
      <point x="40" y="349.992" type="curve" smooth="yes"/>
      <point x="40" y="131.597"/>
      <point x="197.406" y="-14"/>
      <point x="424.432" y="-14" type="curve" smooth="yes"/>
      <point x="651.459" y="-14"/>
      <point x="808.865" y="131.597"/>
      <point x="808.865" y="349.992" type="curve" smooth="yes"/>
      <point x="808.865" y="568.397"/>
      <point x="651.459" y="714"/>
      <point x="424.432" y="714" type="curve" smooth="yes"/>
    </contour>
    <contour>
      <point x="240.408" y="15.925"/>
      <point x="117.403" y="149.552"/>
      <point x="117.403" y="349.992" type="curve" smooth="yes"/>
      <point x="117.403" y="550.442"/>
      <point x="240.408" y="684.075"/>
      <point x="424.432" y="684.075" type="curve" smooth="yes"/>
      <point x="608.457" y="684.075"/>
      <point x="731.462" y="550.442"/>
      <point x="731.462" y="349.992" type="curve" smooth="yes"/>
      <point x="731.462" y="149.552"/>
      <point x="608.457" y="15.925"/>
      <point x="424.432" y="15.925" type="curve" smooth="yes"/>
    </contour>
  </outline>
</glyph>
<glyph name="oe" format="1">
  <advance width="976"/>
  <unicode hex="0153"/>
  <outline>
    <contour>
      <point x="922.39" y="161.543" type="line"/>
      <point x="891.521" y="85.405"/>
      <point x="850.828" y="30.592"/>
      <point x="744.865" y="30.592" type="curve" smooth="yes"/>
      <point x="597.423" y="30.592" type="line"/>
      <point x="597.423" y="330.218" type="line"/>
      <point x="771.483" y="330.218" type="line"/>
      <point x="797.796" y="329.18"/>
      <point x="818.82" y="307.554"/>
      <point x="818.82" y="280.977" type="curve" smooth="yes"/>
      <point x="818.804" y="266.243" type="line"/>
      <point x="828.577" y="266.119" type="line"/>
      <point x="828.577" y="424.375" type="line"/>
      <point x="818.804" y="424.25" type="line"/>
      <point x="818.821" y="409.516" type="line" smooth="yes"/>
      <point x="818.821" y="382.593"/>
      <point x="797.243" y="360.753"/>
      <point x="770.449" y="360.248" type="curve" smooth="yes"/>
      <point x="597.423" y="360.218" type="line"/>
      <point x="597.423" y="669.409" type="line"/>
      <point x="803.316" y="669.409" type="line"/>
      <point x="834.555" y="667.511"/>
      <point x="859.31" y="641.615"/>
      <point x="859.31" y="609.891" type="curve" smooth="yes"/>
      <point x="859.291" y="592.067" type="line"/>
      <point x="871.391" y="591.917" type="line"/>
      <point x="871.356" y="718.187" type="line"/>
      <point x="852.797" y="710.366"/>
      <point x="795.224" y="700.407"/>
      <point x="752.125" y="700" type="curve" smooth="yes"/>
      <point x="595.005" y="700" type="line" smooth="yes"/>
      <point x="563.903" y="700"/>
      <point x="546.584" y="702.473"/>
      <point x="526.586" y="705.341" type="curve" smooth="yes"/>
      <point x="492.25" y="710.264"/>
      <point x="443.758" y="714"/>
      <point x="414.432" y="714" type="curve" smooth="yes"/>
      <point x="201.773" y="714"/>
      <point x="60" y="568.397"/>
      <point x="60" y="349.992" type="curve" smooth="yes"/>
      <point x="60" y="131.597"/>
      <point x="201.773" y="-14"/>
      <point x="414.432" y="-14" type="curve" smooth="yes"/>
      <point x="450.675" y="-14"/>
      <point x="520.846" y="-3"/>
      <point x="542.005" y="-2" type="curve" smooth="yes"/>
      <point x="570.295" y="0"/>
      <point x="582.541" y="0"/>
      <point x="595.634" y="0" type="curve" smooth="yes"/>
      <point x="874.102" y="0" type="line"/>
      <point x="932.39" y="161.543" type="line"/>
    </contour>
    <contour>
      <point x="536.402" y="64.203" type="line" smooth="yes"/>
      <point x="536.402" y="31.499"/>
      <point x="467.214" y="15.925"/>
      <point x="414.432" y="15.925" type="curve" smooth="yes"/>
      <point x="244.773" y="15.925"/>
      <point x="131.667" y="149.552"/>
      <point x="131.667" y="349.992" type="curve" smooth="yes"/>
      <point x="131.667" y="550.442"/>
      <point x="244.773" y="684.075"/>
      <point x="414.432" y="684.075" type="curve" smooth="yes"/>
      <point x="467.021" y="684.075"/>
      <point x="536.402" y="672.707"/>
      <point x="536.402" y="635.545" type="curve" smooth="yes"/>
    </contour>
    <contour>
      <point x="578" y="500" type="move" name="top"/>
    </contour>
  </outline>
</glyph>
<glyph name="Racute" format="1">
  <advance width="652"/>
  <unicode hex="0154"/>
  <outline>
    <contour>
      <point x="323.512" y="763.971" type="line"/>
      <point x="377.135" y="790.399"/>
      <point x="430.759" y="817.828"/>
      <point x="484.382" y="849.256" type="curve"/>
      <point x="473.748" y="868.792"/>
      <point x="459.113" y="886.329"/>
      <point x="443.479" y="901.865" type="curve"/>
      <point x="401.157" y="861.234"/>
      <point x="358.834" y="816.602"/>
      <point x="316.512" y="770.971" type="curve"/>
    </contour>
    <contour>
      <point x="60" y="700.245" type="line"/>
      <point x="60.162" y="690.06" type="line"/>
      <point x="72.812" y="690.08" type="line" smooth="yes"/>
      <point x="107.813" y="690.08"/>
      <point x="136.21" y="662.03"/>
      <point x="136.866" y="627.196" type="curve" smooth="yes"/>
      <point x="136.866" y="72.4669" type="line" smooth="yes"/>
      <point x="135.784" y="35.8136"/>
      <point x="105.881" y="10"/>
      <point x="73" y="10" type="curve" smooth="yes"/>
      <point x="60.202" y="10" type="line"/>
      <point x="60.041" y="0" type="line"/>
      <point x="278.498" y="0" type="line"/>
      <point x="278.337" y="10" type="line"/>
      <point x="266" y="10" type="line" smooth="yes"/>
      <point x="229" y="10"/>
      <point x="202" y="40"/>
      <point x="201.633" y="72.8643" type="curve"/>
      <point x="201.633" y="668.568" type="line"/>
      <point x="326" y="668.568" type="line" smooth="yes"/>
      <point x="408" y="668"/>
      <point x="447" y="601"/>
      <point x="450" y="516" type="curve" smooth="yes"/>
      <point x="451" y="486"/>
      <point x="447" y="467"/>
      <point x="444" y="456" type="curve" smooth="yes"/>
      <point x="419" y="364"/>
      <point x="330.91" y="355.42"/>
      <point x="288" y="352" type="curve" smooth="yes"/>
      <point x="262.903" y="350"/>
      <point x="239.95" y="351.594"/>
      <point x="234.9" y="351.594" type="curve"/>
      <point x="234.9" y="342.34" type="line"/>
      <point x="252" y="340"/>
      <point x="270.533" y="321.484"/>
      <point x="295" y="294" type="curve" smooth="yes"/>
      <point x="360.362" y="220.58"/>
      <point x="515.956" y="49.7795"/>
      <point x="564" y="-5" type="curve" smooth="yes"/>
      <point x="671" y="-127"/>
      <point x="786" y="-213"/>
      <point x="947.817" y="-170" type="curve"/>
      <point x="947.817" y="-160" type="line"/>
      <point x="821" y="-176"/>
      <point x="720" y="-73"/>
      <point x="617" y="36" type="curve" smooth="yes"/>
      <point x="504" y="155"/>
      <point x="441" y="230"/>
      <point x="355.306" y="321.392" type="curve"/>
      <point x="452" y="321"/>
      <point x="525" y="412"/>
      <point x="525" y="519" type="curve" smooth="yes"/>
      <point x="525" y="628"/>
      <point x="448" y="700.245"/>
      <point x="330" y="700.245" type="curve" smooth="yes"/>
    </contour>
  </outline>
</glyph>
<glyph name="scedilla" format="1">
  <advance width="476"/>
  <unicode hex="015F"/>
  <outline>
    <contour>
      <point x="171.266" y="476.809" type="line" smooth="yes"/>
      <point x="139.752" y="506"/>
      <point x="131" y="542.935"/>
      <point x="131" y="569" type="curve" smooth="yes"/>
      <point x="131" y="629.935"/>
      <point x="180.315" y="684"/>
      <point x="254" y="684" type="curve" smooth="yes"/>
      <point x="316.315" y="684"/>
      <point x="366.752" y="645"/>
      <point x="366.512" y="581.034" type="curve"/>
      <point x="376.141" y="581.034" type="line"/>
      <point x="376.13" y="703.741" type="line"/>
      <point x="336.511" y="703.741" type="line"/>
      <point x="309.953" y="709.529"/>
      <point x="276.999" y="714"/>
      <point x="250.752" y="714" type="curve" smooth="yes"/>
      <point x="136.752" y="714"/>
      <point x="75" y="629.288"/>
      <point x="75" y="545" type="curve" smooth="yes"/>
      <point x="75" y="506.288"/>
      <point x="88.7521" y="458"/>
      <point x="129.205" y="421.085" type="curve" smooth="yes"/>
      <point x="320.759" y="243.189" type="line" smooth="yes"/>
      <point x="345.752" y="220"/>
      <point x="360" y="189.083"/>
      <point x="360" y="150" type="curve" smooth="yes"/>
      <point x="360" y="70.0829"/>
      <point x="298.997" y="20.0549"/>
      <point x="226" y="15.9999" type="curve" smooth="yes"/>
      <point x="136.997" y="11.0549"/>
      <point x="71.7521" y="76.9999"/>
      <point x="81.8051" y="180.047" type="curve"/>
      <point x="73.0131" y="180.047" type="line"/>
      <point x="57.7801" y="135.21"/>
      <point x="54" y="71.5099"/>
      <point x="61.4531" y="40.6389" type="curve"/>
      <point x="98.483" y="2.34639"/>
      <point x="172.537" y="-12"/>
      <point x="221.958" y="-14" type="curve"/>
      <point x="176.202" y="-74" type="line"/>
      <point x="181.202" y="-84" type="line"/>
      <point x="216.832" y="-69"/>
      <point x="263.469" y="-75"/>
      <point x="264.968" y="-117" type="curve" smooth="yes"/>
      <point x="266.703" y="-165"/>
      <point x="215.949" y="-181"/>
      <point x="174.927" y="-181" type="curve"/>
      <point x="174.202" y="-191" type="line"/>
      <point x="241.226" y="-212"/>
      <point x="316.968" y="-181"/>
      <point x="314.968" y="-118" type="curve" smooth="yes"/>
      <point x="312.796" y="-49"/>
      <point x="245.11" y="-48"/>
      <point x="210.124" y="-60" type="curve"/>
      <point x="249.85" y="-13" type="line"/>
      <point x="353.694" y="-5"/>
      <point x="418" y="68.649"/>
      <point x="418" y="173" type="curve" smooth="yes"/>
      <point x="418" y="213.393"/>
      <point x="407.752" y="258"/>
      <point x="367.773" y="294.906" type="curve" smooth="yes"/>
    </contour>
  </outline>
</glyph>
<glyph name="Tcedilla" format="1">
  <advance width="618"/>
  <unicode hex="0162"/>
  <outline>
    <contour>
      <point x="68.033" y="701" type="line" smooth="yes"/>
      <point x="-65" y="701"/>
      <point x="-134" y="592.429"/>
      <point x="-59" y="501" type="curve"/>
      <point x="-51" y="506" type="line"/>
      <point x="-96" y="590.981"/>
      <point x="-39" y="671.02"/>
      <point x="68.033" y="671.02" type="curve" smooth="yes"/>
      <point x="276.731" y="671.02" type="line"/>
      <point x="276.731" y="71.2341" type="line"/>
      <point x="275.237" y="37.158"/>
      <point x="247.183" y="9.97859"/>
      <point x="212.728" y="9.97859" type="curve" smooth="yes"/>
      <point x="200.078" y="9.99959" type="line"/>
      <point x="199.917" y="0" type="line"/>
      <point x="298.481" y="0" type="line"/>
      <point x="251.144" y="-62" type="line"/>
      <point x="256.144" y="-72" type="line"/>
      <point x="291.774" y="-57"/>
      <point x="338.411" y="-63"/>
      <point x="339.91" y="-105" type="curve" smooth="yes"/>
      <point x="341.645" y="-153"/>
      <point x="290.891" y="-169"/>
      <point x="249.869" y="-169" type="curve"/>
      <point x="249.144" y="-179" type="line"/>
      <point x="316.168" y="-200"/>
      <point x="391.91" y="-169"/>
      <point x="389.91" y="-106" type="curve" smooth="yes"/>
      <point x="387.738" y="-37"/>
      <point x="320.052" y="-36"/>
      <point x="285.066" y="-48" type="curve"/>
      <point x="326.061" y="0" type="line"/>
      <point x="418.835" y="0" type="line"/>
      <point x="418.674" y="9.99959" type="line"/>
      <point x="406.024" y="9.97859" type="line" smooth="yes"/>
      <point x="371.291" y="9.97859"/>
      <point x="343.061" y="37.5998"/>
      <point x="341.99" y="72.063" type="curve"/>
      <point x="341.99" y="671.02" type="line"/>
      <point x="531.535" y="671.02" type="line"/>
      <point x="563.258" y="669.635"/>
      <point x="588.559" y="643.519"/>
      <point x="588.559" y="611.448" type="curve" smooth="yes"/>
      <point x="588.54" y="593.624" type="line"/>
      <point x="598.605" y="593.474" type="line"/>
      <point x="598.605" y="719.196" type="line"/>
      <point x="579.873" y="711.301"/>
      <point x="521.393" y="701.229"/>
      <point x="478.168" y="701" type="curve" smooth="yes"/>
    </contour>
  </outline>
</glyph>
<glyph name="tcedilla" format="1">
  <advance width="618"/>
  <unicode hex="0163"/>
  <outline>
    <contour>
      <point x="140.437" y="701" type="line" smooth="yes"/>
      <point x="97.2125" y="701.229"/>
      <point x="38.7322" y="711.301"/>
      <point x="19.9999" y="719.196" type="curve"/>
      <point x="19.9999" y="593.474" type="line"/>
      <point x="30.0649" y="593.624" type="line"/>
      <point x="30.0459" y="611.448" type="line"/>
      <point x="30.0459" y="643.519"/>
      <point x="55.3471" y="669.635"/>
      <point x="87.0703" y="671.02" type="curve"/>
      <point x="276.731" y="671.02" type="line"/>
      <point x="276.731" y="71.234" type="line"/>
      <point x="275.237" y="37.1579"/>
      <point x="247.183" y="9.97849"/>
      <point x="212.728" y="9.97849" type="curve" smooth="yes"/>
      <point x="200.078" y="9.99949" type="line"/>
      <point x="199.917" y="0" type="line"/>
      <point x="299.862" y="0" type="line"/>
      <point x="252.525" y="-62" type="line"/>
      <point x="257.525" y="-72" type="line"/>
      <point x="293.156" y="-57"/>
      <point x="339.793" y="-63"/>
      <point x="341.292" y="-105" type="curve" smooth="yes"/>
      <point x="343.027" y="-153"/>
      <point x="292.272" y="-169"/>
      <point x="251.251" y="-169" type="curve"/>
      <point x="250.526" y="-179" type="line"/>
      <point x="317.55" y="-200"/>
      <point x="393.291" y="-169"/>
      <point x="391.291" y="-106" type="curve" smooth="yes"/>
      <point x="389.119" y="-37"/>
      <point x="321.434" y="-36"/>
      <point x="286.448" y="-48" type="curve"/>
      <point x="327.443" y="0" type="line"/>
      <point x="418.835" y="0" type="line"/>
      <point x="418.674" y="9.99949" type="line"/>
      <point x="406.024" y="9.97849" type="line" smooth="yes"/>
      <point x="371.291" y="9.97849"/>
      <point x="343.061" y="37.5997"/>
      <point x="341.99" y="72.0629" type="curve"/>
      <point x="341.99" y="671.02" type="line"/>
      <point x="531.535" y="671.02" type="line"/>
      <point x="563.258" y="669.635"/>
      <point x="588.56" y="643.519"/>
      <point x="588.56" y="611.448" type="curve" smooth="yes"/>
      <point x="588.541" y="593.624" type="line"/>
      <point x="598.606" y="593.474" type="line"/>
      <point x="598.606" y="719.196" type="line"/>
      <point x="579.873" y="711.301"/>
      <point x="521.393" y="701.229"/>
      <point x="478.168" y="701" type="curve" smooth="yes"/>
    </contour>
  </outline>
</glyph>
<glyph name="Tbar" format="1">
  <advance width="618"/>
  <unicode hex="0166"/>
  <outline>
    <contour>
      <point x="68.033" y="701" type="line" smooth="yes"/>
      <point x="-65" y="701"/>
      <point x="-134" y="592.429"/>
      <point x="-59" y="501" type="curve"/>
      <point x="-51" y="506" type="line"/>
      <point x="-96" y="590.981"/>
      <point x="-39" y="671.02"/>
      <point x="68.033" y="671.02" type="curve" smooth="yes"/>
      <point x="276.731" y="671.02" type="line"/>
      <point x="276.731" y="386.058" type="line"/>
      <point x="116.268" y="386.058" type="line"/>
      <point x="116.268" y="356.058" type="line"/>
      <point x="276.731" y="356.058" type="line"/>
      <point x="276.731" y="71.2346" type="line"/>
      <point x="275.237" y="37.1585"/>
      <point x="247.183" y="9.9791"/>
      <point x="212.728" y="9.9791" type="curve" smooth="yes"/>
      <point x="200.078" y="10" type="line"/>
      <point x="199.917" y="0" type="line"/>
      <point x="418.835" y="0" type="line"/>
      <point x="418.674" y="10" type="line"/>
      <point x="406.024" y="9.9791" type="line" smooth="yes"/>
      <point x="371.291" y="9.9791"/>
      <point x="343.061" y="37.6003"/>
      <point x="341.99" y="72.0635" type="curve"/>
      <point x="341.99" y="356.058" type="line"/>
      <point x="504.012" y="356.058" type="line"/>
      <point x="504.012" y="386.058" type="line"/>
      <point x="341.99" y="386.058" type="line"/>
      <point x="341.99" y="671.02" type="line"/>
      <point x="531.535" y="671.02" type="line"/>
      <point x="563.258" y="669.635"/>
      <point x="588.559" y="643.52"/>
      <point x="588.559" y="611.448" type="curve" smooth="yes"/>
      <point x="588.54" y="593.624" type="line"/>
      <point x="598.605" y="593.474" type="line"/>
      <point x="598.605" y="719.196" type="line"/>
      <point x="579.873" y="711.301"/>
      <point x="521.392" y="701.229"/>
      <point x="478.168" y="701" type="curve" smooth="yes"/>
    </contour>
  </outline>
</glyph>
<glyph name="Uring" format="1">
  <advance width="783"/>
  <unicode hex="016E"/>
  <outline>
    <contour>
      <point x="368.459" y="914.284"/>
      <point x="328.029" y="883.173"/>
      <point x="328.029" y="839.32" type="curve" smooth="yes"/>
      <point x="328.029" y="795.467"/>
      <point x="368.459" y="764.357"/>
      <point x="421.832" y="764.357" type="curve" smooth="yes"/>
      <point x="475.206" y="764.357"/>
      <point x="515.636" y="795.467"/>
      <point x="515.636" y="839.32" type="curve" smooth="yes"/>
      <point x="515.636" y="886.481"/>
      <point x="475.206" y="914.284"/>
      <point x="421.832" y="914.284" type="curve" smooth="yes"/>
    </contour>
    <contour>
      <point x="449.482" y="897.128"/>
      <point x="470.838" y="876.529"/>
      <point x="470.838" y="839.32" type="curve" smooth="yes"/>
      <point x="470.838" y="802.112"/>
      <point x="449.482" y="781.513"/>
      <point x="421.833" y="781.513" type="curve" smooth="yes"/>
      <point x="394.183" y="781.513"/>
      <point x="372.827" y="802.112"/>
      <point x="372.827" y="839.32" type="curve" smooth="yes"/>
      <point x="372.827" y="876.529"/>
      <point x="394.183" y="897.128"/>
      <point x="421.833" y="897.128" type="curve" smooth="yes"/>
    </contour>
    <contour>
      <point x="619.31" y="247.399" type="line" smooth="yes"/>
      <point x="619.152" y="109.457"/>
      <point x="530.011" y="17.4954"/>
      <point x="396.423" y="17.4954" type="curve" smooth="yes"/>
      <point x="269.022" y="17.4954"/>
      <point x="184.088" y="114.614"/>
      <point x="184.088" y="260.292" type="curve" smooth="yes"/>
      <point x="184.088" y="642" type="line"/>
      <point x="185.312" y="669.975"/>
      <point x="208.433" y="690.017"/>
      <point x="236.814" y="690.017" type="curve" smooth="yes"/>
      <point x="253.11" y="690" type="line"/>
      <point x="253.11" y="700" type="line"/>
      <point x="50" y="700" type="line"/>
      <point x="50" y="690" type="line"/>
      <point x="66.2945" y="690.017" type="line" smooth="yes"/>
      <point x="95.1832" y="690.017"/>
      <point x="118.619" y="669.255"/>
      <point x="119.161" y="640.499" type="curve" smooth="yes"/>
      <point x="119.161" y="245.596" type="line" smooth="yes"/>
      <point x="119.097" y="89.8385"/>
      <point x="230.028" y="-14"/>
      <point x="396.423" y="-14" type="curve" smooth="yes"/>
      <point x="558.153" y="-14"/>
      <point x="665.959" y="90.5365"/>
      <point x="665.973" y="247.34" type="curve" smooth="yes"/>
      <point x="665.973" y="580.014" type="line" smooth="yes"/>
      <point x="666.018" y="766.99"/>
      <point x="761.205" y="861.64"/>
      <point x="903.969" y="861.64" type="curve"/>
      <point x="903.969" y="871.64" type="line"/>
      <point x="733.243" y="878.614"/>
      <point x="619.377" y="779.439"/>
      <point x="619.31" y="578.702" type="curve" smooth="yes"/>
    </contour>
  </outline>
</glyph>
<glyph name="uring" format="1">
  <advance width="785"/>
  <unicode hex="016F"/>
  <outline>
    <contour>
      <point x="348.459" y="914.284"/>
      <point x="308.029" y="883.173"/>
      <point x="308.029" y="839.32" type="curve" smooth="yes"/>
      <point x="308.029" y="795.467"/>
      <point x="348.459" y="764.357"/>
      <point x="401.832" y="764.357" type="curve" smooth="yes"/>
      <point x="455.206" y="764.357"/>
      <point x="495.636" y="795.467"/>
      <point x="495.636" y="839.32" type="curve" smooth="yes"/>
      <point x="495.636" y="886.481"/>
      <point x="455.206" y="914.284"/>
      <point x="401.832" y="914.284" type="curve" smooth="yes"/>
    </contour>
    <contour>
      <point x="429.482" y="897.128"/>
      <point x="450.838" y="876.529"/>
      <point x="450.838" y="839.32" type="curve" smooth="yes"/>
      <point x="450.838" y="802.112"/>
      <point x="429.482" y="781.513"/>
      <point x="401.833" y="781.513" type="curve" smooth="yes"/>
      <point x="374.183" y="781.513"/>
      <point x="352.827" y="802.112"/>
      <point x="352.827" y="839.32" type="curve" smooth="yes"/>
      <point x="352.827" y="876.529"/>
      <point x="374.183" y="897.128"/>
      <point x="401.833" y="897.128" type="curve" smooth="yes"/>
    </contour>
    <contour>
      <point x="550.182" y="700" type="line"/>
      <point x="550.182" y="690" type="line"/>
      <point x="566.477" y="690.017" type="line" smooth="yes"/>
      <point x="594.901" y="690.017"/>
      <point x="618.046" y="669.918"/>
      <point x="619.3" y="641.881" type="curve"/>
      <point x="619.3" y="247.399" type="line" smooth="yes"/>
      <point x="619.069" y="109.457"/>
      <point x="530.011" y="17.4953"/>
      <point x="396.423" y="17.4953" type="curve" smooth="yes"/>
      <point x="269.022" y="17.4953"/>
      <point x="184.088" y="114.614"/>
      <point x="184.088" y="260.292" type="curve" smooth="yes"/>
      <point x="184.088" y="642" type="line"/>
      <point x="185.312" y="669.975"/>
      <point x="208.433" y="690.018"/>
      <point x="236.814" y="690.018" type="curve" smooth="yes"/>
      <point x="253.11" y="690" type="line"/>
      <point x="253.11" y="700" type="line"/>
      <point x="50" y="700" type="line"/>
      <point x="50" y="690" type="line"/>
      <point x="66.295" y="690.018" type="line" smooth="yes"/>
      <point x="95.183" y="690.018"/>
      <point x="118.619" y="669.256"/>
      <point x="119.161" y="640.5" type="curve" smooth="yes"/>
      <point x="119.161" y="245.597" type="line" smooth="yes"/>
      <point x="119.097" y="89.8388"/>
      <point x="230.028" y="-14"/>
      <point x="396.423" y="-14" type="curve" smooth="yes"/>
      <point x="558.153" y="-14"/>
      <point x="665.973" y="90.5368"/>
      <point x="665.973" y="247.341" type="curve" smooth="yes"/>
      <point x="665.973" y="642.792" type="line"/>
      <point x="667.712" y="670.352"/>
      <point x="690.665" y="690.017"/>
      <point x="718.777" y="690.017" type="curve" smooth="yes"/>
      <point x="735.073" y="690" type="line"/>
      <point x="735.073" y="700" type="line"/>
    </contour>
  </outline>
</glyph>
<glyph name="Uogonek" format="1">
  <advance width="783"/>
  <unicode hex="0172"/>
  <outline>
    <contour>
      <point x="619.31" y="247.399" type="line" smooth="yes"/>
      <point x="619.152" y="109.457"/>
      <point x="530.011" y="17.4954"/>
      <point x="396.423" y="17.4954" type="curve" smooth="yes"/>
      <point x="269.022" y="17.4954"/>
      <point x="184.088" y="114.614"/>
      <point x="184.088" y="260.292" type="curve" smooth="yes"/>
      <point x="184.088" y="642" type="line"/>
      <point x="185.312" y="669.975"/>
      <point x="208.433" y="690.017"/>
      <point x="236.814" y="690.017" type="curve" smooth="yes"/>
      <point x="253.11" y="690" type="line"/>
      <point x="253.11" y="700" type="line"/>
      <point x="50" y="700" type="line"/>
      <point x="50" y="690" type="line"/>
      <point x="66.2945" y="690.017" type="line" smooth="yes"/>
      <point x="95.1832" y="690.017"/>
      <point x="118.619" y="669.256"/>
      <point x="119.161" y="640.5" type="curve" smooth="yes"/>
      <point x="119.161" y="245.596" type="line" smooth="yes"/>
      <point x="119.098" y="90.7033"/>
      <point x="228.8" y="-13"/>
      <point x="393.657" y="-14" type="curve"/>
      <point x="353.949" y="-28"/>
      <point x="325.416" y="-60"/>
      <point x="325.875" y="-99" type="curve" smooth="yes"/>
      <point x="327.199" y="-215"/>
      <point x="469.665" y="-218"/>
      <point x="499.888" y="-136" type="curve"/>
      <point x="493.888" y="-130" type="line"/>
      <point x="444.76" y="-181"/>
      <point x="373.918" y="-145"/>
      <point x="371.918" y="-88" type="curve" smooth="yes"/>
      <point x="370.634" y="-51"/>
      <point x="389.967" y="-25"/>
      <point x="442.243" y="-11" type="curve"/>
      <point x="578.194" y="6.93108"/>
      <point x="665.961" y="105.86"/>
      <point x="665.973" y="247.34" type="curve" smooth="yes"/>
      <point x="665.973" y="580.014" type="line" smooth="yes"/>
      <point x="666.018" y="766.989"/>
      <point x="761.205" y="861.639"/>
      <point x="903.969" y="861.639" type="curve"/>
      <point x="903.969" y="871.639" type="line"/>
      <point x="733.243" y="878.613"/>
      <point x="619.377" y="779.438"/>
      <point x="619.31" y="578.702" type="curve" smooth="yes"/>
    </contour>
  </outline>
</glyph>
<glyph name="Ycircumflex" format="1">
  <advance width="618"/>
  <unicode hex="0176"/>
  <outline>
    <contour>
      <point x="325.905" y="889.736" type="line"/>
      <point x="335.905" y="889.736" type="line"/>
      <point x="450.08" y="770.884" type="line"/>
      <point x="444.08" y="762.884" type="line"/>
      <point x="330.435" y="828.98" type="line"/>
      <point x="225.775" y="762.98" type="line"/>
      <point x="219.775" y="770.98" type="line"/>
    </contour>
    <contour>
      <point x="-40" y="747.139" type="line"/>
      <point x="125.856" y="747.139"/>
      <point x="284.572" y="397.808"/>
      <point x="284.572" y="221.296" type="curve" smooth="yes"/>
      <point x="284.572" y="72.234" type="line" smooth="yes"/>
      <point x="283.65" y="37.6632"/>
      <point x="254.795" y="9.99972"/>
      <point x="221" y="9.99972" type="curve" smooth="yes"/>
      <point x="207.882" y="9.99972" type="line"/>
      <point x="207.721" y="0" type="line"/>
      <point x="426.468" y="0" type="line"/>
      <point x="426.307" y="9.99972" type="line"/>
      <point x="414" y="9.99972" type="line" smooth="yes"/>
      <point x="377" y="9.99972"/>
      <point x="350" y="39.9997"/>
      <point x="349.603" y="72.8637" type="curve"/>
      <point x="349.603" y="220.367" type="line"/>
      <point x="349.59" y="385.23"/>
      <point x="500.423" y="747.139"/>
      <point x="658.831" y="747.139" type="curve"/>
      <point x="658.831" y="757.139" type="line"/>
      <point x="461.831" y="757.139"/>
      <point x="387.058" y="532.384"/>
      <point x="328.037" y="375.779" type="curve"/>
      <point x="278.265" y="511.504"/>
      <point x="204.888" y="767.139"/>
      <point x="-40" y="757.139" type="curve"/>
    </contour>
  </outline>
</glyph>
<glyph name="ycircumflex" format="1">
  <advance width="661"/>
  <unicode hex="0177"/>
  <outline>
    <contour>
      <point x="338.271" y="889.736" type="line"/>
      <point x="348.271" y="889.736" type="line"/>
      <point x="462.446" y="770.884" type="line"/>
      <point x="456.446" y="762.884" type="line"/>
      <point x="342.801" y="828.98" type="line"/>
      <point x="238.141" y="762.98" type="line"/>
      <point x="232.141" y="770.98" type="line"/>
    </contour>
    <contour>
      <point x="449.868" y="700.017" type="line"/>
      <point x="449.868" y="689.993" type="line"/>
      <point x="462.468" y="689.993" type="line" smooth="yes"/>
      <point x="489.414" y="689.993"/>
      <point x="513.609" y="657.132"/>
      <point x="498.051" y="628.967" type="curve" smooth="yes"/>
      <point x="497.524" y="628.04" type="line"/>
      <point x="338.151" y="348.103" type="line"/>
      <point x="188.308" y="627.953" type="line" smooth="yes"/>
      <point x="173.594" y="656.339"/>
      <point x="194.051" y="690.035"/>
      <point x="223.324" y="690.035" type="curve" smooth="yes"/>
      <point x="235.923" y="690.035" type="line"/>
      <point x="235.923" y="700" type="line"/>
      <point x="-10" y="700" type="line"/>
      <point x="-10" y="690.035" type="line"/>
      <point x="3.63201" y="690.035" type="line" smooth="yes"/>
      <point x="45.4481" y="690.035"/>
      <point x="84.8065" y="662.318"/>
      <point x="104.175" y="631.606" type="curve" smooth="yes"/>
      <point x="294.572" y="313.296" type="line"/>
      <point x="294.572" y="72.2765" type="line" smooth="yes"/>
      <point x="293.611" y="37.7143"/>
      <point x="265.337" y="9.97923"/>
      <point x="230.532" y="9.97923" type="curve" smooth="yes"/>
      <point x="217.882" y="10" type="line"/>
      <point x="217.721" y="0" type="line"/>
      <point x="436.468" y="0" type="line"/>
      <point x="436.307" y="10" type="line"/>
      <point x="423.657" y="9.97923" type="line" smooth="yes"/>
      <point x="388.655" y="9.97923"/>
      <point x="360.258" y="38.0292"/>
      <point x="359.603" y="72.8642" type="curve"/>
      <point x="359.603" y="312.295" type="line"/>
      <point x="557.331" y="631.92" type="line"/>
      <point x="578.69" y="662.513"/>
      <point x="615.961" y="689.993"/>
      <point x="657.64" y="689.993" type="curve" smooth="yes"/>
      <point x="671.64" y="689.993" type="line"/>
      <point x="671.64" y="700.017" type="line"/>
    </contour>
  </outline>
</glyph>
<glyph name="Ydieresis" format="1">
  <advance width="618"/>
  <unicode hex="0178"/>
  <outline>
    <contour>
      <point x="258.493" y="764.096"/>
      <point x="275.988" y="781.591"/>
      <point x="275.988" y="803.174" type="curve" smooth="yes"/>
      <point x="275.988" y="824.757"/>
      <point x="258.493" y="842.253"/>
      <point x="236.91" y="842.253" type="curve" smooth="yes"/>
      <point x="215.327" y="842.253"/>
      <point x="197.832" y="824.757"/>
      <point x="197.832" y="803.174" type="curve" smooth="yes"/>
      <point x="197.832" y="781.591"/>
      <point x="215.327" y="764.096"/>
      <point x="236.91" y="764.096" type="curve" smooth="yes"/>
    </contour>
    <contour>
      <point x="446.867" y="764.096"/>
      <point x="464.362" y="781.591"/>
      <point x="464.362" y="803.174" type="curve" smooth="yes"/>
      <point x="464.362" y="824.757"/>
      <point x="446.867" y="842.253"/>
      <point x="425.284" y="842.253" type="curve" smooth="yes"/>
      <point x="403.701" y="842.253"/>
      <point x="386.206" y="824.757"/>
      <point x="386.206" y="803.174" type="curve" smooth="yes"/>
      <point x="386.206" y="781.591"/>
      <point x="403.701" y="764.096"/>
      <point x="425.284" y="764.096" type="curve" smooth="yes"/>
    </contour>
    <contour>
      <point x="-40" y="747.139" type="line"/>
      <point x="125.856" y="747.139"/>
      <point x="284.572" y="397.808"/>
      <point x="284.572" y="221.296" type="curve" smooth="yes"/>
      <point x="284.572" y="72.234" type="line" smooth="yes"/>
      <point x="283.65" y="37.6632"/>
      <point x="254.795" y="9.99972"/>
      <point x="221" y="9.99972" type="curve" smooth="yes"/>
      <point x="207.882" y="9.99972" type="line"/>
      <point x="207.721" y="0" type="line"/>
      <point x="426.468" y="0" type="line"/>
      <point x="426.307" y="9.99972" type="line"/>
      <point x="414" y="9.99972" type="line" smooth="yes"/>
      <point x="377" y="9.99972"/>
      <point x="350" y="39.9997"/>
      <point x="349.603" y="72.8637" type="curve"/>
      <point x="349.603" y="220.367" type="line"/>
      <point x="349.59" y="385.23"/>
      <point x="500.423" y="747.139"/>
      <point x="658.831" y="747.139" type="curve"/>
      <point x="658.831" y="757.139" type="line"/>
      <point x="461.831" y="757.139"/>
      <point x="387.058" y="532.384"/>
      <point x="328.037" y="375.779" type="curve"/>
      <point x="278.265" y="511.504"/>
      <point x="204.888" y="767.139"/>
      <point x="-40" y="757.139" type="curve"/>
    </contour>
  </outline>
</glyph>
<glyph name="Zacute" format="1">
  <advance width="636"/>
  <unicode hex="0179"/>
  <outline>
    <contour>
      <point x="323.933" y="763.97" type="line"/>
      <point x="377.556" y="790.398"/>
      <point x="431.18" y="817.827"/>
      <point x="484.803" y="849.255" type="curve"/>
      <point x="474.169" y="868.791"/>
      <point x="459.534" y="886.328"/>
      <point x="443.9" y="901.864" type="curve"/>
      <point x="401.578" y="861.233"/>
      <point x="359.255" y="816.601"/>
      <point x="316.933" y="770.97" type="curve"/>
    </contour>
    <contour>
      <point x="991.213" y="-81" type="line"/>
      <point x="811" y="-158"/>
      <point x="660.776" y="-154"/>
      <point x="250" y="-19" type="curve" smooth="yes"/>
      <point x="210.167" y="-6"/>
      <point x="177.983" y="5.97848"/>
      <point x="143.281" y="15.3347" type="curve"/>
      <point x="579.594" y="705.328" type="line"/>
      <point x="579.594" y="714" type="line"/>
      <point x="567.791" y="707.817"/>
      <point x="513.843" y="701.098"/>
      <point x="473.627" y="701.098" type="curve" smooth="yes"/>
      <point x="194.578" y="701.098" type="line" smooth="yes"/>
      <point x="153.272" y="700.997"/>
      <point x="92.5765" y="711.493"/>
      <point x="74.3011" y="719.196" type="curve"/>
      <point x="74.3011" y="689.918" type="line"/>
      <point x="74.3481" y="673.565" type="line"/>
      <point x="74.3481" y="593.264" type="line"/>
      <point x="84.3661" y="593.414" type="line"/>
      <point x="84.3471" y="611.238" type="line"/>
      <point x="84.3471" y="643.797"/>
      <point x="110.423" y="670.217"/>
      <point x="142.823" y="670.856" type="curve" smooth="yes"/>
      <point x="480.248" y="670.856" type="line"/>
      <point x="60.1846" y="9.32156" type="line"/>
      <point x="60" y="0" type="line"/>
      <point x="72.4726" y="0" type="line"/>
      <point x="227.481" y="-10"/>
      <point x="752.185" y="-373"/>
      <point x="996.212" y="-89" type="curve"/>
    </contour>
  </outline>
</glyph>
<glyph name="zacute" format="1">
  <advance width="651"/>
  <unicode hex="017A"/>
  <outline>
    <contour>
      <point x="323.933" y="763.971" type="line"/>
      <point x="377.556" y="790.399"/>
      <point x="431.18" y="817.828"/>
      <point x="484.803" y="849.256" type="curve"/>
      <point x="474.169" y="868.792"/>
      <point x="459.534" y="886.329"/>
      <point x="443.9" y="901.865" type="curve"/>
      <point x="401.578" y="861.234"/>
      <point x="359.255" y="816.602"/>
      <point x="316.933" y="770.971" type="curve"/>
    </contour>
    <contour>
      <point x="606.845" y="154.443" type="line"/>
      <point x="587.87" y="84.6837"/>
      <point x="544.789" y="29.9059"/>
      <point x="470.401" y="29.7339" type="curve" smooth="yes"/>
      <point x="152.386" y="29.7339" type="line"/>
      <point x="579.594" y="705.328" type="line"/>
      <point x="579.594" y="714" type="line"/>
      <point x="567.791" y="707.817"/>
      <point x="513.843" y="701.098"/>
      <point x="473.627" y="701.098" type="curve" smooth="yes"/>
      <point x="194.578" y="701.098" type="line" smooth="yes"/>
      <point x="153.272" y="700.997"/>
      <point x="92.5767" y="711.494"/>
      <point x="74.3013" y="719.196" type="curve"/>
      <point x="74.3013" y="689.918" type="line"/>
      <point x="74.3483" y="673.565" type="line"/>
      <point x="74.3483" y="593.264" type="line"/>
      <point x="84.3663" y="593.414" type="line"/>
      <point x="84.3473" y="611.238" type="line"/>
      <point x="84.3473" y="643.797"/>
      <point x="110.424" y="670.218"/>
      <point x="142.823" y="670.856" type="curve" smooth="yes"/>
      <point x="480.248" y="670.856" type="line"/>
      <point x="60.1848" y="9.32182" type="line"/>
      <point x="60" y="0" type="line"/>
      <point x="583.69" y="0" type="line"/>
      <point x="616.845" y="154.443" type="line"/>
    </contour>
  </outline>
</glyph>
<glyph name="Zdotaccent" format="1">
  <advance width="636"/>
  <unicode hex="017B"/>
  <outline>
    <contour>
      <point x="346.407" y="764.595"/>
      <point x="365.699" y="783.887"/>
      <point x="365.699" y="807.685" type="curve" smooth="yes"/>
      <point x="365.699" y="831.483"/>
      <point x="346.407" y="850.775"/>
      <point x="322.609" y="850.775" type="curve" smooth="yes"/>
      <point x="298.811" y="850.775"/>
      <point x="279.519" y="831.483"/>
      <point x="279.519" y="807.685" type="curve" smooth="yes"/>
      <point x="279.519" y="783.887"/>
      <point x="298.811" y="764.595"/>
      <point x="322.609" y="764.595" type="curve" smooth="yes"/>
    </contour>
    <contour>
      <point x="991.213" y="-81" type="line"/>
      <point x="811" y="-158"/>
      <point x="660.776" y="-154"/>
      <point x="250" y="-19" type="curve" smooth="yes"/>
      <point x="210.167" y="-6"/>
      <point x="177.983" y="5.97848"/>
      <point x="143.281" y="15.3347" type="curve"/>
      <point x="579.594" y="705.328" type="line"/>
      <point x="579.594" y="714" type="line"/>
      <point x="567.791" y="707.817"/>
      <point x="513.843" y="701.098"/>
      <point x="473.627" y="701.098" type="curve" smooth="yes"/>
      <point x="194.578" y="701.098" type="line" smooth="yes"/>
      <point x="153.272" y="700.997"/>
      <point x="92.5765" y="711.493"/>
      <point x="74.3011" y="719.196" type="curve"/>
      <point x="74.3011" y="689.918" type="line"/>
      <point x="74.3481" y="673.565" type="line"/>
      <point x="74.3481" y="593.264" type="line"/>
      <point x="84.3661" y="593.414" type="line"/>
      <point x="84.3471" y="611.238" type="line"/>
      <point x="84.3471" y="643.797"/>
      <point x="110.423" y="670.217"/>
      <point x="142.823" y="670.856" type="curve" smooth="yes"/>
      <point x="480.248" y="670.856" type="line"/>
      <point x="60.1846" y="9.32156" type="line"/>
      <point x="60" y="0" type="line"/>
      <point x="72.4726" y="0" type="line"/>
      <point x="227.481" y="-10"/>
      <point x="752.185" y="-373"/>
      <point x="996.212" y="-89" type="curve"/>
    </contour>
  </outline>
</glyph>
<glyph name="Scommaaccent" format="1">
  <advance width="549"/>
  <unicode hex="0218"/>
  <outline>
    <contour>
      <point x="217.702" y="476.869" type="line" smooth="yes"/>
      <point x="185" y="503"/>
      <point x="174" y="536"/>
      <point x="174" y="567" type="curve" smooth="yes"/>
      <point x="174" y="633"/>
      <point x="223" y="684"/>
      <point x="295" y="684" type="curve" smooth="yes"/>
      <point x="356" y="684"/>
      <point x="410" y="648"/>
      <point x="411.129" y="581.094" type="curve"/>
      <point x="420.758" y="581.094" type="line"/>
      <point x="418.605" y="703.801" type="line"/>
      <point x="379.139" y="703.801" type="line"/>
      <point x="350.892" y="709.909"/>
      <point x="316.946" y="714"/>
      <point x="292" y="714" type="curve" smooth="yes"/>
      <point x="179" y="714"/>
      <point x="118" y="629"/>
      <point x="118" y="547" type="curve" smooth="yes"/>
      <point x="118" y="511"/>
      <point x="130" y="458"/>
      <point x="176.614" y="421.145" type="curve" smooth="yes"/>
      <point x="357.128" y="279.251" type="line" smooth="yes"/>
      <point x="515" y="154"/>
      <point x="442" y="-58"/>
      <point x="255.003" y="-58" type="curve" smooth="yes"/>
      <point x="82" y="-58"/>
      <point x="9" y="122"/>
      <point x="118.999" y="265.56" type="curve"/>
      <point x="109.999" y="272.56" type="line"/>
      <point x="-27" y="126"/>
      <point x="52" y="-94"/>
      <point x="272.409" y="-94" type="curve" smooth="yes"/>
      <point x="516" y="-94"/>
      <point x="603" y="173"/>
      <point x="403.239" y="330.968" type="curve" smooth="yes"/>
    </contour>
    <contour>
      <point x="247.368" y="-284" type="line"/>
      <point x="299.606" y="-281"/>
      <point x="341.702" y="-225"/>
      <point x="314.63" y="-164" type="curve" smooth="yes"/>
      <point x="300.528" y="-131"/>
      <point x="261.614" y="-134"/>
      <point x="251.826" y="-157" type="curve" smooth="yes"/>
      <point x="243.215" y="-177"/>
      <point x="260.366" y="-191"/>
      <point x="271.015" y="-204" type="curve" smooth="yes"/>
      <point x="284.974" y="-219"/>
      <point x="293.667" y="-261"/>
      <point x="245.295" y="-277" type="curve"/>
    </contour>
  </outline>
</glyph>
<glyph name="Tcommaaccent" format="1">
  <advance width="618"/>
  <unicode hex="021A"/>
  <outline>
    <contour>
      <point x="68.033" y="701" type="line" smooth="yes"/>
      <point x="-65" y="701"/>
      <point x="-134" y="592.429"/>
      <point x="-59" y="501" type="curve"/>
      <point x="-51" y="506" type="line"/>
      <point x="-96" y="590.981"/>
      <point x="-39" y="671.02"/>
      <point x="68.033" y="671.02" type="curve" smooth="yes"/>
      <point x="276.731" y="671.02" type="line"/>
      <point x="276.731" y="71.2341" type="line"/>
      <point x="275.237" y="37.158"/>
      <point x="247.183" y="9.97859"/>
      <point x="212.728" y="9.97859" type="curve" smooth="yes"/>
      <point x="200.078" y="9.99959" type="line"/>
      <point x="199.917" y="0" type="line"/>
      <point x="418.835" y="0" type="line"/>
      <point x="418.674" y="9.99959" type="line"/>
      <point x="406.024" y="9.97859" type="line" smooth="yes"/>
      <point x="371.291" y="9.97859"/>
      <point x="343.061" y="37.5998"/>
      <point x="341.99" y="72.063" type="curve"/>
      <point x="341.99" y="671.02" type="line"/>
      <point x="531.535" y="671.02" type="line"/>
      <point x="563.258" y="669.635"/>
      <point x="588.559" y="643.519"/>
      <point x="588.559" y="611.448" type="curve" smooth="yes"/>
      <point x="588.54" y="593.624" type="line"/>
      <point x="598.605" y="593.474" type="line"/>
      <point x="598.605" y="719.196" type="line"/>
      <point x="579.873" y="711.301"/>
      <point x="521.393" y="701.229"/>
      <point x="478.168" y="701" type="curve" smooth="yes"/>
    </contour>
    <contour>
      <point x="276.425" y="-207" type="line"/>
      <point x="328.663" y="-205"/>
      <point x="370.759" y="-149"/>
      <point x="343.687" y="-87" type="curve" smooth="yes"/>
      <point x="329.585" y="-55"/>
      <point x="290.671" y="-57"/>
      <point x="280.883" y="-80" type="curve" smooth="yes"/>
      <point x="272.272" y="-100"/>
      <point x="289.423" y="-114"/>
      <point x="300.072" y="-127" type="curve" smooth="yes"/>
      <point x="314.031" y="-143"/>
      <point x="322.724" y="-185"/>
      <point x="274.352" y="-200" type="curve"/>
    </contour>
  </outline>
</glyph>
<glyph name="mu" format="1">
  <advance width="931"/>
  <unicode hex="03BC"/>
  <outline>
    <contour>
      <point x="749.744" y="713.697" type="line"/>
      <point x="740.602" y="713.697" type="line"/>
      <point x="467.786" y="110.599" type="line"/>
      <point x="188.71" y="714" type="line"/>
      <point x="179.433" y="714" type="line"/>
      <point x="104.218" y="72.6449" type="line" smooth="yes"/>
      <point x="99.082" y="33.1129"/>
      <point x="67.078" y="9.9909"/>
      <point x="31.328" y="9.9909" type="curve" smooth="yes"/>
      <point x="15.414" y="9.9999" type="line"/>
      <point x="15.414" y="0" type="line"/>
      <point x="209.081" y="0" type="line"/>
      <point x="209.081" y="9.4449" type="line"/>
      <point x="193.5" y="9.4449" type="line" smooth="yes"/>
      <point x="171.956" y="9.4899"/>
      <point x="152.575" y="30.5902"/>
      <point x="154.511" y="52.1449" type="curve" smooth="yes"/>
      <point x="198.403" y="540.843" type="line"/>
      <point x="454.147" y="-14" type="line"/>
      <point x="463.569" y="-14" type="line"/>
      <point x="470.023" y="27.3871"/>
      <point x="497.886" y="88.1101"/>
      <point x="497.886" y="88.1101" type="curve"/>
      <point x="708.044" y="555.35" type="line"/>
      <point x="753.372" y="52.1451" type="line" smooth="yes"/>
      <point x="755.408" y="29.5461"/>
      <point x="735.927" y="9.49008"/>
      <point x="714.384" y="9.44508" type="curve" smooth="yes"/>
      <point x="698.802" y="9.44508" type="line"/>
      <point x="698.802" y="0" type="line"/>
      <point x="916.18" y="0" type="line"/>
      <point x="916.18" y="10" type="line"/>
      <point x="900.266" y="9.99108" type="line" smooth="yes"/>
      <point x="864.516" y="9.99108"/>
      <point x="832.512" y="33.1131"/>
      <point x="827.383" y="72.6449" type="curve" smooth="yes"/>
    </contour>
  </outline>
</glyph>
<glyph name="pi" format="1">
  <advance width="703"/>
  <unicode hex="03C0"/>
  <outline>
    <contour>
      <point x="648.801" y="9.9999" type="line"/>
      <point x="637.896" y="9.9789" type="line" smooth="yes"/>
      <point x="607.972" y="9.9789"/>
      <point x="583.647" y="33.7644"/>
      <point x="582.696" y="63.4488" type="curve"/>
      <point x="582.696" y="537.425" type="line"/>
      <point x="584.092" y="566.701"/>
      <point x="608.231" y="590.021"/>
      <point x="637.861" y="590.021" type="curve" smooth="yes"/>
      <point x="648.766" y="590" type="line"/>
      <point x="648.905" y="600" type="line"/>
      <point x="54.9999" y="600" type="line"/>
      <point x="55.1389" y="590" type="line"/>
      <point x="66.0439" y="590.021" type="line" smooth="yes"/>
      <point x="96.2181" y="590.021"/>
      <point x="120.699" y="565.837"/>
      <point x="121.263" y="535.807" type="curve" smooth="yes"/>
      <point x="121.296" y="64.1019" type="line" smooth="yes"/>
      <point x="120.683" y="34.1139"/>
      <point x="96.2226" y="9.9788"/>
      <point x="66.0788" y="9.9788" type="curve" smooth="yes"/>
      <point x="55.1737" y="9.9997" type="line"/>
      <point x="55.0349" y="0" type="line"/>
      <point x="251.587" y="0" type="line"/>
      <point x="251.448" y="9.9997" type="line"/>
      <point x="240.543" y="9.9787" type="line" smooth="yes"/>
      <point x="210.618" y="9.9787"/>
      <point x="186.293" y="33.7644"/>
      <point x="185.343" y="63.4492" type="curve"/>
      <point x="185.343" y="517.427" type="line"/>
      <point x="186.714" y="546.225"/>
      <point x="210.041" y="570"/>
      <point x="238.979" y="570" type="curve" smooth="yes"/>
      <point x="464.926" y="570" type="line" smooth="yes"/>
      <point x="494.405" y="570"/>
      <point x="518.062" y="545.328"/>
      <point x="518.616" y="515.807" type="curve" smooth="yes"/>
      <point x="518.649" y="64.1018" type="line" smooth="yes"/>
      <point x="518.036" y="34.114"/>
      <point x="493.575" y="9.97881"/>
      <point x="463.432" y="9.97881" type="curve" smooth="yes"/>
      <point x="452.527" y="9.99981" type="line"/>
      <point x="452.388" y="0" type="line"/>
      <point x="648.94" y="0" type="line"/>
    </contour>
  </outline>
</glyph>
<glyph name="wacute" format="1">
  <advance width="982"/>
  <unicode hex="1E83"/>
  <outline>
    <contour>
      <point x="507.082" y="773.972" type="line"/>
      <point x="560.705" y="800.4"/>
      <point x="614.329" y="827.829"/>
      <point x="667.952" y="859.257" type="curve"/>
      <point x="657.318" y="878.793"/>
      <point x="642.683" y="896.33"/>
      <point x="627.049" y="911.866" type="curve"/>
      <point x="584.727" y="871.235"/>
      <point x="542.404" y="826.603"/>
      <point x="500.082" y="780.972" type="curve"/>
    </contour>
    <contour>
      <point x="794.803" y="700" type="line"/>
      <point x="794.803" y="690.093" type="line"/>
      <point x="803.595" y="690.093" type="line" smooth="yes"/>
      <point x="830.803" y="690.093"/>
      <point x="852.24" y="668.812"/>
      <point x="842.309" y="630.432" type="curve" smooth="yes"/>
      <point x="708.397" y="162.156" type="line"/>
      <point x="511.183" y="715.321" type="line"/>
      <point x="501.87" y="715.642" type="line"/>
      <point x="315.666" y="141.939" type="line"/>
      <point x="164.398" y="628.627" type="line" smooth="yes"/>
      <point x="152.615" y="667.948"/>
      <point x="177.867" y="690.087"/>
      <point x="203.442" y="690.087" type="curve" smooth="yes"/>
      <point x="212.234" y="690.087" type="line"/>
      <point x="212.234" y="700" type="line"/>
      <point x="-10" y="700" type="line"/>
      <point x="-10" y="690" type="line"/>
      <point x="-2" y="690" type="line" smooth="yes"/>
      <point x="28.6411" y="690"/>
      <point x="69.071" y="672.466"/>
      <point x="85.6524" y="629.023" type="curve" smooth="yes"/>
      <point x="312.596" y="-12" type="line"/>
      <point x="322.032" y="-12" type="line"/>
      <point x="323.678" y="37.1503"/>
      <point x="342.993" y="99.1573"/>
      <point x="342.993" y="99.1573" type="curve"/>
      <point x="494.496" y="559.826" type="line"/>
      <point x="698.988" y="-12" type="line"/>
      <point x="708.424" y="-12" type="line"/>
      <point x="709.955" y="35.6253"/>
      <point x="730.285" y="99.1573"/>
      <point x="730.285" y="99.1573" type="curve"/>
      <point x="895.869" y="628.034" type="line" smooth="yes"/>
      <point x="911.233" y="672.194"/>
      <point x="953.097" y="690"/>
      <point x="983.622" y="690" type="curve" smooth="yes"/>
      <point x="992.413" y="690" type="line"/>
      <point x="992.412" y="700" type="line"/>
    </contour>
  </outline>
</glyph>
<glyph name="Wdieresis" format="1">
  <advance width="954"/>
  <unicode hex="1E84"/>
  <outline>
    <contour>
      <point x="708.943" y="160.623" type="line"/>
      <point x="511.182" y="715.321" type="line"/>
      <point x="501.869" y="715.642" type="line"/>
      <point x="315.665" y="141.939" type="line"/>
      <point x="164.397" y="628.627" type="line" smooth="yes"/>
      <point x="152.614" y="667.948"/>
      <point x="177.867" y="690.087"/>
      <point x="203.442" y="690.087" type="curve" smooth="yes"/>
      <point x="212.234" y="690.087" type="line"/>
      <point x="212.234" y="700" type="line"/>
      <point x="-10" y="700" type="line"/>
      <point x="-10" y="690" type="line"/>
      <point x="-2" y="690" type="line" smooth="yes"/>
      <point x="28.6402" y="690"/>
      <point x="69.0696" y="672.466"/>
      <point x="85.6513" y="629.024" type="curve" smooth="yes"/>
      <point x="287.906" y="57.7353" type="line"/>
      <point x="243.5" y="-62"/>
      <point x="148.838" y="-174"/>
      <point x="37.2082" y="-152" type="curve"/>
      <point x="35.2082" y="-162" type="line"/>
      <point x="180.232" y="-194"/>
      <point x="288.598" y="-86"/>
      <point x="333.69" y="55.2365" type="curve" smooth="yes"/>
      <point x="494.847" y="558.843" type="line"/>
      <point x="698.987" y="-12" type="line"/>
      <point x="708.423" y="-12" type="line"/>
      <point x="709.954" y="35.6245"/>
      <point x="730.284" y="99.1565"/>
      <point x="730.284" y="99.1565" type="curve"/>
      <point x="922.406" y="656.45" type="line" smooth="yes"/>
      <point x="959.037" y="762.707"/>
      <point x="1038.22" y="927.247"/>
      <point x="1204.22" y="934.023" type="curve"/>
      <point x="1204.22" y="944.023" type="line"/>
      <point x="999.22" y="951.802"/>
      <point x="894.377" y="780.102"/>
      <point x="857.364" y="656.45" type="curve" smooth="yes"/>
    </contour>
    <contour>
      <point x="434.251" y="764.096"/>
      <point x="451.746" y="781.591"/>
      <point x="451.746" y="803.174" type="curve" smooth="yes"/>
      <point x="451.746" y="824.757"/>
      <point x="434.251" y="842.253"/>
      <point x="412.668" y="842.253" type="curve" smooth="yes"/>
      <point x="391.085" y="842.253"/>
      <point x="373.59" y="824.757"/>
      <point x="373.59" y="803.174" type="curve" smooth="yes"/>
      <point x="373.59" y="781.591"/>
      <point x="391.085" y="764.096"/>
      <point x="412.668" y="764.096" type="curve" smooth="yes"/>
    </contour>
    <contour>
      <point x="622.625" y="764.096"/>
      <point x="640.12" y="781.591"/>
      <point x="640.12" y="803.174" type="curve" smooth="yes"/>
      <point x="640.12" y="824.757"/>
      <point x="622.625" y="842.253"/>
      <point x="601.042" y="842.253" type="curve" smooth="yes"/>
      <point x="579.459" y="842.253"/>
      <point x="561.964" y="824.757"/>
      <point x="561.964" y="803.174" type="curve" smooth="yes"/>
      <point x="561.964" y="781.591"/>
      <point x="579.459" y="764.096"/>
      <point x="601.042" y="764.096" type="curve" smooth="yes"/>
    </contour>
  </outline>
</glyph>
<glyph name="wdieresis" format="1">
  <advance width="982"/>
  <unicode hex="1E85"/>
  <outline>
    <contour>
      <point x="434.531" y="774.097"/>
      <point x="452.026" y="791.592"/>
      <point x="452.026" y="813.175" type="curve" smooth="yes"/>
      <point x="452.026" y="834.758"/>
      <point x="434.531" y="852.254"/>
      <point x="412.948" y="852.254" type="curve" smooth="yes"/>
      <point x="391.365" y="852.254"/>
      <point x="373.87" y="834.758"/>
      <point x="373.87" y="813.175" type="curve" smooth="yes"/>
      <point x="373.87" y="791.592"/>
      <point x="391.365" y="774.097"/>
      <point x="412.948" y="774.097" type="curve" smooth="yes"/>
    </contour>
    <contour>
      <point x="622.905" y="774.097"/>
      <point x="640.4" y="791.592"/>
      <point x="640.4" y="813.175" type="curve" smooth="yes"/>
      <point x="640.4" y="834.758"/>
      <point x="622.905" y="852.254"/>
      <point x="601.322" y="852.254" type="curve" smooth="yes"/>
      <point x="579.739" y="852.254"/>
      <point x="562.244" y="834.758"/>
      <point x="562.244" y="813.175" type="curve" smooth="yes"/>
      <point x="562.244" y="791.592"/>
      <point x="579.739" y="774.097"/>
      <point x="601.322" y="774.097" type="curve" smooth="yes"/>
    </contour>
    <contour>
      <point x="794.803" y="700" type="line"/>
      <point x="794.803" y="690.093" type="line"/>
      <point x="803.595" y="690.093" type="line" smooth="yes"/>
      <point x="830.803" y="690.093"/>
      <point x="852.24" y="668.812"/>
      <point x="842.309" y="630.432" type="curve" smooth="yes"/>
      <point x="708.397" y="162.156" type="line"/>
      <point x="511.183" y="715.321" type="line"/>
      <point x="501.87" y="715.642" type="line"/>
      <point x="315.666" y="141.939" type="line"/>
      <point x="164.398" y="628.627" type="line" smooth="yes"/>
      <point x="152.615" y="667.948"/>
      <point x="177.867" y="690.087"/>
      <point x="203.442" y="690.087" type="curve" smooth="yes"/>
      <point x="212.234" y="690.087" type="line"/>
      <point x="212.234" y="700" type="line"/>
      <point x="-10" y="700" type="line"/>
      <point x="-10" y="690" type="line"/>
      <point x="-2" y="690" type="line" smooth="yes"/>
      <point x="28.6411" y="690"/>
      <point x="69.071" y="672.466"/>
      <point x="85.6524" y="629.023" type="curve" smooth="yes"/>
      <point x="312.596" y="-12" type="line"/>
      <point x="322.032" y="-12" type="line"/>
      <point x="323.678" y="37.1503"/>
      <point x="342.993" y="99.1573"/>
      <point x="342.993" y="99.1573" type="curve"/>
      <point x="494.496" y="559.826" type="line"/>
      <point x="698.988" y="-12" type="line"/>
      <point x="708.424" y="-12" type="line"/>
      <point x="709.955" y="35.6253"/>
      <point x="730.285" y="99.1573"/>
      <point x="730.285" y="99.1573" type="curve"/>
      <point x="895.869" y="628.034" type="line" smooth="yes"/>
      <point x="911.233" y="672.194"/>
      <point x="953.097" y="690"/>
      <point x="983.622" y="690" type="curve" smooth="yes"/>
      <point x="992.413" y="690" type="line"/>
      <point x="992.412" y="700" type="line"/>
    </contour>
  </outline>
</glyph>
<glyph name="ygrave" format="1">
  <advance width="661"/>
  <unicode hex="1EF3"/>
  <outline>
    <contour>
      <point x="350.478" y="771" type="line"/>
      <point x="308.156" y="817.631"/>
      <point x="265.833" y="861.263"/>
      <point x="223.511" y="901.894" type="curve"/>
      <point x="207.877" y="887.358"/>
      <point x="193.243" y="869.821"/>
      <point x="182.608" y="849.285" type="curve"/>
      <point x="236.231" y="817.857"/>
      <point x="289.855" y="789.428"/>
      <point x="343.478" y="764" type="curve"/>
    </contour>
    <contour>
      <point x="449.868" y="700.017" type="line"/>
      <point x="449.868" y="689.993" type="line"/>
      <point x="462.468" y="689.993" type="line" smooth="yes"/>
      <point x="489.414" y="689.993"/>
      <point x="513.609" y="657.132"/>
      <point x="498.051" y="628.967" type="curve" smooth="yes"/>
      <point x="497.524" y="628.04" type="line"/>
      <point x="338.151" y="348.103" type="line"/>
      <point x="188.308" y="627.953" type="line" smooth="yes"/>
      <point x="173.594" y="656.339"/>
      <point x="194.051" y="690.035"/>
      <point x="223.324" y="690.035" type="curve" smooth="yes"/>
      <point x="235.923" y="690.035" type="line"/>
      <point x="235.923" y="700" type="line"/>
      <point x="-10" y="700" type="line"/>
      <point x="-10" y="690.035" type="line"/>
      <point x="3.63201" y="690.035" type="line" smooth="yes"/>
      <point x="45.4481" y="690.035"/>
      <point x="84.8065" y="662.318"/>
      <point x="104.175" y="631.606" type="curve" smooth="yes"/>
      <point x="294.572" y="313.296" type="line"/>
      <point x="294.572" y="72.2766" type="line" smooth="yes"/>
      <point x="293.611" y="37.7144"/>
      <point x="265.337" y="9.97932"/>
      <point x="230.532" y="9.97932" type="curve" smooth="yes"/>
      <point x="217.882" y="10" type="line"/>
      <point x="217.721" y="0" type="line"/>
      <point x="436.468" y="0" type="line"/>
      <point x="436.307" y="10" type="line"/>
      <point x="423.657" y="9.97932" type="line" smooth="yes"/>
      <point x="388.655" y="9.97932"/>
      <point x="360.258" y="38.0293"/>
      <point x="359.603" y="72.8643" type="curve"/>
      <point x="359.603" y="312.295" type="line"/>
      <point x="557.331" y="631.92" type="line"/>
      <point x="578.69" y="662.513"/>
      <point x="615.961" y="689.993"/>
      <point x="657.64" y="689.993" type="curve" smooth="yes"/>
      <point x="671.64" y="689.993" type="line"/>
      <point x="671.64" y="700.017" type="line"/>
    </contour>
  </outline>
</glyph>
<glyph name="quotedblleft" format="1">
  <advance width="334"/>
  <unicode hex="201C"/>
  <outline>
    <contour>
      <point x="144.614" y="783.541" type="line"/>
      <point x="75.3301" y="781.351"/>
      <point x="18.2616" y="707.97"/>
      <point x="52.7112" y="625.361" type="curve" smooth="yes"/>
      <point x="70.6424" y="582.495"/>
      <point x="122.258" y="584.678"/>
      <point x="135.768" y="615.367" type="curve" smooth="yes"/>
      <point x="147.644" y="642.345"/>
      <point x="125.235" y="660.904"/>
      <point x="111.422" y="677.435" type="curve" smooth="yes"/>
      <point x="93.2904" y="699.208"/>
      <point x="82.7404" y="753.97"/>
      <point x="147.2" y="774.779" type="curve"/>
    </contour>
    <contour>
      <point x="284.614" y="783.541" type="line"/>
      <point x="215.33" y="781.351"/>
      <point x="158.262" y="707.97"/>
      <point x="192.711" y="625.361" type="curve" smooth="yes"/>
      <point x="210.642" y="582.495"/>
      <point x="262.258" y="584.678"/>
      <point x="275.768" y="615.367" type="curve" smooth="yes"/>
      <point x="287.644" y="642.345"/>
      <point x="265.235" y="660.904"/>
      <point x="251.422" y="677.435" type="curve" smooth="yes"/>
      <point x="233.29" y="699.208"/>
      <point x="222.74" y="753.97"/>
      <point x="287.2" y="774.779" type="curve"/>
    </contour>
  </outline>
</glyph>
<glyph name="fraction" format="1">
  <advance width="542"/>
  <unicode hex="2044"/>
  <outline>
    <contour>
      <point x="498.349" y="714" type="line"/>
      <point x="522.492" y="697.154" type="line"/>
      <point x="44.508" y="-14" type="line"/>
      <point x="20" y="2.08358" type="line"/>
    </contour>
  </outline>
</glyph>
